M48
;Layer_Color=9474304
;FILE_FORMAT=2:4
INCH,LZ
;TYPE=PLATED
T1F00S00C0.0100
T2F00S00C0.0276
T3F00S00C0.0354
T4F00S00C0.0394
T5F00S00C0.0472
%
T01
X00058Y00983
X0057Y00884
X00811Y00875
X00985Y00871
X01059Y01421
X01335Y01488
X00749Y01503
Y02484
X01051Y02574
X01342Y02506
X01552Y02272
X01637Y01985
X01565Y01712
X00552Y01717
X00482Y01988
X00552Y02278
T02
X00956Y02014
X011529
T03
X00956Y00176
Y00276
Y00376
T04
X00644Y00112
Y00212
X00744
Y00112
Y00312
X00644
T05
X00167Y00131
Y00231
Y00331
Y00431
Y00531
Y00631
Y00731
Y00831
Y00931
Y01031
Y01131
Y01231
Y01331
Y01431
X00467
Y01331
Y01231
Y01131
Y01031
Y00931
Y00831
Y00731
Y00631
Y00531
Y00431
Y00331
Y00231
Y00131
M30
