G04*
G04 #@! TF.GenerationSoftware,Altium Limited,Altium Designer,18.1.9 (240)*
G04*
G04 Layer_Physical_Order=1*
G04 Layer_Color=255*
%FSLAX24Y24*%
%MOIN*%
G70*
G01*
G75*
%ADD10C,0.0100*%
G04:AMPARAMS|DCode=14|XSize=47.2mil|YSize=43.3mil|CornerRadius=0mil|HoleSize=0mil|Usage=FLASHONLY|Rotation=300.000|XOffset=0mil|YOffset=0mil|HoleType=Round|Shape=Rectangle|*
%AMROTATEDRECTD14*
4,1,4,-0.0306,0.0096,0.0069,0.0313,0.0306,-0.0096,-0.0069,-0.0313,-0.0306,0.0096,0.0*
%
%ADD14ROTATEDRECTD14*%

%ADD15R,0.0472X0.0433*%
G04:AMPARAMS|DCode=16|XSize=47.2mil|YSize=43.3mil|CornerRadius=0mil|HoleSize=0mil|Usage=FLASHONLY|Rotation=30.000|XOffset=0mil|YOffset=0mil|HoleType=Round|Shape=Rectangle|*
%AMROTATEDRECTD16*
4,1,4,-0.0096,-0.0306,-0.0313,0.0069,0.0096,0.0306,0.0313,-0.0069,-0.0096,-0.0306,0.0*
%
%ADD16ROTATEDRECTD16*%

G04:AMPARAMS|DCode=17|XSize=47.2mil|YSize=43.3mil|CornerRadius=0mil|HoleSize=0mil|Usage=FLASHONLY|Rotation=60.000|XOffset=0mil|YOffset=0mil|HoleType=Round|Shape=Rectangle|*
%AMROTATEDRECTD17*
4,1,4,0.0069,-0.0313,-0.0306,-0.0096,-0.0069,0.0313,0.0306,0.0096,0.0069,-0.0313,0.0*
%
%ADD17ROTATEDRECTD17*%

%ADD18R,0.0433X0.0472*%
G04:AMPARAMS|DCode=19|XSize=47.2mil|YSize=43.3mil|CornerRadius=0mil|HoleSize=0mil|Usage=FLASHONLY|Rotation=150.000|XOffset=0mil|YOffset=0mil|HoleType=Round|Shape=Rectangle|*
%AMROTATEDRECTD19*
4,1,4,0.0313,0.0069,0.0096,-0.0306,-0.0313,-0.0069,-0.0096,0.0306,0.0313,0.0069,0.0*
%
%ADD19ROTATEDRECTD19*%

%ADD30C,0.0200*%
%ADD31C,0.0591*%
%ADD32R,0.0591X0.0591*%
%ADD33C,0.0600*%
%ADD34C,0.0660*%
%ADD35C,0.0150*%
G36*
X20670Y28250D02*
X20670Y0D01*
X-10D01*
Y28260D01*
X10325Y38595D01*
X20670Y28250D01*
D02*
G37*
%LPC*%
G36*
X10846Y27410D02*
X10560D01*
Y27143D01*
X10846D01*
Y27410D01*
D02*
G37*
G36*
X10460D02*
X10174D01*
Y27143D01*
X10460D01*
Y27410D01*
D02*
G37*
G36*
X10846Y27043D02*
X10560D01*
Y26777D01*
X10846D01*
Y27043D01*
D02*
G37*
G36*
X10460D02*
X10174D01*
Y26777D01*
X10460D01*
Y27043D01*
D02*
G37*
G36*
X13924Y26640D02*
X13791Y26409D01*
X14038Y26266D01*
X14172Y26497D01*
X13924Y26640D01*
D02*
G37*
G36*
X6956Y26510D02*
X6708Y26367D01*
X6842Y26136D01*
X7089Y26279D01*
X6956Y26510D01*
D02*
G37*
G36*
X14258Y26447D02*
X14125Y26216D01*
X14373Y26073D01*
X14506Y26304D01*
X14258Y26447D01*
D02*
G37*
G36*
X13741Y26323D02*
X13607Y26092D01*
X13855Y25949D01*
X13988Y26180D01*
X13741Y26323D01*
D02*
G37*
G36*
X6622Y26317D02*
X6374Y26174D01*
X6507Y25943D01*
X6755Y26086D01*
X6622Y26317D01*
D02*
G37*
G36*
X7139Y26193D02*
X6892Y26050D01*
X7025Y25819D01*
X7273Y25962D01*
X7139Y26193D01*
D02*
G37*
G36*
X14075Y26130D02*
X13942Y25899D01*
X14190Y25756D01*
X14323Y25987D01*
X14075Y26130D01*
D02*
G37*
G36*
X6805Y26000D02*
X6557Y25857D01*
X6690Y25626D01*
X6938Y25769D01*
X6805Y26000D01*
D02*
G37*
G36*
X10806Y26543D02*
X10214D01*
Y25990D01*
X10398D01*
Y25815D01*
X10383Y25793D01*
X10372Y25740D01*
X10383Y25687D01*
X10413Y25643D01*
X10457Y25613D01*
X10510Y25602D01*
X10563Y25613D01*
X10607Y25643D01*
X10637Y25687D01*
X10648Y25740D01*
X10637Y25793D01*
X10622Y25815D01*
Y25990D01*
X10806D01*
Y26543D01*
D02*
G37*
G36*
X13525Y25870D02*
X13249Y25391D01*
X13437Y25282D01*
X13444Y25232D01*
X13406Y25195D01*
X13367Y25187D01*
X13323Y25157D01*
X13293Y25113D01*
X13282Y25060D01*
X13293Y25007D01*
X13323Y24963D01*
X13367Y24933D01*
X13420Y24922D01*
X13473Y24933D01*
X13517Y24963D01*
X13547Y25007D01*
X13550Y25021D01*
X13640Y25111D01*
X13643Y25110D01*
X13706Y25123D01*
X13709Y25125D01*
X13762Y25094D01*
X14038Y25573D01*
X13525Y25870D01*
D02*
G37*
G36*
X7355Y25740D02*
X6842Y25443D01*
X7118Y24964D01*
X7139Y24976D01*
X7174Y24953D01*
X7237Y24940D01*
X7240Y24941D01*
X7355Y24826D01*
X7363Y24787D01*
X7393Y24743D01*
X7437Y24713D01*
X7490Y24702D01*
X7543Y24713D01*
X7587Y24743D01*
X7617Y24787D01*
X7628Y24840D01*
X7617Y24893D01*
X7587Y24937D01*
X7543Y24967D01*
X7529Y24970D01*
X7416Y25082D01*
X7422Y25140D01*
X7631Y25261D01*
X7355Y25740D01*
D02*
G37*
G36*
X4176Y23976D02*
X4033Y23728D01*
X4264Y23595D01*
X4407Y23843D01*
X4176Y23976D01*
D02*
G37*
G36*
X16784Y23916D02*
X16553Y23783D01*
X16696Y23535D01*
X16927Y23668D01*
X16784Y23916D01*
D02*
G37*
G36*
X4493Y23793D02*
X4350Y23545D01*
X4581Y23412D01*
X4724Y23660D01*
X4493Y23793D01*
D02*
G37*
G36*
X16467Y23733D02*
X16236Y23600D01*
X16379Y23352D01*
X16610Y23485D01*
X16467Y23733D01*
D02*
G37*
G36*
X3983Y23642D02*
X3840Y23394D01*
X4071Y23261D01*
X4214Y23508D01*
X3983Y23642D01*
D02*
G37*
G36*
X16977Y23582D02*
X16746Y23448D01*
X16889Y23201D01*
X17120Y23334D01*
X16977Y23582D01*
D02*
G37*
G36*
X4300Y23458D02*
X4157Y23211D01*
X4388Y23077D01*
X4531Y23325D01*
X4300Y23458D01*
D02*
G37*
G36*
X16660Y23398D02*
X16429Y23265D01*
X16572Y23017D01*
X16803Y23151D01*
X16660Y23398D01*
D02*
G37*
G36*
X16053Y23448D02*
X15574Y23172D01*
X15665Y23014D01*
X15506Y22855D01*
X15467Y22847D01*
X15423Y22817D01*
X15393Y22773D01*
X15382Y22720D01*
X15393Y22667D01*
X15423Y22623D01*
X15467Y22593D01*
X15520Y22582D01*
X15573Y22593D01*
X15617Y22623D01*
X15647Y22667D01*
X15650Y22681D01*
X15752Y22784D01*
X15802Y22777D01*
X15871Y22659D01*
X16350Y22935D01*
X16053Y23448D01*
D02*
G37*
G36*
X4907Y23508D02*
X4610Y22995D01*
X5089Y22719D01*
X5195Y22901D01*
X5244Y22907D01*
X5385Y22766D01*
X5393Y22727D01*
X5423Y22683D01*
X5467Y22653D01*
X5520Y22642D01*
X5573Y22653D01*
X5617Y22683D01*
X5647Y22727D01*
X5658Y22780D01*
X5647Y22833D01*
X5617Y22877D01*
X5573Y22907D01*
X5559Y22910D01*
X5359Y23110D01*
X5360Y23113D01*
X5349Y23168D01*
X5386Y23232D01*
X4907Y23508D01*
D02*
G37*
G36*
X9610Y20537D02*
Y20190D01*
X9957D01*
X9950Y20244D01*
X9909Y20342D01*
X9845Y20425D01*
X9762Y20489D01*
X9664Y20530D01*
X9610Y20537D01*
D02*
G37*
G36*
X9510D02*
X9456Y20530D01*
X9358Y20489D01*
X9275Y20425D01*
X9211Y20342D01*
X9170Y20244D01*
X9163Y20190D01*
X9510D01*
Y20537D01*
D02*
G37*
G36*
X3693Y20246D02*
X3427D01*
Y19960D01*
X3693D01*
Y20246D01*
D02*
G37*
G36*
X3327D02*
X3060D01*
Y19960D01*
X3327D01*
Y20246D01*
D02*
G37*
G36*
X17123Y20166D02*
X16570D01*
Y19932D01*
X16477D01*
X16467Y19947D01*
X16423Y19977D01*
X16370Y19988D01*
X16317Y19977D01*
X16273Y19947D01*
X16243Y19903D01*
X16232Y19850D01*
X16243Y19797D01*
X16273Y19753D01*
X16317Y19723D01*
X16370Y19712D01*
X16379Y19714D01*
X16410Y19708D01*
X16570D01*
Y19574D01*
X17123D01*
Y20166D01*
D02*
G37*
G36*
X17990Y20206D02*
X17723D01*
Y19920D01*
X17990D01*
Y20206D01*
D02*
G37*
G36*
X17623D02*
X17357D01*
Y19920D01*
X17623D01*
Y20206D01*
D02*
G37*
G36*
X11529Y20503D02*
X11435Y20491D01*
X11347Y20454D01*
X11272Y20397D01*
X11214Y20322D01*
X11178Y20234D01*
X11165Y20140D01*
X11178Y20046D01*
X11214Y19958D01*
X11272Y19883D01*
X11347Y19826D01*
X11435Y19789D01*
X11529Y19777D01*
X11622Y19789D01*
X11710Y19826D01*
X11785Y19883D01*
X11843Y19958D01*
X11879Y20046D01*
X11892Y20140D01*
X11879Y20234D01*
X11843Y20322D01*
X11785Y20397D01*
X11710Y20454D01*
X11622Y20491D01*
X11529Y20503D01*
D02*
G37*
G36*
X9957Y20090D02*
X9610D01*
Y19743D01*
X9664Y19750D01*
X9762Y19791D01*
X9845Y19855D01*
X9909Y19938D01*
X9950Y20036D01*
X9957Y20090D01*
D02*
G37*
G36*
X9510D02*
X9163D01*
X9170Y20036D01*
X9211Y19938D01*
X9275Y19855D01*
X9358Y19791D01*
X9456Y19750D01*
X9510Y19743D01*
Y20090D01*
D02*
G37*
G36*
X4480Y20206D02*
X3927D01*
Y19614D01*
X4480D01*
Y19798D01*
X4713D01*
X4723Y19783D01*
X4767Y19753D01*
X4820Y19742D01*
X4873Y19753D01*
X4917Y19783D01*
X4947Y19827D01*
X4958Y19880D01*
X4947Y19933D01*
X4917Y19977D01*
X4873Y20007D01*
X4844Y20013D01*
X4843Y20014D01*
X4800Y20022D01*
X4480D01*
Y20206D01*
D02*
G37*
G36*
X3693Y19860D02*
X3427D01*
Y19574D01*
X3693D01*
Y19860D01*
D02*
G37*
G36*
X3327D02*
X3060D01*
Y19574D01*
X3327D01*
Y19860D01*
D02*
G37*
G36*
X17990Y19820D02*
X17723D01*
Y19534D01*
X17990D01*
Y19820D01*
D02*
G37*
G36*
X17623D02*
X17357D01*
Y19534D01*
X17623D01*
Y19820D01*
D02*
G37*
G36*
X15951Y17281D02*
X15856Y17118D01*
X15807Y17112D01*
X15785Y17134D01*
X15777Y17173D01*
X15747Y17217D01*
X15703Y17247D01*
X15650Y17258D01*
X15597Y17247D01*
X15553Y17217D01*
X15523Y17173D01*
X15512Y17120D01*
X15523Y17067D01*
X15553Y17023D01*
X15597Y16993D01*
X15611Y16990D01*
X15711Y16890D01*
X15710Y16887D01*
X15713Y16871D01*
X15654Y16768D01*
X16133Y16492D01*
X16430Y17005D01*
X15951Y17281D01*
D02*
G37*
G36*
X5520Y17308D02*
X5467Y17297D01*
X5423Y17267D01*
X5393Y17223D01*
X5385Y17184D01*
X5237Y17036D01*
X5188Y17042D01*
X5049Y17281D01*
X4570Y17005D01*
X4867Y16492D01*
X5346Y16768D01*
X5324Y16806D01*
X5326Y16807D01*
X5559Y17040D01*
X5573Y17043D01*
X5617Y17073D01*
X5647Y17117D01*
X5658Y17170D01*
X5647Y17223D01*
X5617Y17267D01*
X5573Y17297D01*
X5520Y17308D01*
D02*
G37*
G36*
X4348Y16923D02*
X4117Y16789D01*
X4260Y16542D01*
X4491Y16675D01*
X4348Y16923D01*
D02*
G37*
G36*
X16652D02*
X16509Y16675D01*
X16740Y16542D01*
X16883Y16789D01*
X16652Y16923D01*
D02*
G37*
G36*
X4031Y16739D02*
X3800Y16606D01*
X3943Y16358D01*
X4174Y16492D01*
X4031Y16739D01*
D02*
G37*
G36*
X16969D02*
X16826Y16492D01*
X17057Y16358D01*
X17200Y16606D01*
X16969Y16739D01*
D02*
G37*
G36*
X4541Y16588D02*
X4310Y16455D01*
X4453Y16207D01*
X4684Y16340D01*
X4541Y16588D01*
D02*
G37*
G36*
X16459D02*
X16316Y16340D01*
X16547Y16207D01*
X16690Y16455D01*
X16459Y16588D01*
D02*
G37*
G36*
X16776Y16405D02*
X16633Y16157D01*
X16864Y16024D01*
X17007Y16272D01*
X16776Y16405D01*
D02*
G37*
G36*
X4224Y16405D02*
X3993Y16272D01*
X4136Y16024D01*
X4367Y16157D01*
X4224Y16405D01*
D02*
G37*
G36*
X7490Y15168D02*
X7437Y15157D01*
X7393Y15127D01*
X7363Y15083D01*
X7358Y15056D01*
X7164Y14863D01*
X7038Y14936D01*
X6762Y14457D01*
X7275Y14160D01*
X7551Y14639D01*
X7401Y14726D01*
X7394Y14776D01*
X7516Y14898D01*
X7543Y14903D01*
X7587Y14933D01*
X7617Y14977D01*
X7628Y15030D01*
X7617Y15083D01*
X7587Y15127D01*
X7543Y15157D01*
X7490Y15168D01*
D02*
G37*
G36*
X13350Y15018D02*
X13297Y15007D01*
X13253Y14977D01*
X13223Y14933D01*
X13212Y14880D01*
X13223Y14827D01*
X13253Y14783D01*
X13297Y14753D01*
X13324Y14748D01*
X13419Y14652D01*
X13412Y14603D01*
X13199Y14479D01*
X13475Y14000D01*
X13988Y14297D01*
X13712Y14776D01*
X13649Y14740D01*
X13482Y14906D01*
X13477Y14933D01*
X13447Y14977D01*
X13403Y15007D01*
X13350Y15018D01*
D02*
G37*
G36*
X1670Y14668D02*
X1577Y14656D01*
X1491Y14620D01*
X1417Y14563D01*
X1360Y14489D01*
X1324Y14403D01*
X1312Y14310D01*
X1324Y14217D01*
X1360Y14131D01*
X1417Y14057D01*
X1491Y14000D01*
X1577Y13964D01*
X1670Y13952D01*
X1763Y13964D01*
X1849Y14000D01*
X1923Y14057D01*
X1980Y14131D01*
X2016Y14217D01*
X2028Y14310D01*
X2016Y14403D01*
X1980Y14489D01*
X1923Y14563D01*
X1849Y14620D01*
X1763Y14656D01*
X1670Y14668D01*
D02*
G37*
G36*
X6610Y14274D02*
X6477Y14043D01*
X6725Y13900D01*
X6858Y14131D01*
X6610Y14274D01*
D02*
G37*
G36*
X14140Y14114D02*
X13892Y13971D01*
X14025Y13740D01*
X14273Y13883D01*
X14140Y14114D01*
D02*
G37*
G36*
X6945Y14081D02*
X6812Y13850D01*
X7059Y13707D01*
X7193Y13938D01*
X6945Y14081D01*
D02*
G37*
G36*
X6427Y13957D02*
X6294Y13726D01*
X6542Y13583D01*
X6675Y13814D01*
X6427Y13957D01*
D02*
G37*
G36*
X13805Y13921D02*
X13557Y13778D01*
X13691Y13547D01*
X13938Y13690D01*
X13805Y13921D01*
D02*
G37*
G36*
X14323Y13797D02*
X14075Y13654D01*
X14208Y13423D01*
X14456Y13566D01*
X14323Y13797D01*
D02*
G37*
G36*
X6762Y13764D02*
X6628Y13533D01*
X6876Y13390D01*
X7009Y13621D01*
X6762Y13764D01*
D02*
G37*
G36*
X10590Y14348D02*
X10537Y14337D01*
X10493Y14307D01*
X10463Y14263D01*
X10452Y14210D01*
X10463Y14157D01*
X10478Y14135D01*
Y13860D01*
X10274D01*
Y13307D01*
X10866D01*
Y13860D01*
X10702D01*
Y14135D01*
X10717Y14157D01*
X10728Y14210D01*
X10717Y14263D01*
X10687Y14307D01*
X10643Y14337D01*
X10590Y14348D01*
D02*
G37*
G36*
X13988Y13604D02*
X13741Y13461D01*
X13874Y13230D01*
X14122Y13373D01*
X13988Y13604D01*
D02*
G37*
G36*
X4670Y13668D02*
X4577Y13656D01*
X4491Y13620D01*
X4417Y13563D01*
X4360Y13489D01*
X4324Y13403D01*
X4312Y13310D01*
X4324Y13217D01*
X4360Y13131D01*
X4417Y13057D01*
X4491Y13000D01*
X4577Y12964D01*
X4670Y12952D01*
X4763Y12964D01*
X4849Y13000D01*
X4923Y13057D01*
X4980Y13131D01*
X5016Y13217D01*
X5028Y13310D01*
X5016Y13403D01*
X4980Y13489D01*
X4923Y13563D01*
X4849Y13620D01*
X4763Y13656D01*
X4670Y13668D01*
D02*
G37*
G36*
X1670D02*
X1577Y13656D01*
X1491Y13620D01*
X1417Y13563D01*
X1360Y13489D01*
X1324Y13403D01*
X1312Y13310D01*
X1324Y13217D01*
X1360Y13131D01*
X1417Y13057D01*
X1491Y13000D01*
X1577Y12964D01*
X1670Y12952D01*
X1763Y12964D01*
X1849Y13000D01*
X1923Y13057D01*
X1980Y13131D01*
X2016Y13217D01*
X2028Y13310D01*
X2016Y13403D01*
X1980Y13489D01*
X1923Y13563D01*
X1849Y13620D01*
X1763Y13656D01*
X1670Y13668D01*
D02*
G37*
G36*
X3190Y12872D02*
X3190Y12872D01*
X1547D01*
X1547Y12872D01*
X1504Y12864D01*
X1468Y12839D01*
X1185Y12557D01*
X1161Y12521D01*
X1153Y12478D01*
X1153Y12478D01*
Y11715D01*
X1153Y11715D01*
X1161Y11672D01*
X1185Y11636D01*
X1352Y11470D01*
X1324Y11403D01*
X1312Y11310D01*
X1324Y11217D01*
X1360Y11131D01*
X1417Y11057D01*
X1491Y11000D01*
X1577Y10964D01*
X1670Y10952D01*
X1763Y10964D01*
X1849Y11000D01*
X1923Y11057D01*
X1980Y11131D01*
X2016Y11217D01*
X2028Y11310D01*
X2016Y11403D01*
X1980Y11489D01*
X1923Y11563D01*
X1849Y11620D01*
X1763Y11656D01*
X1670Y11668D01*
X1577Y11656D01*
X1510Y11628D01*
X1377Y11762D01*
Y12033D01*
X1427Y12049D01*
X1491Y12000D01*
X1577Y11964D01*
X1670Y11952D01*
X1763Y11964D01*
X1849Y12000D01*
X1923Y12057D01*
X1980Y12131D01*
X2008Y12198D01*
X2327D01*
X3700Y10825D01*
X3700Y10825D01*
X3736Y10801D01*
X3779Y10793D01*
X4602D01*
X4681Y10713D01*
X4657Y10667D01*
X4577Y10656D01*
X4491Y10620D01*
X4417Y10563D01*
X4360Y10489D01*
X4324Y10403D01*
X4312Y10310D01*
X4324Y10217D01*
X4360Y10131D01*
X4417Y10057D01*
X4491Y10000D01*
X4577Y9964D01*
X4670Y9952D01*
X4763Y9964D01*
X4849Y10000D01*
X4923Y10057D01*
X4980Y10131D01*
X5016Y10217D01*
X5027Y10297D01*
X5073Y10321D01*
X5828Y9567D01*
Y9025D01*
X5778Y8999D01*
X5768Y9005D01*
X5750Y9009D01*
Y8840D01*
Y8672D01*
X5768Y8675D01*
X5778Y8682D01*
X5828Y8655D01*
Y2620D01*
X5828Y2620D01*
X5836Y2577D01*
X5861Y2541D01*
X6122Y2280D01*
X6094Y2213D01*
X6082Y2120D01*
X6094Y2027D01*
X6130Y1941D01*
X6179Y1877D01*
X6163Y1827D01*
X4841D01*
X4838Y1827D01*
X4838Y1827D01*
X4301D01*
X2882Y3246D01*
Y8783D01*
X2882Y8783D01*
X2874Y8826D01*
X2849Y8862D01*
X1786Y9926D01*
X1791Y9976D01*
X1849Y10000D01*
X1923Y10057D01*
X1980Y10131D01*
X2016Y10217D01*
X2028Y10310D01*
X2016Y10403D01*
X1980Y10489D01*
X1923Y10563D01*
X1849Y10620D01*
X1763Y10656D01*
X1670Y10668D01*
X1577Y10656D01*
X1491Y10620D01*
X1417Y10563D01*
X1360Y10489D01*
X1324Y10403D01*
X1312Y10310D01*
X1324Y10217D01*
X1360Y10131D01*
X1417Y10057D01*
X1491Y10000D01*
X1558Y9972D01*
Y9883D01*
X1558Y9883D01*
X1566Y9840D01*
X1591Y9804D01*
X1639Y9755D01*
X1622Y9702D01*
X1567Y9695D01*
X1471Y9655D01*
X1388Y9592D01*
X1325Y9509D01*
X1285Y9413D01*
X1278Y9360D01*
X1670D01*
Y9310D01*
X1720D01*
Y8918D01*
X1773Y8925D01*
X1869Y8965D01*
X1952Y9028D01*
X2015Y9111D01*
X2055Y9207D01*
X2062Y9262D01*
X2115Y9279D01*
X2658Y8737D01*
Y3200D01*
X2658Y3200D01*
X2666Y3157D01*
X2691Y3121D01*
X4175Y1636D01*
X4175Y1636D01*
X4212Y1612D01*
X4255Y1603D01*
X4255Y1603D01*
X4393D01*
X4409Y1553D01*
X4360Y1489D01*
X4324Y1403D01*
X4312Y1310D01*
X4324Y1217D01*
X4360Y1131D01*
X4417Y1057D01*
X4491Y1000D01*
X4577Y964D01*
X4670Y952D01*
X4763Y964D01*
X4849Y1000D01*
X4923Y1057D01*
X4980Y1131D01*
X5016Y1217D01*
X5028Y1310D01*
X5016Y1403D01*
X4980Y1489D01*
X4932Y1553D01*
X4948Y1603D01*
X7035D01*
X7035Y1603D01*
X7078Y1611D01*
X7114Y1635D01*
X7280Y1802D01*
X7347Y1774D01*
X7440Y1762D01*
X7533Y1774D01*
X7619Y1810D01*
X7693Y1867D01*
X7750Y1941D01*
X7786Y2027D01*
X7798Y2120D01*
X7786Y2213D01*
X7750Y2299D01*
X7693Y2373D01*
X7619Y2430D01*
X7533Y2466D01*
X7440Y2478D01*
X7347Y2466D01*
X7261Y2430D01*
X7187Y2373D01*
X7130Y2299D01*
X7094Y2213D01*
X7082Y2120D01*
X7094Y2027D01*
X7122Y1960D01*
X6988Y1827D01*
X6717D01*
X6701Y1877D01*
X6750Y1941D01*
X6786Y2027D01*
X6798Y2120D01*
X6786Y2213D01*
X6750Y2299D01*
X6693Y2373D01*
X6619Y2430D01*
X6533Y2466D01*
X6440Y2478D01*
X6347Y2466D01*
X6280Y2438D01*
X6052Y2666D01*
Y2898D01*
X6062Y2903D01*
X6102Y2911D01*
X6158Y2838D01*
X6241Y2775D01*
X6337Y2735D01*
X6390Y2728D01*
Y3120D01*
Y3512D01*
X6337Y3505D01*
X6241Y3465D01*
X6158Y3402D01*
X6102Y3329D01*
X6062Y3337D01*
X6052Y3342D01*
Y9613D01*
X6052Y9613D01*
X6044Y9656D01*
X6019Y9692D01*
X6019Y9692D01*
X4791Y10921D01*
X4802Y10980D01*
X4849Y11000D01*
X4923Y11057D01*
X4980Y11131D01*
X5016Y11217D01*
X5027Y11297D01*
X5073Y11321D01*
X7328Y9067D01*
Y3475D01*
X7085D01*
Y2765D01*
X7795D01*
Y3475D01*
X7552D01*
Y9113D01*
X7552Y9113D01*
X7544Y9156D01*
X7519Y9192D01*
X7519Y9192D01*
X4917Y11795D01*
X4881Y11819D01*
X4838Y11827D01*
X4838Y11827D01*
X4502D01*
X4476Y11822D01*
X4286D01*
X3269Y12839D01*
X3233Y12864D01*
X3190Y12872D01*
D02*
G37*
G36*
X10906Y13073D02*
X10620D01*
Y12807D01*
X10906D01*
Y13073D01*
D02*
G37*
G36*
X10520D02*
X10234D01*
Y12807D01*
X10520D01*
Y13073D01*
D02*
G37*
G36*
X10906Y12707D02*
X10620D01*
Y12440D01*
X10906D01*
Y12707D01*
D02*
G37*
G36*
X10520D02*
X10234D01*
Y12440D01*
X10520D01*
Y12707D01*
D02*
G37*
G36*
X4670Y12668D02*
X4577Y12656D01*
X4491Y12620D01*
X4417Y12563D01*
X4360Y12489D01*
X4324Y12403D01*
X4312Y12310D01*
X4324Y12217D01*
X4360Y12131D01*
X4417Y12057D01*
X4491Y12000D01*
X4577Y11964D01*
X4670Y11952D01*
X4763Y11964D01*
X4849Y12000D01*
X4923Y12057D01*
X4980Y12131D01*
X5016Y12217D01*
X5028Y12310D01*
X5016Y12403D01*
X4980Y12489D01*
X4923Y12563D01*
X4849Y12620D01*
X4763Y12656D01*
X4670Y12668D01*
D02*
G37*
G36*
X630Y9998D02*
Y9880D01*
X748D01*
X745Y9898D01*
X706Y9956D01*
X648Y9995D01*
X630Y9998D01*
D02*
G37*
G36*
X530D02*
X512Y9995D01*
X454Y9956D01*
X415Y9898D01*
X412Y9880D01*
X530D01*
Y9998D01*
D02*
G37*
G36*
X748Y9780D02*
X630D01*
Y9662D01*
X648Y9665D01*
X706Y9704D01*
X745Y9762D01*
X748Y9780D01*
D02*
G37*
G36*
X530D02*
X412D01*
X415Y9762D01*
X454Y9704D01*
X512Y9665D01*
X530Y9662D01*
Y9780D01*
D02*
G37*
G36*
X4670Y9668D02*
X4577Y9656D01*
X4491Y9620D01*
X4417Y9563D01*
X4360Y9489D01*
X4324Y9403D01*
X4312Y9310D01*
X4324Y9217D01*
X4360Y9131D01*
X4417Y9057D01*
X4491Y9000D01*
X4577Y8964D01*
X4670Y8952D01*
X4763Y8964D01*
X4849Y9000D01*
X4923Y9057D01*
X4980Y9131D01*
X5016Y9217D01*
X5028Y9310D01*
X5016Y9403D01*
X4980Y9489D01*
X4923Y9563D01*
X4849Y9620D01*
X4763Y9656D01*
X4670Y9668D01*
D02*
G37*
G36*
X1620Y9260D02*
X1278D01*
X1285Y9207D01*
X1325Y9111D01*
X1388Y9028D01*
X1471Y8965D01*
X1567Y8925D01*
X1620Y8918D01*
Y9260D01*
D02*
G37*
G36*
X5650Y9009D02*
X5632Y9005D01*
X5574Y8966D01*
X5535Y8908D01*
X5532Y8890D01*
X5650D01*
Y9009D01*
D02*
G37*
G36*
X9900Y8878D02*
Y8760D01*
X10018D01*
X10015Y8778D01*
X9976Y8836D01*
X9918Y8875D01*
X9900Y8878D01*
D02*
G37*
G36*
X9800D02*
X9782Y8875D01*
X9724Y8836D01*
X9685Y8778D01*
X9682Y8760D01*
X9800D01*
Y8878D01*
D02*
G37*
G36*
X5650Y8790D02*
X5532D01*
X5535Y8772D01*
X5574Y8714D01*
X5632Y8675D01*
X5650Y8672D01*
Y8790D01*
D02*
G37*
G36*
X10018Y8660D02*
X9900D01*
Y8542D01*
X9918Y8545D01*
X9976Y8584D01*
X10015Y8642D01*
X10018Y8660D01*
D02*
G37*
G36*
X9800D02*
X9682D01*
X9685Y8642D01*
X9724Y8584D01*
X9782Y8545D01*
X9800Y8542D01*
Y8660D01*
D02*
G37*
G36*
X4720Y8702D02*
Y8360D01*
X5062D01*
X5055Y8413D01*
X5015Y8509D01*
X4952Y8592D01*
X4869Y8655D01*
X4773Y8695D01*
X4720Y8702D01*
D02*
G37*
G36*
X4620D02*
X4567Y8695D01*
X4471Y8655D01*
X4388Y8592D01*
X4325Y8509D01*
X4285Y8413D01*
X4278Y8360D01*
X4620D01*
Y8702D01*
D02*
G37*
G36*
X1670Y8668D02*
X1577Y8656D01*
X1491Y8620D01*
X1417Y8563D01*
X1360Y8489D01*
X1324Y8403D01*
X1312Y8310D01*
X1324Y8217D01*
X1360Y8131D01*
X1417Y8057D01*
X1491Y8000D01*
X1577Y7964D01*
X1670Y7952D01*
X1763Y7964D01*
X1849Y8000D01*
X1923Y8057D01*
X1980Y8131D01*
X2016Y8217D01*
X2028Y8310D01*
X2016Y8403D01*
X1980Y8489D01*
X1923Y8563D01*
X1849Y8620D01*
X1763Y8656D01*
X1670Y8668D01*
D02*
G37*
G36*
X5062Y8260D02*
X4720D01*
Y7918D01*
X4773Y7925D01*
X4869Y7965D01*
X4952Y8028D01*
X5015Y8111D01*
X5055Y8207D01*
X5062Y8260D01*
D02*
G37*
G36*
X4620D02*
X4278D01*
X4285Y8207D01*
X4325Y8111D01*
X4388Y8028D01*
X4471Y7965D01*
X4567Y7925D01*
X4620Y7918D01*
Y8260D01*
D02*
G37*
G36*
X4670Y7668D02*
X4577Y7656D01*
X4491Y7620D01*
X4417Y7563D01*
X4360Y7489D01*
X4324Y7403D01*
X4312Y7310D01*
X4324Y7217D01*
X4360Y7131D01*
X4417Y7057D01*
X4491Y7000D01*
X4577Y6964D01*
X4670Y6952D01*
X4763Y6964D01*
X4849Y7000D01*
X4923Y7057D01*
X4980Y7131D01*
X5016Y7217D01*
X5028Y7310D01*
X5016Y7403D01*
X4980Y7489D01*
X4923Y7563D01*
X4849Y7620D01*
X4763Y7656D01*
X4670Y7668D01*
D02*
G37*
G36*
X1670D02*
X1577Y7656D01*
X1491Y7620D01*
X1417Y7563D01*
X1360Y7489D01*
X1324Y7403D01*
X1312Y7310D01*
X1324Y7217D01*
X1360Y7131D01*
X1417Y7057D01*
X1491Y7000D01*
X1577Y6964D01*
X1670Y6952D01*
X1763Y6964D01*
X1849Y7000D01*
X1923Y7057D01*
X1980Y7131D01*
X2016Y7217D01*
X2028Y7310D01*
X2016Y7403D01*
X1980Y7489D01*
X1923Y7563D01*
X1849Y7620D01*
X1763Y7656D01*
X1670Y7668D01*
D02*
G37*
G36*
X4670Y6668D02*
X4577Y6656D01*
X4491Y6620D01*
X4417Y6563D01*
X4360Y6489D01*
X4324Y6403D01*
X4312Y6310D01*
X4324Y6217D01*
X4360Y6131D01*
X4417Y6057D01*
X4491Y6000D01*
X4577Y5964D01*
X4670Y5952D01*
X4763Y5964D01*
X4849Y6000D01*
X4923Y6057D01*
X4980Y6131D01*
X5016Y6217D01*
X5028Y6310D01*
X5016Y6403D01*
X4980Y6489D01*
X4923Y6563D01*
X4849Y6620D01*
X4763Y6656D01*
X4670Y6668D01*
D02*
G37*
G36*
X1670D02*
X1577Y6656D01*
X1491Y6620D01*
X1417Y6563D01*
X1360Y6489D01*
X1324Y6403D01*
X1312Y6310D01*
X1324Y6217D01*
X1360Y6131D01*
X1417Y6057D01*
X1491Y6000D01*
X1577Y5964D01*
X1670Y5952D01*
X1763Y5964D01*
X1849Y6000D01*
X1923Y6057D01*
X1980Y6131D01*
X2016Y6217D01*
X2028Y6310D01*
X2016Y6403D01*
X1980Y6489D01*
X1923Y6563D01*
X1849Y6620D01*
X1763Y6656D01*
X1670Y6668D01*
D02*
G37*
G36*
X4670Y5668D02*
X4577Y5656D01*
X4491Y5620D01*
X4417Y5563D01*
X4360Y5489D01*
X4324Y5403D01*
X4312Y5310D01*
X4324Y5217D01*
X4360Y5131D01*
X4417Y5057D01*
X4491Y5000D01*
X4577Y4964D01*
X4670Y4952D01*
X4763Y4964D01*
X4849Y5000D01*
X4923Y5057D01*
X4980Y5131D01*
X5016Y5217D01*
X5028Y5310D01*
X5016Y5403D01*
X4980Y5489D01*
X4923Y5563D01*
X4849Y5620D01*
X4763Y5656D01*
X4670Y5668D01*
D02*
G37*
G36*
X1670D02*
X1577Y5656D01*
X1491Y5620D01*
X1417Y5563D01*
X1360Y5489D01*
X1324Y5403D01*
X1312Y5310D01*
X1324Y5217D01*
X1360Y5131D01*
X1417Y5057D01*
X1491Y5000D01*
X1577Y4964D01*
X1670Y4952D01*
X1763Y4964D01*
X1849Y5000D01*
X1923Y5057D01*
X1980Y5131D01*
X2016Y5217D01*
X2028Y5310D01*
X2016Y5403D01*
X1980Y5489D01*
X1923Y5563D01*
X1849Y5620D01*
X1763Y5656D01*
X1670Y5668D01*
D02*
G37*
G36*
X4670Y4668D02*
X4577Y4656D01*
X4491Y4620D01*
X4417Y4563D01*
X4360Y4489D01*
X4324Y4403D01*
X4312Y4310D01*
X4324Y4217D01*
X4360Y4131D01*
X4417Y4057D01*
X4491Y4000D01*
X4577Y3964D01*
X4670Y3952D01*
X4763Y3964D01*
X4849Y4000D01*
X4923Y4057D01*
X4980Y4131D01*
X5016Y4217D01*
X5028Y4310D01*
X5016Y4403D01*
X4980Y4489D01*
X4923Y4563D01*
X4849Y4620D01*
X4763Y4656D01*
X4670Y4668D01*
D02*
G37*
G36*
X1670D02*
X1577Y4656D01*
X1491Y4620D01*
X1417Y4563D01*
X1360Y4489D01*
X1324Y4403D01*
X1312Y4310D01*
X1324Y4217D01*
X1360Y4131D01*
X1417Y4057D01*
X1491Y4000D01*
X1577Y3964D01*
X1670Y3952D01*
X1763Y3964D01*
X1849Y4000D01*
X1923Y4057D01*
X1980Y4131D01*
X2016Y4217D01*
X2028Y4310D01*
X2016Y4403D01*
X1980Y4489D01*
X1923Y4563D01*
X1849Y4620D01*
X1763Y4656D01*
X1670Y4668D01*
D02*
G37*
G36*
X9560Y4153D02*
X9458Y4140D01*
X9363Y4101D01*
X9282Y4038D01*
X9219Y3957D01*
X9180Y3862D01*
X9167Y3760D01*
X9180Y3658D01*
X9219Y3563D01*
X9282Y3482D01*
X9363Y3419D01*
X9458Y3380D01*
X9560Y3367D01*
X9662Y3380D01*
X9757Y3419D01*
X9838Y3482D01*
X9901Y3563D01*
X9940Y3658D01*
X9953Y3760D01*
X9940Y3862D01*
X9901Y3957D01*
X9838Y4038D01*
X9757Y4101D01*
X9662Y4140D01*
X9560Y4153D01*
D02*
G37*
G36*
X6490Y3512D02*
Y3170D01*
X6832D01*
X6825Y3223D01*
X6785Y3319D01*
X6722Y3402D01*
X6639Y3465D01*
X6543Y3505D01*
X6490Y3512D01*
D02*
G37*
G36*
X4670Y3668D02*
X4577Y3656D01*
X4491Y3620D01*
X4417Y3563D01*
X4360Y3489D01*
X4324Y3403D01*
X4312Y3310D01*
X4324Y3217D01*
X4360Y3131D01*
X4417Y3057D01*
X4491Y3000D01*
X4577Y2964D01*
X4670Y2952D01*
X4763Y2964D01*
X4849Y3000D01*
X4923Y3057D01*
X4980Y3131D01*
X5016Y3217D01*
X5028Y3310D01*
X5016Y3403D01*
X4980Y3489D01*
X4923Y3563D01*
X4849Y3620D01*
X4763Y3656D01*
X4670Y3668D01*
D02*
G37*
G36*
X1670D02*
X1577Y3656D01*
X1491Y3620D01*
X1417Y3563D01*
X1360Y3489D01*
X1324Y3403D01*
X1312Y3310D01*
X1324Y3217D01*
X1360Y3131D01*
X1417Y3057D01*
X1491Y3000D01*
X1577Y2964D01*
X1670Y2952D01*
X1763Y2964D01*
X1849Y3000D01*
X1923Y3057D01*
X1980Y3131D01*
X2016Y3217D01*
X2028Y3310D01*
X2016Y3403D01*
X1980Y3489D01*
X1923Y3563D01*
X1849Y3620D01*
X1763Y3656D01*
X1670Y3668D01*
D02*
G37*
G36*
X9610Y3187D02*
Y2810D01*
X9987D01*
X9979Y2872D01*
X9936Y2977D01*
X9867Y3067D01*
X9777Y3136D01*
X9672Y3179D01*
X9610Y3187D01*
D02*
G37*
G36*
X9510D02*
X9448Y3179D01*
X9343Y3136D01*
X9253Y3067D01*
X9184Y2977D01*
X9141Y2872D01*
X9133Y2810D01*
X9510D01*
Y3187D01*
D02*
G37*
G36*
X6832Y3070D02*
X6490D01*
Y2728D01*
X6543Y2735D01*
X6639Y2775D01*
X6722Y2838D01*
X6785Y2921D01*
X6825Y3017D01*
X6832Y3070D01*
D02*
G37*
G36*
X9987Y2710D02*
X9610D01*
Y2333D01*
X9672Y2341D01*
X9777Y2384D01*
X9867Y2453D01*
X9936Y2543D01*
X9979Y2648D01*
X9987Y2710D01*
D02*
G37*
G36*
X9510D02*
X9133D01*
X9141Y2648D01*
X9184Y2543D01*
X9253Y2453D01*
X9343Y2384D01*
X9448Y2341D01*
X9510Y2333D01*
Y2710D01*
D02*
G37*
G36*
X4670Y2668D02*
X4577Y2656D01*
X4491Y2620D01*
X4417Y2563D01*
X4360Y2489D01*
X4324Y2403D01*
X4312Y2310D01*
X4324Y2217D01*
X4360Y2131D01*
X4417Y2057D01*
X4491Y2000D01*
X4577Y1964D01*
X4670Y1952D01*
X4763Y1964D01*
X4849Y2000D01*
X4923Y2057D01*
X4980Y2131D01*
X5016Y2217D01*
X5028Y2310D01*
X5016Y2403D01*
X4980Y2489D01*
X4923Y2563D01*
X4849Y2620D01*
X4763Y2656D01*
X4670Y2668D01*
D02*
G37*
G36*
X1670D02*
X1577Y2656D01*
X1491Y2620D01*
X1417Y2563D01*
X1360Y2489D01*
X1324Y2403D01*
X1312Y2310D01*
X1324Y2217D01*
X1360Y2131D01*
X1417Y2057D01*
X1491Y2000D01*
X1577Y1964D01*
X1670Y1952D01*
X1763Y1964D01*
X1849Y2000D01*
X1923Y2057D01*
X1980Y2131D01*
X2016Y2217D01*
X2028Y2310D01*
X2016Y2403D01*
X1980Y2489D01*
X1923Y2563D01*
X1849Y2620D01*
X1763Y2656D01*
X1670Y2668D01*
D02*
G37*
G36*
X4670Y14668D02*
X4577Y14656D01*
X4491Y14620D01*
X4417Y14563D01*
X4360Y14489D01*
X4324Y14403D01*
X4312Y14310D01*
X4324Y14217D01*
X4360Y14131D01*
X4417Y14057D01*
X4491Y14000D01*
X4577Y13964D01*
X4670Y13952D01*
X4763Y13964D01*
X4830Y13992D01*
X7998Y10824D01*
Y8825D01*
X7983Y8803D01*
X7972Y8750D01*
X7983Y8697D01*
X7998Y8675D01*
Y1836D01*
X7600Y1438D01*
X7533Y1466D01*
X7440Y1478D01*
X7347Y1466D01*
X7261Y1430D01*
X7187Y1373D01*
X7130Y1299D01*
X7094Y1213D01*
X7082Y1120D01*
X7094Y1027D01*
X7130Y941D01*
X7187Y867D01*
X7261Y810D01*
X7347Y774D01*
X7440Y762D01*
X7533Y774D01*
X7619Y810D01*
X7693Y867D01*
X7750Y941D01*
X7786Y1027D01*
X7798Y1120D01*
X7786Y1213D01*
X7758Y1280D01*
X8189Y1711D01*
X8189Y1711D01*
X8214Y1747D01*
X8222Y1790D01*
X8222Y1790D01*
Y8675D01*
X8237Y8697D01*
X8248Y8750D01*
X8237Y8803D01*
X8222Y8825D01*
Y10870D01*
X8222Y10870D01*
X8214Y10913D01*
X8189Y10949D01*
X8189Y10949D01*
X4988Y14150D01*
X5016Y14217D01*
X5028Y14310D01*
X5016Y14403D01*
X4980Y14489D01*
X4923Y14563D01*
X4849Y14620D01*
X4763Y14656D01*
X4670Y14668D01*
D02*
G37*
G36*
X9560Y2153D02*
X9458Y2140D01*
X9363Y2101D01*
X9282Y2038D01*
X9219Y1957D01*
X9180Y1862D01*
X9167Y1760D01*
X9180Y1658D01*
X9219Y1563D01*
X9282Y1482D01*
X9363Y1419D01*
X9458Y1380D01*
X9560Y1367D01*
X9662Y1380D01*
X9757Y1419D01*
X9838Y1482D01*
X9901Y1563D01*
X9940Y1658D01*
X9953Y1760D01*
X9940Y1862D01*
X9901Y1957D01*
X9838Y2038D01*
X9757Y2101D01*
X9662Y2140D01*
X9560Y2153D01*
D02*
G37*
G36*
X1670Y1668D02*
X1577Y1656D01*
X1491Y1620D01*
X1417Y1563D01*
X1360Y1489D01*
X1324Y1403D01*
X1312Y1310D01*
X1324Y1217D01*
X1360Y1131D01*
X1417Y1057D01*
X1491Y1000D01*
X1577Y964D01*
X1670Y952D01*
X1763Y964D01*
X1849Y1000D01*
X1923Y1057D01*
X1980Y1131D01*
X2016Y1217D01*
X2028Y1310D01*
X2016Y1403D01*
X1980Y1489D01*
X1923Y1563D01*
X1849Y1620D01*
X1763Y1656D01*
X1670Y1668D01*
D02*
G37*
G36*
X6440Y1478D02*
X6347Y1466D01*
X6261Y1430D01*
X6187Y1373D01*
X6130Y1299D01*
X6094Y1213D01*
X6082Y1120D01*
X6094Y1027D01*
X6130Y941D01*
X6187Y867D01*
X6261Y810D01*
X6347Y774D01*
X6440Y762D01*
X6533Y774D01*
X6619Y810D01*
X6693Y867D01*
X6750Y941D01*
X6786Y1027D01*
X6798Y1120D01*
X6786Y1213D01*
X6750Y1299D01*
X6693Y1373D01*
X6619Y1430D01*
X6533Y1466D01*
X6440Y1478D01*
D02*
G37*
%LPD*%
D10*
X4670Y14310D02*
X8110Y10870D01*
Y8750D02*
Y10870D01*
X2374Y12310D02*
X3779Y10905D01*
X1670Y12310D02*
X2374D01*
X4240Y11710D02*
X4497D01*
X3190Y12760D02*
X4240Y11710D01*
X1547Y12760D02*
X3190D01*
X5940Y2620D02*
Y9613D01*
Y2620D02*
X6440Y2120D01*
X4648Y10905D02*
X5940Y9613D01*
X3779Y10905D02*
X4648D01*
X4497Y11710D02*
X4502Y11715D01*
X4838D01*
X7440Y9113D01*
Y3120D02*
Y9113D01*
X1265Y11715D02*
X1670Y11310D01*
X1265Y11715D02*
Y12478D01*
X1547Y12760D01*
X7035Y1715D02*
X7440Y2120D01*
X4838Y1715D02*
X7035D01*
X4838Y1715D02*
X4838Y1715D01*
X4255Y1715D02*
X4838D01*
X2770Y3200D02*
X4255Y1715D01*
X7440Y1120D02*
X8110Y1790D01*
Y8750D01*
X7157Y14697D02*
X7490Y15030D01*
X1670Y9883D02*
X2770Y8783D01*
Y3200D02*
Y8783D01*
X1670Y9883D02*
Y10310D01*
X5197Y23113D02*
X5530Y22780D01*
X5247Y16887D02*
X5530Y17170D01*
X7237Y25103D02*
X7500Y24840D01*
X4958Y16887D02*
X5247D01*
X10570Y13583D02*
X10590Y13603D01*
Y14210D01*
X16410Y19820D02*
X16797D01*
X4203Y19910D02*
X4800D01*
X13430Y25060D02*
X13643Y25273D01*
X15530Y22720D02*
X15863Y23053D01*
X15660Y17100D02*
X15873Y16887D01*
X13350Y14880D02*
X13593Y14637D01*
X10510Y25740D02*
Y26267D01*
D14*
X4242Y16473D02*
D03*
X4958Y16887D02*
D03*
X16678Y23467D02*
D03*
X15962Y23053D02*
D03*
D15*
X10570Y12757D02*
D03*
Y13583D02*
D03*
X10510Y27093D02*
D03*
Y26267D02*
D03*
D16*
X14007Y13672D02*
D03*
X13593Y14388D02*
D03*
X6823Y26068D02*
D03*
X7237Y25352D02*
D03*
D17*
X16758Y16473D02*
D03*
X16042Y16887D02*
D03*
X4282Y23527D02*
D03*
X4998Y23113D02*
D03*
D18*
X17673Y19870D02*
D03*
X16847D02*
D03*
X3377Y19910D02*
D03*
X4203D02*
D03*
D19*
X14057Y26198D02*
D03*
X13643Y25482D02*
D03*
X6743Y13832D02*
D03*
X7157Y14548D02*
D03*
D30*
Y14697D01*
X4998Y23113D02*
X5197D01*
X7237Y25103D02*
Y25352D01*
X13643Y25273D02*
Y25482D01*
X15863Y23053D02*
X15962D01*
X16797Y19820D02*
X16847Y19870D01*
X15873Y16887D02*
X16042D01*
D31*
X7440Y2120D02*
D03*
X6440D02*
D03*
X7440Y1120D02*
D03*
X6440Y3120D02*
D03*
Y1120D02*
D03*
X1670Y14310D02*
D03*
Y13310D02*
D03*
Y11310D02*
D03*
Y12310D02*
D03*
Y8310D02*
D03*
Y7310D02*
D03*
Y9310D02*
D03*
Y10310D02*
D03*
Y2310D02*
D03*
Y1310D02*
D03*
Y4310D02*
D03*
Y3310D02*
D03*
Y5310D02*
D03*
Y6310D02*
D03*
X4670D02*
D03*
Y5310D02*
D03*
Y3310D02*
D03*
Y4310D02*
D03*
Y1310D02*
D03*
Y2310D02*
D03*
Y10310D02*
D03*
Y9310D02*
D03*
Y7310D02*
D03*
Y8310D02*
D03*
Y12310D02*
D03*
Y11310D02*
D03*
Y13310D02*
D03*
Y14310D02*
D03*
D32*
X7440Y3120D02*
D03*
D33*
X11529Y20140D02*
D03*
X9560D02*
D03*
D34*
Y2760D02*
D03*
Y3760D02*
D03*
Y1760D02*
D03*
D35*
X580Y9830D02*
D03*
X9850Y8710D02*
D03*
X8110Y8750D02*
D03*
X5700Y8840D02*
D03*
X7490Y15030D02*
D03*
X10590Y14210D02*
D03*
X15650Y17120D02*
D03*
X16370Y19850D02*
D03*
X15520Y22720D02*
D03*
X13420Y25060D02*
D03*
X7490Y24840D02*
D03*
X5520Y22780D02*
D03*
X4820Y19880D02*
D03*
X5520Y17170D02*
D03*
X13350Y14880D02*
D03*
X10510Y25740D02*
D03*
M02*
