G04*
G04 #@! TF.GenerationSoftware,Altium Limited,Altium Designer,20.1.12 (249)*
G04*
G04 Layer_Color=32768*
%FSLAX24Y24*%
%MOIN*%
G70*
G04*
G04 #@! TF.SameCoordinates,DAD24410-91DF-4A67-85F9-AF8FF7B2878C*
G04*
G04*
G04 #@! TF.FilePolarity,Positive*
G04*
G01*
G75*
%ADD10C,0.0100*%
%ADD11C,0.0039*%
%ADD61C,0.0020*%
D10*
X1030Y15050D02*
X5380D01*
X1030Y600D02*
Y15050D01*
Y600D02*
X5380D01*
Y15050D01*
X10010Y20140D02*
X11110D01*
X10560Y19490D02*
Y20740D01*
X8060Y17640D02*
X13060D01*
Y22640D01*
X8060D02*
X13060D01*
X8060Y17640D02*
Y22640D01*
X14760Y3540D02*
X16210D01*
X15460Y2840D02*
Y4290D01*
X10660Y6740D02*
X20260D01*
Y490D02*
Y6740D01*
X10660Y490D02*
X20260D01*
X10660D02*
Y6740D01*
X6550Y5610D02*
Y6210D01*
X6200Y5910D02*
X6850D01*
D11*
X3280Y6653D02*
Y7047D01*
X3083Y6850D02*
X3477D01*
X6721Y14350D02*
X7115D01*
X6918Y14153D02*
Y14547D01*
X560Y14593D02*
Y14987D01*
X363Y14790D02*
X757D01*
X12792Y24020D02*
X12988Y24360D01*
X12720Y24288D02*
X13060Y24092D01*
X14610Y22142D02*
X14950Y22338D01*
X14682Y22410D02*
X14878Y22070D01*
X15183Y19850D02*
X15577D01*
X15380Y19653D02*
Y20047D01*
X14630Y17788D02*
X14970Y17592D01*
X14702Y17520D02*
X14898Y17860D01*
X12732Y15940D02*
X12928Y15600D01*
X12660Y15672D02*
X13000Y15868D01*
X10590Y15113D02*
Y15507D01*
X10393Y15310D02*
X10787D01*
X7832Y15970D02*
X8028Y16310D01*
X7760Y16238D02*
X8100Y16042D01*
X6330Y17692D02*
X6670Y17888D01*
X6402Y17960D02*
X6598Y17620D01*
X5733Y19910D02*
X6127D01*
X5930Y19713D02*
Y20107D01*
X5818Y8290D02*
X6212D01*
X6015Y8093D02*
Y8487D01*
X610Y5853D02*
Y6247D01*
X413Y6050D02*
X807D01*
X7873Y6790D02*
X8267D01*
X8070Y6593D02*
Y6987D01*
X7873Y5590D02*
X8267D01*
X8070Y5393D02*
Y5787D01*
X6390Y22328D02*
X6730Y22132D01*
X6462Y22060D02*
X6658Y22400D01*
X7952Y24100D02*
X8148Y23760D01*
X7880Y23832D02*
X8220Y24028D01*
X10530Y24513D02*
Y24907D01*
X10333Y24710D02*
X10727D01*
X15800Y11043D02*
Y11437D01*
X15603Y11240D02*
X15997D01*
X13680Y25938D02*
X14020Y25742D01*
X13752Y25670D02*
X13948Y26010D01*
X13800Y25085D02*
X14479Y26261D01*
X13221Y25419D02*
X13900Y26595D01*
X14479Y26261D01*
X13221Y25419D02*
X13800Y25085D01*
X16222Y23430D02*
X16418Y23090D01*
X16150Y23162D02*
X16490Y23358D01*
X15899Y22631D02*
X17075Y23310D01*
X15565Y23210D02*
X16741Y23889D01*
X17075Y23310D01*
X15565Y23210D02*
X15899Y22631D01*
X17260Y19673D02*
Y20067D01*
X17063Y19870D02*
X17457D01*
X16581Y19535D02*
X17939D01*
X16581Y20205D02*
X17939D01*
Y19535D02*
Y20205D01*
X16581Y19535D02*
Y20205D01*
X16302Y16510D02*
X16498Y16850D01*
X16230Y16778D02*
X16570Y16582D01*
X15645Y16730D02*
X16821Y16051D01*
X15979Y17309D02*
X17155Y16630D01*
X16821Y16051D02*
X17155Y16630D01*
X15645Y16730D02*
X15979Y17309D01*
X13630Y13932D02*
X13970Y14128D01*
X13702Y14200D02*
X13898Y13860D01*
X13171Y14451D02*
X13850Y13275D01*
X13750Y14785D02*
X14429Y13609D01*
X13850Y13275D02*
X14429Y13609D01*
X13171Y14451D02*
X13750Y14785D01*
X10373Y13170D02*
X10767D01*
X10570Y12973D02*
Y13367D01*
X10235Y12491D02*
Y13849D01*
X10905Y12491D02*
Y13849D01*
X10235Y12491D02*
X10905D01*
X10235Y13849D02*
X10905D01*
X6780Y14288D02*
X7120Y14092D01*
X6852Y14020D02*
X7048Y14360D01*
X6321Y13769D02*
X7000Y14945D01*
X6900Y13435D02*
X7579Y14611D01*
X6321Y13769D02*
X6900Y13435D01*
X7000Y14945D02*
X7579Y14611D01*
X4502Y16850D02*
X4698Y16510D01*
X4430Y16582D02*
X4770Y16778D01*
X3845Y16630D02*
X5021Y17309D01*
X4179Y16051D02*
X5355Y16730D01*
X3845Y16630D02*
X4179Y16051D01*
X5021Y17309D02*
X5355Y16730D01*
X3790Y19713D02*
Y20107D01*
X3593Y19910D02*
X3987D01*
X3111Y20245D02*
X4469D01*
X3111Y19575D02*
X4469D01*
X3111D02*
Y20245D01*
X4469Y19575D02*
Y20245D01*
X4542Y23150D02*
X4738Y23490D01*
X4470Y23418D02*
X4810Y23222D01*
X4219Y23949D02*
X5395Y23270D01*
X3885Y23370D02*
X5061Y22691D01*
X3885Y23370D02*
X4219Y23949D01*
X5061Y22691D02*
X5395Y23270D01*
X6860Y25612D02*
X7200Y25808D01*
X6932Y25880D02*
X7128Y25540D01*
X6980Y26465D02*
X7659Y25289D01*
X6401Y26131D02*
X7080Y24955D01*
X6401Y26131D02*
X6980Y26465D01*
X7080Y24955D02*
X7659Y25289D01*
X10313Y26680D02*
X10707D01*
X10510Y26483D02*
Y26877D01*
X10845Y26001D02*
Y27359D01*
X10175Y26001D02*
Y27359D01*
X10845D01*
X10175Y26001D02*
X10845D01*
D61*
X7668Y13950D02*
Y14750D01*
X6168Y13950D02*
Y14750D01*
X7668D01*
X6168Y13950D02*
X7668D01*
X160Y14040D02*
X960D01*
X160Y15540D02*
X960D01*
Y14040D02*
Y15540D01*
X160Y14040D02*
Y15540D01*
X12919Y25040D02*
X13611Y24640D01*
X12169Y23740D02*
X12861Y23340D01*
X12169Y23740D02*
X12919Y25040D01*
X12861Y23340D02*
X13611Y24640D01*
X15230Y22961D02*
X15630Y22269D01*
X13930Y22211D02*
X14330Y21519D01*
X13930Y22211D02*
X15230Y22961D01*
X14330Y21519D02*
X15630Y22269D01*
X16130Y19450D02*
Y20250D01*
X14630Y19450D02*
Y20250D01*
X16130D01*
X14630Y19450D02*
X16130D01*
X15250Y16969D02*
X15650Y17661D01*
X13950Y17719D02*
X14350Y18411D01*
X15650Y17661D01*
X13950Y17719D02*
X15250Y16969D01*
X12859Y14920D02*
X13551Y15320D01*
X12109Y16220D02*
X12801Y16620D01*
X13551Y15320D01*
X12109Y16220D02*
X12859Y14920D01*
X10190Y14560D02*
X10990D01*
X10190Y16060D02*
X10990D01*
Y14560D02*
Y16060D01*
X10190Y14560D02*
Y16060D01*
X7209Y15690D02*
X7901Y15290D01*
X7959Y16990D02*
X8651Y16590D01*
X7901Y15290D02*
X8651Y16590D01*
X7209Y15690D02*
X7959Y16990D01*
X5650Y17761D02*
X6050Y17069D01*
X6950Y18511D02*
X7350Y17819D01*
X6050Y17069D02*
X7350Y17819D01*
X5650Y17761D02*
X6950Y18511D01*
X5180Y19510D02*
Y20310D01*
X6680Y19510D02*
Y20310D01*
X5180Y19510D02*
X6680D01*
X5180Y20310D02*
X6680D01*
X6566Y7975D02*
Y8605D01*
X5464Y7975D02*
Y8605D01*
X6566D01*
X5464Y7975D02*
X6566D01*
X295Y5499D02*
X925D01*
X295Y6601D02*
X925D01*
Y5499D02*
Y6601D01*
X295Y5499D02*
Y6601D01*
X8621Y6475D02*
Y7105D01*
X7519Y6475D02*
Y7105D01*
X8621D01*
X7519Y6475D02*
X8621D01*
Y5275D02*
Y5905D01*
X7519Y5275D02*
Y5905D01*
X8621D01*
X7519Y5275D02*
X8621D01*
X5710Y22259D02*
X6110Y22951D01*
X7010Y21509D02*
X7410Y22201D01*
X5710Y22259D02*
X7010Y21509D01*
X6110Y22951D02*
X7410Y22201D01*
X7329Y24380D02*
X8021Y24780D01*
X8079Y23080D02*
X8771Y23480D01*
X7329Y24380D02*
X8079Y23080D01*
X8021Y24780D02*
X8771Y23480D01*
X10130Y25460D02*
X10930D01*
X10130Y23960D02*
X10930D01*
X10130D02*
Y25460D01*
X10930Y23960D02*
Y25460D01*
X7456Y4434D02*
Y7386D01*
X6885Y4434D02*
X7456D01*
X6885Y4040D02*
Y4434D01*
X6215Y4040D02*
Y4434D01*
Y4040D02*
X6885D01*
X5644Y4434D02*
X6215D01*
X5644D02*
Y7386D01*
X6215Y7780D02*
X6885D01*
Y7386D02*
Y7780D01*
Y7386D02*
X7456D01*
X6215D02*
Y7780D01*
X5644Y7386D02*
X6215D01*
X16839Y9701D02*
Y12779D01*
X14761Y9701D02*
X16839D01*
X14761D02*
Y12779D01*
X16839D01*
M02*
