G04*
G04 #@! TF.GenerationSoftware,Altium Limited,Altium Designer,18.1.9 (240)*
G04*
G04 Layer_Color=16711935*
%FSLAX24Y24*%
%MOIN*%
G70*
G01*
G75*
%ADD11C,0.0039*%
D11*
X7940Y620D02*
Y3620D01*
X5940D02*
X7940D01*
X5940Y620D02*
Y3620D01*
Y620D02*
X7940D01*
X8523Y5305D02*
Y5875D01*
X7657Y5305D02*
Y5875D01*
X8523D01*
X7657Y5305D02*
X8523D01*
X295Y8527D02*
X865D01*
X295Y9393D02*
X865D01*
Y8527D02*
Y9393D01*
X295Y8527D02*
Y9393D01*
X6448Y8005D02*
Y8575D01*
X5582Y8005D02*
Y8575D01*
X6448D01*
X5582Y8005D02*
X6448D01*
X8503Y6505D02*
Y7075D01*
X7637Y6505D02*
Y7075D01*
X8503D01*
X7637Y6505D02*
X8503D01*
X4109Y16703D02*
X4825Y17117D01*
X4375Y16243D02*
X5091Y16657D01*
X4109Y16703D02*
X4375Y16243D01*
X4825Y17117D02*
X5091Y16657D01*
X5992Y17804D02*
X6258Y17343D01*
X6742Y18237D02*
X7008Y17776D01*
X6258Y17343D02*
X7008Y17776D01*
X5992Y17804D02*
X6742Y18237D01*
X5497Y19644D02*
Y20176D01*
X6363Y19644D02*
Y20176D01*
X5497Y19644D02*
X6363D01*
X5497Y20176D02*
X6363D01*
X6052Y22216D02*
X6318Y22677D01*
X6802Y21783D02*
X7068Y22244D01*
X6052Y22216D02*
X6802Y21783D01*
X6318Y22677D02*
X7068Y22244D01*
X7603Y24172D02*
X8064Y24438D01*
X8036Y23422D02*
X8497Y23688D01*
X7603Y24172D02*
X8036Y23422D01*
X8064Y24438D02*
X8497Y23688D01*
X10264Y25143D02*
X10796D01*
X10264Y24277D02*
X10796D01*
X10264D02*
Y25143D01*
X10796Y24277D02*
Y25143D01*
X9416Y8444D02*
Y8976D01*
X8550Y8444D02*
Y8976D01*
X9416D01*
X8550Y8444D02*
X9416D01*
X7483Y15898D02*
X7944Y15632D01*
X7916Y16648D02*
X8377Y16382D01*
X7944Y15632D02*
X8377Y16382D01*
X7483Y15898D02*
X7916Y16648D01*
X10324Y14877D02*
X10856D01*
X10324Y15743D02*
X10856D01*
Y14877D02*
Y15743D01*
X10324Y14877D02*
Y15743D01*
X12816Y15262D02*
X13277Y15528D01*
X12383Y16012D02*
X12844Y16278D01*
X13277Y15528D01*
X12383Y16012D02*
X12816Y15262D01*
X15042Y17243D02*
X15308Y17704D01*
X14292Y17676D02*
X14558Y18137D01*
X15308Y17704D01*
X14292Y17676D02*
X15042Y17243D01*
X15813Y19584D02*
Y20116D01*
X14947Y19584D02*
Y20116D01*
X15813D01*
X14947Y19584D02*
X15813D01*
X15022Y22687D02*
X15288Y22226D01*
X14272Y22254D02*
X14538Y21793D01*
X14272Y22254D02*
X15022Y22687D01*
X14538Y21793D02*
X15288Y22226D01*
X12876Y24698D02*
X13337Y24432D01*
X12443Y23948D02*
X12904Y23682D01*
X12443Y23948D02*
X12876Y24698D01*
X12904Y23682D02*
X13337Y24432D01*
X294Y14357D02*
X826D01*
X294Y15223D02*
X826D01*
Y14357D02*
Y15223D01*
X294Y14357D02*
Y15223D01*
X10304Y12757D02*
Y13583D01*
X10836Y12757D02*
Y13583D01*
X10304Y12757D02*
X10836D01*
X10304Y13583D02*
X10836D01*
X13363Y14255D02*
X13777Y13539D01*
X13823Y14521D02*
X14237Y13805D01*
X13777Y13539D02*
X14237Y13805D01*
X13363Y14255D02*
X13823Y14521D01*
X15909Y16657D02*
X16625Y16243D01*
X16175Y17117D02*
X16891Y16703D01*
X16625Y16243D02*
X16891Y16703D01*
X15909Y16657D02*
X16175Y17117D01*
X16847Y19604D02*
X17673D01*
X16847Y20136D02*
X17673D01*
Y19604D02*
Y20136D01*
X16847Y19604D02*
Y20136D01*
X16095Y22823D02*
X16811Y23237D01*
X15829Y23283D02*
X16545Y23697D01*
X16811Y23237D01*
X15829Y23283D02*
X16095Y22823D01*
X13873Y25349D02*
X14287Y26065D01*
X13413Y25615D02*
X13827Y26331D01*
X14287Y26065D01*
X13413Y25615D02*
X13873Y25349D01*
X10776Y26267D02*
Y27093D01*
X10244Y26267D02*
Y27093D01*
X10776D01*
X10244Y26267D02*
X10776D01*
X7053Y26201D02*
X7467Y25485D01*
X6593Y25935D02*
X7007Y25219D01*
X6593Y25935D02*
X7053Y26201D01*
X7007Y25219D02*
X7467Y25485D01*
X4415Y23757D02*
X5131Y23343D01*
X4149Y23297D02*
X4865Y22883D01*
X4149Y23297D02*
X4415Y23757D01*
X4865Y22883D02*
X5131Y23343D01*
X3377Y20176D02*
X4203D01*
X3377Y19644D02*
X4203D01*
X3377D02*
Y20176D01*
X4203Y19644D02*
Y20176D01*
X6513Y13965D02*
X6927Y14681D01*
X6973Y13699D02*
X7387Y14415D01*
X6513Y13965D02*
X6973Y13699D01*
X6927Y14681D02*
X7387Y14415D01*
M02*
