M48
;Layer_Color=9474304
;FILE_FORMAT=2:4
INCH,LZ
;TYPE=PLATED
T1F00S00C0.0120
T2F00S00C0.0276
T3F00S00C0.0354
T4F00S00C0.0394
T5F00S00C0.0472
%
T01
X00061Y00674
X0057Y008673
X006137Y01335
X006818Y01512
X00751Y01501
X01059Y014285
X01334Y01488
X02017Y01145
X01565Y01712
X016433Y01985
X01554Y02274
X0134Y02505
X01053Y025701
X00751Y02482
X005536Y02274
X00482Y01991
X005517Y017139
T02
X00956Y02014
X011529
T03
X01469Y00797
X01569
X01669
T04
X0153Y01024
Y01124
X0163
Y01024
Y01224
X0153
T05
X00173Y00135
Y00235
Y00335
Y00435
Y00535
Y00635
Y00735
Y00835
Y00935
Y01035
Y01135
Y01235
Y01335
Y01435
X00473
Y01335
Y01235
Y01135
Y01035
Y00935
Y00835
Y00735
Y00635
Y00535
Y00435
Y00335
Y00235
Y00135
M30
