M48
;Layer_Color=9474304
;FILE_FORMAT=2:5
INCH,LZ
;TYPE=PLATED
T1F00S00C0.01000
T2F00S00C0.02756
T3F00S00C0.03937
%
T01
X00439Y01545
X00711Y01474
X0073Y01325
X01Y01384
X01061Y01214
X01291Y01398
X01434Y01438
X01687Y01555
X01473Y01084
X016005Y006845
X0148188Y0045512
X01452Y00453
X01424Y00456
X0138874Y0045512
X0129291Y0046091
X0126141Y0046141
X01207Y00507
X01112Y0063
X01082Y00605
X01038Y00599
X01042Y00563
X01042Y00384
X0146738Y0003438
X01593Y01584
X01671Y01896
X01765Y02061
X0174Y02263
X0171Y02416
X01423Y02503
X01427Y02694
X0110157Y0264257
X01025Y02772
X00863Y02989
X00779Y02578
X00634Y02643
X00498Y02371
X00357Y0232
X00425Y02068
X00323Y01899
X00502Y01691
T02
X0094415Y01994
X01141
T03
X01759Y00152
Y00252
X01859
Y00152
X01959
Y00252
M30
