G04*
G04 #@! TF.GenerationSoftware,Altium Limited,Altium Designer,20.1.12 (249)*
G04*
G04 Layer_Color=32896*
%FSLAX24Y24*%
%MOIN*%
G70*
G04*
G04 #@! TF.SameCoordinates,44B1C161-53CE-4806-B016-1A5A5E0544CB*
G04*
G04*
G04 #@! TF.FilePolarity,Positive*
G04*
G01*
G75*
%ADD10C,0.0100*%
%ADD12C,0.0079*%
%ADD13C,0.0060*%
%ADD59C,0.0098*%
%ADD60C,0.0050*%
D10*
X2330Y14400D02*
G03*
X3980Y14450I800J850D01*
G01*
X6192Y14350D02*
G03*
X6192Y14350I-212J0D01*
G01*
X20110Y640D02*
Y1090D01*
X19710Y640D02*
X20110D01*
X10810D02*
X11260D01*
X10810D02*
Y1040D01*
X19660Y6590D02*
X20110D01*
Y6190D02*
Y6590D01*
X10810D02*
X11210D01*
X10810Y6140D02*
Y6590D01*
X12120Y33449D02*
X12520D01*
Y32849D01*
X12120D01*
X12520Y33149D02*
X12320D01*
X11520Y33349D02*
X11620Y33449D01*
X11820D01*
X11920Y33349D01*
Y32949D01*
X11820Y32849D01*
X11620D01*
X11520Y32949D01*
X10921Y33449D02*
X11320D01*
Y32849D01*
X10921D01*
X11320Y33149D02*
X11120D01*
X10321Y33349D02*
X10421Y33449D01*
X10621D01*
X10721Y33349D01*
Y33249D01*
X10621Y33149D01*
X10421D01*
X10321Y33049D01*
Y32949D01*
X10421Y32849D01*
X10621D01*
X10721Y32949D01*
X12120Y32390D02*
X12220Y32489D01*
X12420D01*
X12520Y32390D01*
Y31990D01*
X12420Y31890D01*
X12220D01*
X12120Y31990D01*
X11820Y32290D02*
X11620D01*
X11520Y32190D01*
Y31890D01*
X11820D01*
X11920Y31990D01*
X11820Y32090D01*
X11520D01*
X11320Y31890D02*
Y32290D01*
X11020D01*
X10921Y32190D01*
Y31890D01*
X10121Y32489D02*
Y31890D01*
X9821D01*
X9721Y31990D01*
Y32390D01*
X9821Y32489D01*
X10121D01*
X9421Y31890D02*
X9221D01*
X9121Y31990D01*
Y32190D01*
X9221Y32290D01*
X9421D01*
X9521Y32190D01*
Y31990D01*
X9421Y31890D01*
X12120Y31430D02*
X12520D01*
Y30830D01*
X12120D01*
X12520Y31130D02*
X12320D01*
X11920Y31230D02*
X11720Y30830D01*
X11520Y31230D01*
X11020Y30830D02*
X11220D01*
X11320Y30930D01*
Y31130D01*
X11220Y31230D01*
X11020D01*
X10921Y31130D01*
Y31030D01*
X11320D01*
X10721Y31230D02*
Y30830D01*
Y31030D01*
X10621Y31130D01*
X10521Y31230D01*
X10421D01*
X10121D02*
Y30930D01*
X10021Y30830D01*
X9721D01*
Y30730D01*
X9821Y30630D01*
X9921D01*
X9721Y30830D02*
Y31230D01*
X9421Y31330D02*
Y31230D01*
X9521D01*
X9321D01*
X9421D01*
Y30930D01*
X9321Y30830D01*
X9021Y31430D02*
Y30830D01*
Y31130D01*
X8921Y31230D01*
X8721D01*
X8621Y31130D01*
Y30830D01*
X8421D02*
X8221D01*
X8321D01*
Y31230D01*
X8421D01*
X7921Y30830D02*
Y31230D01*
X7622D01*
X7522Y31130D01*
Y30830D01*
X7122Y30630D02*
X7022D01*
X6922Y30730D01*
Y31230D01*
X7222D01*
X7322Y31130D01*
Y30930D01*
X7222Y30830D01*
X6922D01*
X6722Y31030D02*
Y31530D01*
Y30930D02*
Y30830D01*
X6522Y31030D02*
Y31530D01*
Y30930D02*
Y30830D01*
D12*
X6898Y14606D02*
X6938D01*
X6898Y14094D02*
X6938D01*
X816Y14770D02*
Y14810D01*
X304Y14770D02*
Y14810D01*
X12659Y24301D02*
X12678Y24335D01*
X13102Y24045D02*
X13121Y24079D01*
X14635Y22452D02*
X14669Y22471D01*
X14891Y22009D02*
X14925Y22028D01*
X15360Y20106D02*
X15400D01*
X15360Y19594D02*
X15400D01*
X14911Y17921D02*
X14945Y17902D01*
X14655Y17478D02*
X14689Y17459D01*
X13042Y15915D02*
X13061Y15881D01*
X12599Y15659D02*
X12618Y15625D01*
X10846Y15290D02*
Y15330D01*
X10334Y15290D02*
Y15330D01*
X8142Y15995D02*
X8161Y16029D01*
X7699Y16251D02*
X7718Y16285D01*
X6611Y17559D02*
X6645Y17578D01*
X6355Y18002D02*
X6389Y18021D01*
X5910Y19654D02*
X5950D01*
X5910Y20166D02*
X5950D01*
X5995Y8516D02*
X6035D01*
X5995Y8064D02*
X6035D01*
X836Y6030D02*
Y6070D01*
X384Y6030D02*
Y6070D01*
X8050Y7016D02*
X8090D01*
X8050Y6564D02*
X8090D01*
X8050Y5816D02*
X8090D01*
X8050Y5364D02*
X8090D01*
X6415Y22018D02*
X6449Y21999D01*
X6671Y22461D02*
X6705Y22442D01*
X7819Y23819D02*
X7838Y23785D01*
X8262Y24075D02*
X8281Y24041D01*
X10274Y24690D02*
Y24730D01*
X10786Y24690D02*
Y24730D01*
X16800Y9740D02*
Y12740D01*
X14800Y9740D02*
X16800D01*
X14800D02*
Y12740D01*
X16800D01*
D13*
X20110Y12330D02*
Y12130D01*
X20010Y12030D01*
X19910Y12130D01*
Y12330D01*
X19810D02*
Y12030D01*
X19660D01*
X19610Y12080D01*
Y12280D01*
X19660Y12330D01*
X19810D01*
X19510D02*
Y12030D01*
X19360D01*
X19310Y12080D01*
Y12280D01*
X19360Y12330D01*
X19510D01*
X20370Y9635D02*
Y9435D01*
X20270Y9335D01*
X20170Y9435D01*
Y9635D01*
X20070D02*
Y9335D01*
X19920D01*
X19870Y9385D01*
Y9585D01*
X19920Y9635D01*
X20070D01*
X19770D02*
Y9335D01*
X19620D01*
X19570Y9385D01*
Y9585D01*
X19620Y9635D01*
X19770D01*
X19470Y9285D02*
X19270D01*
X18970Y9585D02*
X19020Y9635D01*
X19120D01*
X19170Y9585D01*
Y9385D01*
X19120Y9335D01*
X19020D01*
X18970Y9385D01*
X18670Y9585D02*
X18720Y9635D01*
X18820D01*
X18870Y9585D01*
Y9385D01*
X18820Y9335D01*
X18720D01*
X18670Y9385D01*
X18200Y12280D02*
X18250Y12330D01*
X18350D01*
X18400Y12280D01*
Y12230D01*
X18350Y12180D01*
X18250D01*
X18200Y12130D01*
Y12080D01*
X18250Y12030D01*
X18350D01*
X18400Y12080D01*
X17900Y12280D02*
X17950Y12330D01*
X18050D01*
X18100Y12280D01*
Y12080D01*
X18050Y12030D01*
X17950D01*
X17900Y12080D01*
X17800Y12330D02*
Y12030D01*
Y12130D01*
X17600Y12330D01*
X17750Y12180D01*
X17600Y12030D01*
X18600Y10660D02*
Y10960D01*
X18500Y10860D01*
X18400Y10960D01*
Y10660D01*
X18150Y10960D02*
X18250D01*
X18300Y10910D01*
Y10710D01*
X18250Y10660D01*
X18150D01*
X18100Y10710D01*
Y10910D01*
X18150Y10960D01*
X17800Y10910D02*
X17850Y10960D01*
X17950D01*
X18000Y10910D01*
Y10860D01*
X17950Y10810D01*
X17850D01*
X17800Y10760D01*
Y10710D01*
X17850Y10660D01*
X17950D01*
X18000Y10710D01*
X17700Y10960D02*
X17600D01*
X17650D01*
Y10660D01*
X17700D01*
X17600D01*
X18650Y13400D02*
Y13700D01*
X18550Y13600D01*
X18450Y13700D01*
Y13400D01*
X18350Y13700D02*
X18250D01*
X18300D01*
Y13400D01*
X18350D01*
X18250D01*
X17900Y13650D02*
X17950Y13700D01*
X18050D01*
X18100Y13650D01*
Y13600D01*
X18050Y13550D01*
X17950D01*
X17900Y13500D01*
Y13450D01*
X17950Y13400D01*
X18050D01*
X18100Y13450D01*
X17650Y13700D02*
X17750D01*
X17800Y13650D01*
Y13450D01*
X17750Y13400D01*
X17650D01*
X17600Y13450D01*
Y13650D01*
X17650Y13700D01*
X19910Y13650D02*
X19960Y13700D01*
X20060D01*
X20110Y13650D01*
Y13450D01*
X20060Y13400D01*
X19960D01*
X19910Y13450D01*
Y13550D01*
X20010D01*
X19810Y13400D02*
Y13700D01*
X19610Y13400D01*
Y13700D01*
X19510D02*
Y13400D01*
X19360D01*
X19310Y13450D01*
Y13650D01*
X19360Y13700D01*
X19510D01*
X5290Y15720D02*
Y15470D01*
X5240Y15420D01*
X5140D01*
X5090Y15470D01*
Y15720D01*
X4990Y15420D02*
X4890D01*
X4940D01*
Y15720D01*
X4990Y15670D01*
X16790Y13350D02*
Y13650D01*
X16640D01*
X16590Y13600D01*
Y13500D01*
X16640Y13450D01*
X16790D01*
X16490Y13350D02*
X16390D01*
X16440D01*
Y13650D01*
X16490Y13600D01*
X7440Y7780D02*
Y7730D01*
X7340Y7630D01*
X7240Y7730D01*
Y7780D01*
X7340Y7630D02*
Y7480D01*
X7140D02*
X7040D01*
X7090D01*
Y7780D01*
X7140Y7730D01*
X20250Y7350D02*
Y7100D01*
X20200Y7050D01*
X20100D01*
X20050Y7100D01*
Y7350D01*
X19950Y7300D02*
X19900Y7350D01*
X19800D01*
X19750Y7300D01*
Y7250D01*
X19800Y7200D01*
X19850D01*
X19800D01*
X19750Y7150D01*
Y7100D01*
X19800Y7050D01*
X19900D01*
X19950Y7100D01*
X17750Y9310D02*
X17800Y9360D01*
X17900D01*
X17950Y9310D01*
Y9260D01*
X17900Y9210D01*
X17800D01*
X17750Y9160D01*
Y9110D01*
X17800Y9060D01*
X17900D01*
X17950Y9110D01*
X17650Y9360D02*
Y9060D01*
X17550Y9160D01*
X17450Y9060D01*
Y9360D01*
X17350Y9060D02*
X17250D01*
X17300D01*
Y9360D01*
X17350Y9310D01*
X7328Y13490D02*
Y13790D01*
X7178D01*
X7128Y13740D01*
Y13640D01*
X7178Y13590D01*
X7328D01*
X7228D02*
X7128Y13490D01*
X7028D02*
X6928D01*
X6978D01*
Y13790D01*
X7028Y13740D01*
X6628Y13490D02*
Y13790D01*
X6778Y13640D01*
X6578D01*
X10880Y25730D02*
Y26030D01*
X10730D01*
X10680Y25980D01*
Y25880D01*
X10730Y25830D01*
X10880D01*
X10780D02*
X10680Y25730D01*
X10580D02*
X10480D01*
X10530D01*
Y26030D01*
X10580Y25980D01*
X10330D02*
X10280Y26030D01*
X10180D01*
X10130Y25980D01*
Y25930D01*
X10180Y25880D01*
X10230D01*
X10180D01*
X10130Y25830D01*
Y25780D01*
X10180Y25730D01*
X10280D01*
X10330Y25780D01*
X8720Y25050D02*
Y25350D01*
X8570D01*
X8520Y25300D01*
Y25200D01*
X8570Y25150D01*
X8720D01*
X8620D02*
X8520Y25050D01*
X8420D02*
X8320D01*
X8370D01*
Y25350D01*
X8420Y25300D01*
X7970Y25050D02*
X8170D01*
X7970Y25250D01*
Y25300D01*
X8020Y25350D01*
X8120D01*
X8170Y25300D01*
X7360Y23220D02*
Y23520D01*
X7210D01*
X7160Y23470D01*
Y23370D01*
X7210Y23320D01*
X7360D01*
X7260D02*
X7160Y23220D01*
X7060D02*
X6960D01*
X7010D01*
Y23520D01*
X7060Y23470D01*
X6810Y23220D02*
X6710D01*
X6760D01*
Y23520D01*
X6810Y23470D01*
X6630Y20580D02*
Y20880D01*
X6480D01*
X6430Y20830D01*
Y20730D01*
X6480Y20680D01*
X6630D01*
X6530D02*
X6430Y20580D01*
X6330D02*
X6230D01*
X6280D01*
Y20880D01*
X6330Y20830D01*
X6080D02*
X6030Y20880D01*
X5930D01*
X5880Y20830D01*
Y20630D01*
X5930Y20580D01*
X6030D01*
X6080Y20630D01*
Y20830D01*
X7300Y18780D02*
Y19080D01*
X7150D01*
X7100Y19030D01*
Y18930D01*
X7150Y18880D01*
X7300D01*
X7200D02*
X7100Y18780D01*
X7000Y18830D02*
X6950Y18780D01*
X6850D01*
X6800Y18830D01*
Y19030D01*
X6850Y19080D01*
X6950D01*
X7000Y19030D01*
Y18980D01*
X6950Y18930D01*
X6800D01*
X8600Y17260D02*
Y17560D01*
X8450D01*
X8400Y17510D01*
Y17410D01*
X8450Y17360D01*
X8600D01*
X8500D02*
X8400Y17260D01*
X8300Y17510D02*
X8250Y17560D01*
X8150D01*
X8100Y17510D01*
Y17460D01*
X8150Y17410D01*
X8100Y17360D01*
Y17310D01*
X8150Y17260D01*
X8250D01*
X8300Y17310D01*
Y17360D01*
X8250Y17410D01*
X8300Y17460D01*
Y17510D01*
X8250Y17410D02*
X8150D01*
X10940Y16330D02*
Y16630D01*
X10790D01*
X10740Y16580D01*
Y16480D01*
X10790Y16430D01*
X10940D01*
X10840D02*
X10740Y16330D01*
X10640Y16630D02*
X10440D01*
Y16580D01*
X10640Y16380D01*
Y16330D01*
X13500Y16890D02*
Y17190D01*
X13350D01*
X13300Y17140D01*
Y17040D01*
X13350Y16990D01*
X13500D01*
X13400D02*
X13300Y16890D01*
X13000Y17190D02*
X13100Y17140D01*
X13200Y17040D01*
Y16940D01*
X13150Y16890D01*
X13050D01*
X13000Y16940D01*
Y16990D01*
X13050Y17040D01*
X13200D01*
X15600Y18680D02*
Y18980D01*
X15450D01*
X15400Y18930D01*
Y18830D01*
X15450Y18780D01*
X15600D01*
X15500D02*
X15400Y18680D01*
X15100Y18980D02*
X15300D01*
Y18830D01*
X15200Y18880D01*
X15150D01*
X15100Y18830D01*
Y18730D01*
X15150Y18680D01*
X15250D01*
X15300Y18730D01*
X16080Y20520D02*
Y20820D01*
X15930D01*
X15880Y20770D01*
Y20670D01*
X15930Y20620D01*
X16080D01*
X15980D02*
X15880Y20520D01*
X15630D02*
Y20820D01*
X15780Y20670D01*
X15580D01*
X15580Y23230D02*
Y23530D01*
X15430D01*
X15380Y23480D01*
Y23380D01*
X15430Y23330D01*
X15580D01*
X15480D02*
X15380Y23230D01*
X15280Y23480D02*
X15230Y23530D01*
X15130D01*
X15080Y23480D01*
Y23430D01*
X15130Y23380D01*
X15180D01*
X15130D01*
X15080Y23330D01*
Y23280D01*
X15130Y23230D01*
X15230D01*
X15280Y23280D01*
X13560Y25310D02*
Y25610D01*
X13410D01*
X13360Y25560D01*
Y25460D01*
X13410Y25410D01*
X13560D01*
X13460D02*
X13360Y25310D01*
X13060D02*
X13260D01*
X13060Y25510D01*
Y25560D01*
X13110Y25610D01*
X13210D01*
X13260Y25560D01*
X910Y15810D02*
Y16110D01*
X760D01*
X710Y16060D01*
Y15960D01*
X760Y15910D01*
X910D01*
X810D02*
X710Y15810D01*
X610D02*
X510D01*
X560D01*
Y16110D01*
X610Y16060D01*
X8130Y6330D02*
X8180Y6380D01*
X8280D01*
X8330Y6330D01*
Y6130D01*
X8280Y6080D01*
X8180D01*
X8130Y6130D01*
X7880Y6080D02*
Y6380D01*
X8030Y6230D01*
X7830D01*
X8180Y7520D02*
X8230Y7570D01*
X8330D01*
X8380Y7520D01*
Y7320D01*
X8330Y7270D01*
X8230D01*
X8180Y7320D01*
X8080Y7520D02*
X8030Y7570D01*
X7930D01*
X7880Y7520D01*
Y7470D01*
X7930Y7420D01*
X7980D01*
X7930D01*
X7880Y7370D01*
Y7320D01*
X7930Y7270D01*
X8030D01*
X8080Y7320D01*
X500Y5140D02*
X450Y5190D01*
Y5290D01*
X500Y5340D01*
X700D01*
X750Y5290D01*
Y5190D01*
X700Y5140D01*
X750Y4840D02*
Y5040D01*
X550Y4840D01*
X500D01*
X450Y4890D01*
Y4990D01*
X500Y5040D01*
X6925Y8380D02*
X6975Y8430D01*
X7075D01*
X7125Y8380D01*
Y8180D01*
X7075Y8130D01*
X6975D01*
X6925Y8180D01*
X6825Y8130D02*
X6725D01*
X6775D01*
Y8430D01*
X6825Y8380D01*
D59*
X16349Y12996D02*
G03*
X16349Y12996I-49J0D01*
G01*
D60*
X13390Y7170D02*
X15590D01*
X15690Y7270D01*
X15790Y7170D01*
X17990D01*
Y7370D01*
X17790D02*
X17990D01*
X17790D02*
Y8570D01*
X17990D01*
Y8770D01*
X15790D02*
X17990D01*
X15690Y8670D02*
X15790Y8770D01*
X15590D02*
X15690Y8670D01*
X13390Y8770D02*
X15590D01*
X13390Y8570D02*
Y8770D01*
Y8570D02*
X13590D01*
Y7370D02*
Y8570D01*
X13390Y7370D02*
X13590D01*
X13390Y7170D02*
Y7370D01*
X6948Y4532D02*
X7357D01*
Y7288D01*
X6948D02*
X7357D01*
X5743D02*
X6152D01*
X5743Y4532D02*
Y7288D01*
Y4532D02*
X6152D01*
M02*
