G04*
G04 #@! TF.GenerationSoftware,Altium Limited,Altium Designer,20.1.12 (249)*
G04*
G04 Layer_Color=8388736*
%FSLAX24Y24*%
%MOIN*%
G70*
G04*
G04 #@! TF.SameCoordinates,C2A8BCA2-F393-4655-900F-186C9399D15C*
G04*
G04*
G04 #@! TF.FilePolarity,Negative*
G04*
G01*
G75*
G04:AMPARAMS|DCode=20|XSize=51.2mil|YSize=47.3mil|CornerRadius=0mil|HoleSize=0mil|Usage=FLASHONLY|Rotation=150.000|XOffset=0mil|YOffset=0mil|HoleType=Round|Shape=Rectangle|*
%AMROTATEDRECTD20*
4,1,4,0.0340,0.0077,0.0104,-0.0333,-0.0340,-0.0077,-0.0104,0.0333,0.0340,0.0077,0.0*
%
%ADD20ROTATEDRECTD20*%

G04:AMPARAMS|DCode=21|XSize=51.2mil|YSize=47.3mil|CornerRadius=0mil|HoleSize=0mil|Usage=FLASHONLY|Rotation=120.000|XOffset=0mil|YOffset=0mil|HoleType=Round|Shape=Rectangle|*
%AMROTATEDRECTD21*
4,1,4,0.0333,-0.0104,-0.0077,-0.0340,-0.0333,0.0104,0.0077,0.0340,0.0333,-0.0104,0.0*
%
%ADD21ROTATEDRECTD21*%

%ADD22R,0.0473X0.0512*%
G04:AMPARAMS|DCode=23|XSize=51.2mil|YSize=47.3mil|CornerRadius=0mil|HoleSize=0mil|Usage=FLASHONLY|Rotation=60.000|XOffset=0mil|YOffset=0mil|HoleType=Round|Shape=Rectangle|*
%AMROTATEDRECTD23*
4,1,4,0.0077,-0.0340,-0.0333,-0.0104,-0.0077,0.0340,0.0333,0.0104,0.0077,-0.0340,0.0*
%
%ADD23ROTATEDRECTD23*%

G04:AMPARAMS|DCode=24|XSize=51.2mil|YSize=47.3mil|CornerRadius=0mil|HoleSize=0mil|Usage=FLASHONLY|Rotation=30.000|XOffset=0mil|YOffset=0mil|HoleType=Round|Shape=Rectangle|*
%AMROTATEDRECTD24*
4,1,4,-0.0104,-0.0333,-0.0340,0.0077,0.0104,0.0333,0.0340,-0.0077,-0.0104,-0.0333,0.0*
%
%ADD24ROTATEDRECTD24*%

%ADD25R,0.0512X0.0473*%
%ADD26C,0.0631*%
%ADD27C,0.0640*%
%ADD28C,0.0700*%
%ADD29R,0.0631X0.0631*%
%ADD30C,0.0240*%
%ADD31C,0.0540*%
D20*
X14057Y26198D02*
D03*
X13643Y25482D02*
D03*
X6743Y13832D02*
D03*
X7157Y14548D02*
D03*
D21*
X16678Y23467D02*
D03*
X15962Y23053D02*
D03*
X4242Y16473D02*
D03*
X4958Y16887D02*
D03*
D22*
X17673Y19870D02*
D03*
X16847D02*
D03*
X3377Y19910D02*
D03*
X4203D02*
D03*
D23*
X16758Y16473D02*
D03*
X16042Y16887D02*
D03*
X4282Y23527D02*
D03*
X4998Y23113D02*
D03*
D24*
X14007Y13672D02*
D03*
X13593Y14388D02*
D03*
X6823Y26068D02*
D03*
X7237Y25352D02*
D03*
D25*
X10570Y12757D02*
D03*
Y13583D02*
D03*
X10510Y27093D02*
D03*
Y26267D02*
D03*
D26*
X1730Y14350D02*
D03*
Y13350D02*
D03*
Y11350D02*
D03*
Y12350D02*
D03*
Y8350D02*
D03*
Y7350D02*
D03*
Y9350D02*
D03*
Y10350D02*
D03*
Y2350D02*
D03*
Y1350D02*
D03*
Y4350D02*
D03*
Y3350D02*
D03*
Y5350D02*
D03*
Y6350D02*
D03*
X4730D02*
D03*
Y5350D02*
D03*
Y3350D02*
D03*
Y4350D02*
D03*
Y1350D02*
D03*
Y2350D02*
D03*
Y10350D02*
D03*
Y9350D02*
D03*
Y7350D02*
D03*
Y8350D02*
D03*
Y12350D02*
D03*
Y11350D02*
D03*
Y13350D02*
D03*
Y14350D02*
D03*
X16300Y11240D02*
D03*
X15300D02*
D03*
X16300Y10240D02*
D03*
X15300Y12240D02*
D03*
Y10240D02*
D03*
D27*
X9560Y20140D02*
D03*
X11529D02*
D03*
D28*
X15690Y7970D02*
D03*
X14690D02*
D03*
X16690D02*
D03*
D29*
X16300Y12240D02*
D03*
D30*
X5700Y8673D02*
D03*
X610Y6740D02*
D03*
X7510Y15010D02*
D03*
X6450Y15120D02*
D03*
X5536Y22740D02*
D03*
X4820Y19910D02*
D03*
X5517Y17139D02*
D03*
X10590Y14285D02*
D03*
X13340Y14880D02*
D03*
X15650Y17120D02*
D03*
X16433Y19850D02*
D03*
X15540Y22740D02*
D03*
X13400Y25050D02*
D03*
X10530Y25701D02*
D03*
X7510Y24820D02*
D03*
X20170Y11450D02*
D03*
D31*
X6142Y13350D02*
D03*
M02*
