G04*
G04 #@! TF.GenerationSoftware,Altium Limited,Altium Designer,18.1.9 (240)*
G04*
G04 Layer_Color=16711935*
%FSLAX25Y25*%
%MOIN*%
G70*
G01*
G75*
%ADD20R,0.03943X0.03550*%
%ADD25C,0.06400*%
%ADD37O,0.02762X0.06109*%
%ADD38R,0.03943X0.03156*%
%ADD39R,0.04140X0.02959*%
%ADD40O,0.06896X0.02565*%
%ADD41O,0.02565X0.06896*%
%ADD42R,0.06502X0.05518*%
%ADD43R,0.18117X0.18117*%
%ADD44R,0.06306X0.20479*%
D20*
X116200Y341176D02*
D03*
Y336451D02*
D03*
X106430Y341176D02*
D03*
Y336451D02*
D03*
X96659D02*
D03*
Y341176D02*
D03*
X141500Y8162D02*
D03*
Y3438D02*
D03*
D25*
X114100Y199400D02*
D03*
X94415D02*
D03*
X175900Y25200D02*
D03*
Y15200D02*
D03*
X185900Y25200D02*
D03*
Y15200D02*
D03*
X195900Y25200D02*
D03*
Y15200D02*
D03*
D37*
X86300Y325428D02*
D03*
X91300D02*
D03*
X96300D02*
D03*
X101300D02*
D03*
X106300D02*
D03*
X111300D02*
D03*
X116300D02*
D03*
X121300D02*
D03*
X86300Y303972D02*
D03*
X91300D02*
D03*
X96300D02*
D03*
X101300D02*
D03*
X106300D02*
D03*
X111300D02*
D03*
X116300D02*
D03*
X121300D02*
D03*
D38*
X86100Y289156D02*
D03*
Y283644D02*
D03*
X99900Y289156D02*
D03*
Y283644D02*
D03*
X40300Y112000D02*
D03*
Y117512D02*
D03*
X56700Y112000D02*
D03*
Y117512D02*
D03*
X73100Y112000D02*
D03*
Y117512D02*
D03*
X89500Y112000D02*
D03*
Y117512D02*
D03*
X105900Y112000D02*
D03*
Y117512D02*
D03*
X114100Y112000D02*
D03*
Y117512D02*
D03*
X179700Y112000D02*
D03*
Y117512D02*
D03*
X106800Y289156D02*
D03*
Y283644D02*
D03*
X93000Y289156D02*
D03*
Y283644D02*
D03*
X97700Y112000D02*
D03*
Y117512D02*
D03*
X122300Y112000D02*
D03*
Y117512D02*
D03*
X32100Y112000D02*
D03*
Y117512D02*
D03*
X146900Y112000D02*
D03*
Y117512D02*
D03*
X155100Y112000D02*
D03*
Y117512D02*
D03*
X163300Y112000D02*
D03*
Y117512D02*
D03*
X48500Y112000D02*
D03*
Y117512D02*
D03*
X171500Y112000D02*
D03*
Y117512D02*
D03*
X64900Y112000D02*
D03*
Y117512D02*
D03*
X187900Y112000D02*
D03*
Y117512D02*
D03*
X81300Y112000D02*
D03*
Y117512D02*
D03*
X130500Y112000D02*
D03*
Y117512D02*
D03*
X138700Y112000D02*
D03*
Y117512D02*
D03*
D39*
X106726Y355540D02*
D03*
Y348060D02*
D03*
X97474Y351800D02*
D03*
D40*
X153700Y77898D02*
D03*
Y74749D02*
D03*
Y71599D02*
D03*
Y68450D02*
D03*
Y65300D02*
D03*
Y62150D02*
D03*
Y59001D02*
D03*
Y55851D02*
D03*
X120629D02*
D03*
Y59001D02*
D03*
Y62150D02*
D03*
Y65300D02*
D03*
Y68450D02*
D03*
Y71599D02*
D03*
Y74749D02*
D03*
Y77898D02*
D03*
D41*
X148188Y50339D02*
D03*
X145039D02*
D03*
X141889D02*
D03*
X138739D02*
D03*
X135590D02*
D03*
X132440D02*
D03*
X129291D02*
D03*
X126141D02*
D03*
Y83410D02*
D03*
X129291D02*
D03*
X132440D02*
D03*
X135590D02*
D03*
X138739D02*
D03*
X141889D02*
D03*
X145039D02*
D03*
X148188D02*
D03*
D42*
X126050Y14042D02*
D03*
Y31758D02*
D03*
X157350Y14042D02*
D03*
Y31758D02*
D03*
D43*
X53710Y38400D02*
D03*
D44*
X96820D02*
D03*
X10600D02*
D03*
M02*
