G04*
G04 #@! TF.GenerationSoftware,Altium Limited,Altium Designer,18.1.9 (240)*
G04*
G04 Layer_Color=16711935*
%FSLAX25Y25*%
%MOIN*%
G70*
G01*
G75*
%ADD47C,0.00394*%
D47*
X89627Y319031D02*
G03*
X89627Y319031I-1969J0D01*
G01*
X149369Y77111D02*
G03*
X149369Y77111I-1969J0D01*
G01*
X84115Y322574D02*
X123485D01*
X84115Y306826D02*
X123485D01*
X84115D02*
Y322574D01*
X123485Y306826D02*
Y322574D01*
X114232Y342357D02*
X118168D01*
X114232Y335270D02*
X118168D01*
X114232D02*
Y342357D01*
X118168Y335270D02*
Y342357D01*
X104461D02*
X108398D01*
X104461Y335270D02*
X108398D01*
X104461D02*
Y342357D01*
X108398Y335270D02*
Y342357D01*
X94691Y335270D02*
X98628D01*
X94691Y342357D02*
X98628D01*
Y335270D02*
Y342357D01*
X94691Y335270D02*
Y342357D01*
X84230Y289746D02*
X87970D01*
X84230Y283053D02*
X87970D01*
X84230D02*
Y289746D01*
X87970Y283053D02*
Y289746D01*
X98030Y289746D02*
X101770D01*
X98030Y283053D02*
X101770D01*
X98030D02*
Y289746D01*
X101770Y283053D02*
Y289746D01*
X139532Y9343D02*
X143468D01*
X139532Y2257D02*
X143468D01*
X139532D02*
Y9343D01*
X143468Y2257D02*
Y9343D01*
X38430Y111409D02*
X42170D01*
X38430Y118102D02*
X42170D01*
Y111409D02*
Y118102D01*
X38430Y111409D02*
Y118102D01*
X54830Y111409D02*
X58570D01*
X54830Y118102D02*
X58570D01*
Y111409D02*
Y118102D01*
X54830Y111409D02*
Y118102D01*
X71230Y111409D02*
X74970D01*
X71230Y118102D02*
X74970D01*
Y111409D02*
Y118102D01*
X71230Y111409D02*
Y118102D01*
X87630Y111409D02*
X91370D01*
X87630Y118102D02*
X91370D01*
Y111409D02*
Y118102D01*
X87630Y111409D02*
Y118102D01*
X104030Y111409D02*
X107770D01*
X104030Y118102D02*
X107770D01*
Y111409D02*
Y118102D01*
X104030Y111409D02*
Y118102D01*
X112230Y111409D02*
X115970D01*
X112230Y118102D02*
X115970D01*
Y111409D02*
Y118102D01*
X112230Y111409D02*
Y118102D01*
X177830Y111409D02*
X181570D01*
X177830Y118102D02*
X181570D01*
Y111409D02*
Y118102D01*
X177830Y111409D02*
Y118102D01*
X104930Y289746D02*
X108670D01*
X104930Y283053D02*
X108670D01*
X104930D02*
Y289746D01*
X108670Y283053D02*
Y289746D01*
X91130Y289746D02*
X94870D01*
X91130Y283053D02*
X94870D01*
X91130D02*
Y289746D01*
X94870Y283053D02*
Y289746D01*
X95830Y111409D02*
X99570D01*
X95830Y118102D02*
X99570D01*
Y111409D02*
Y118102D01*
X95830Y111409D02*
Y118102D01*
X120430Y111409D02*
X124170D01*
X120430Y118102D02*
X124170D01*
Y111409D02*
Y118102D01*
X120430Y111409D02*
Y118102D01*
X30230Y111409D02*
X33970D01*
X30230Y118102D02*
X33970D01*
Y111409D02*
Y118102D01*
X30230Y111409D02*
Y118102D01*
X145030Y111409D02*
X148770D01*
X145030Y118102D02*
X148770D01*
Y111409D02*
Y118102D01*
X145030Y111409D02*
Y118102D01*
X153230Y111409D02*
X156970D01*
X153230Y118102D02*
X156970D01*
Y111409D02*
Y118102D01*
X153230Y111409D02*
Y118102D01*
X161430Y111409D02*
X165170D01*
X161430Y118102D02*
X165170D01*
Y111409D02*
Y118102D01*
X161430Y111409D02*
Y118102D01*
X46630Y111409D02*
X50370D01*
X46630Y118102D02*
X50370D01*
Y111409D02*
Y118102D01*
X46630Y111409D02*
Y118102D01*
X169630Y111409D02*
X173370D01*
X169630Y118102D02*
X173370D01*
Y111409D02*
Y118102D01*
X169630Y111409D02*
Y118102D01*
X63030Y111409D02*
X66770D01*
X63030Y118102D02*
X66770D01*
Y111409D02*
Y118102D01*
X63030Y111409D02*
Y118102D01*
X186030Y111409D02*
X189770D01*
X186030Y118102D02*
X189770D01*
Y111409D02*
Y118102D01*
X186030Y111409D02*
Y118102D01*
X79430Y111409D02*
X83170D01*
X79430Y118102D02*
X83170D01*
Y111409D02*
Y118102D01*
X79430Y111409D02*
Y118102D01*
X128630Y111409D02*
X132370D01*
X128630Y118102D02*
X132370D01*
Y111409D02*
Y118102D01*
X128630Y111409D02*
Y118102D01*
X136830Y111409D02*
X140570D01*
X136830Y118102D02*
X140570D01*
Y111409D02*
Y118102D01*
X136830Y111409D02*
Y118102D01*
X104856Y345895D02*
Y357705D01*
X99344Y345895D02*
Y357705D01*
X104856D01*
X99344Y345895D02*
X104856D01*
X150944Y53095D02*
Y80654D01*
X123385Y53095D02*
Y80654D01*
X150944D01*
X123385Y53095D02*
X150944D01*
X153511Y11089D02*
Y34711D01*
X129889Y11089D02*
Y34711D01*
X153511D01*
X129889Y11089D02*
X153511D01*
M02*
