G04*
G04 #@! TF.GenerationSoftware,Altium Limited,Altium Designer,18.1.9 (240)*
G04*
G04 Layer_Color=0*
%FSLAX25Y25*%
%MOIN*%
G70*
G01*
G75*
%ADD48C,0.00197*%
D48*
X137386Y266986D02*
X145910Y262065D01*
X130890Y255735D02*
X137386Y266986D01*
X130890Y255735D02*
X139414Y250814D01*
X145910Y262065D01*
X179896Y193879D02*
Y203721D01*
X166904D02*
X179896D01*
X166904Y193879D02*
Y203721D01*
Y193879D02*
X179896D01*
X166665Y156690D02*
X171586Y165214D01*
X160335Y171710D02*
X171586Y165214D01*
X155414Y163186D02*
X160335Y171710D01*
X155414Y163186D02*
X166665Y156690D01*
X99441Y123147D02*
X109283D01*
Y136139D01*
X99441D02*
X109283D01*
X99441Y123147D02*
Y136139D01*
X167015Y241984D02*
X171937Y233460D01*
X155764Y235488D02*
X167015Y241984D01*
X155764Y235488D02*
X160685Y226964D01*
X171937Y233460D01*
X137586Y130814D02*
X146110Y135735D01*
X139614Y146986D02*
X146110Y135735D01*
X131090Y142065D02*
X139614Y146986D01*
X131090Y142065D02*
X137586Y130814D01*
X99479Y274296D02*
X109321D01*
X99479Y261304D02*
Y274296D01*
Y261304D02*
X109321D01*
Y274296D01*
X61716Y261365D02*
X70240Y266286D01*
X61716Y261365D02*
X68212Y250114D01*
X76736Y255035D01*
X70240Y266286D02*
X76736Y255035D01*
X36414Y231786D02*
X41335Y240310D01*
X36414Y231786D02*
X47665Y225290D01*
X52586Y233814D01*
X41335Y240310D02*
X52586Y233814D01*
X29461Y194241D02*
Y204083D01*
Y194241D02*
X42453D01*
Y204083D01*
X29461D02*
X42453D01*
X36614Y165614D02*
X41535Y157090D01*
X52786Y163586D01*
X47865Y172110D02*
X52786Y163586D01*
X36614Y165614D02*
X47865Y172110D01*
X61990Y135735D02*
X70514Y130814D01*
X77010Y142065D01*
X68486Y146986D02*
X77010Y142065D01*
X61990Y135735D02*
X68486Y146986D01*
M02*
