G04*
G04 #@! TF.GenerationSoftware,Altium Limited,Altium Designer,18.1.9 (240)*
G04*
G04 Layer_Color=8388736*
%FSLAX25Y25*%
%MOIN*%
G70*
G01*
G75*
G04:AMPARAMS|DCode=19|XSize=39.43mil|YSize=35.5mil|CornerRadius=0mil|HoleSize=0mil|Usage=FLASHONLY|Rotation=60.000|XOffset=0mil|YOffset=0mil|HoleType=Round|Shape=Rectangle|*
%AMROTATEDRECTD19*
4,1,4,0.00551,-0.02595,-0.02523,-0.00820,-0.00551,0.02595,0.02523,0.00820,0.00551,-0.02595,0.0*
%
%ADD19ROTATEDRECTD19*%

%ADD20R,0.03943X0.03550*%
G04:AMPARAMS|DCode=21|XSize=39.43mil|YSize=35.5mil|CornerRadius=0mil|HoleSize=0mil|Usage=FLASHONLY|Rotation=330.000|XOffset=0mil|YOffset=0mil|HoleType=Round|Shape=Rectangle|*
%AMROTATEDRECTD21*
4,1,4,-0.02595,-0.00551,-0.00820,0.02523,0.02595,0.00551,0.00820,-0.02523,-0.02595,-0.00551,0.0*
%
%ADD21ROTATEDRECTD21*%

%ADD22R,0.03550X0.03943*%
G04:AMPARAMS|DCode=23|XSize=39.43mil|YSize=35.5mil|CornerRadius=0mil|HoleSize=0mil|Usage=FLASHONLY|Rotation=30.000|XOffset=0mil|YOffset=0mil|HoleType=Round|Shape=Rectangle|*
%AMROTATEDRECTD23*
4,1,4,-0.00820,-0.02523,-0.02595,0.00551,0.00820,0.02523,0.02595,-0.00551,-0.00820,-0.02523,0.0*
%
%ADD23ROTATEDRECTD23*%

G04:AMPARAMS|DCode=24|XSize=39.43mil|YSize=35.5mil|CornerRadius=0mil|HoleSize=0mil|Usage=FLASHONLY|Rotation=300.000|XOffset=0mil|YOffset=0mil|HoleType=Round|Shape=Rectangle|*
%AMROTATEDRECTD24*
4,1,4,-0.02523,0.00820,0.00551,0.02595,0.02523,-0.00820,-0.00551,-0.02595,-0.02523,0.00820,0.0*
%
%ADD24ROTATEDRECTD24*%

%ADD25C,0.06400*%
D19*
X138126Y263150D02*
D03*
X134583Y257013D02*
D03*
X142217Y260788D02*
D03*
X138674Y254650D02*
D03*
X69774Y134650D02*
D03*
X73317Y140787D02*
D03*
X65683Y137013D02*
D03*
X69226Y143150D02*
D03*
D20*
X176943Y201162D02*
D03*
X169857D02*
D03*
X176943Y196438D02*
D03*
X169857D02*
D03*
X32413Y196800D02*
D03*
X39500D02*
D03*
X32413Y201524D02*
D03*
X39500D02*
D03*
D21*
X167750Y164474D02*
D03*
X161612Y168017D02*
D03*
X165387Y160383D02*
D03*
X159250Y163926D02*
D03*
X40250Y232526D02*
D03*
X46387Y228983D02*
D03*
X42612Y236617D02*
D03*
X48750Y233074D02*
D03*
D22*
X106724Y126100D02*
D03*
Y133187D02*
D03*
X102000Y126100D02*
D03*
Y133187D02*
D03*
X102038Y271343D02*
D03*
Y264257D02*
D03*
X106762Y271343D02*
D03*
Y264257D02*
D03*
D23*
X165738Y238291D02*
D03*
X159601Y234748D02*
D03*
X168100Y234200D02*
D03*
X161963Y230657D02*
D03*
X42812Y160783D02*
D03*
X48950Y164326D02*
D03*
X40450Y164874D02*
D03*
X46587Y168417D02*
D03*
D24*
X142417Y137013D02*
D03*
X138874Y143150D02*
D03*
X138326Y134650D02*
D03*
X134783Y140787D02*
D03*
X65409Y260087D02*
D03*
X68952Y253950D02*
D03*
X69500Y262450D02*
D03*
X73043Y256312D02*
D03*
D25*
X114100Y199400D02*
D03*
X94415D02*
D03*
X175900Y25200D02*
D03*
Y15200D02*
D03*
X185900Y25200D02*
D03*
Y15200D02*
D03*
X195900Y25200D02*
D03*
Y15200D02*
D03*
M02*
