G04*
G04 #@! TF.GenerationSoftware,Altium Limited,Altium Designer,18.1.9 (240)*
G04*
G04 Layer_Physical_Order=1*
G04 Layer_Color=255*
%FSLAX25Y25*%
%MOIN*%
G70*
G01*
G75*
%ADD10C,0.01000*%
G04:AMPARAMS|DCode=13|XSize=35.43mil|YSize=31.5mil|CornerRadius=0mil|HoleSize=0mil|Usage=FLASHONLY|Rotation=60.000|XOffset=0mil|YOffset=0mil|HoleType=Round|Shape=Rectangle|*
%AMROTATEDRECTD13*
4,1,4,0.00478,-0.02322,-0.02250,-0.00747,-0.00478,0.02322,0.02250,0.00747,0.00478,-0.02322,0.0*
%
%ADD13ROTATEDRECTD13*%

%ADD14R,0.03543X0.03150*%
G04:AMPARAMS|DCode=15|XSize=35.43mil|YSize=31.5mil|CornerRadius=0mil|HoleSize=0mil|Usage=FLASHONLY|Rotation=330.000|XOffset=0mil|YOffset=0mil|HoleType=Round|Shape=Rectangle|*
%AMROTATEDRECTD15*
4,1,4,-0.02322,-0.00478,-0.00747,0.02250,0.02322,0.00478,0.00747,-0.02250,-0.02322,-0.00478,0.0*
%
%ADD15ROTATEDRECTD15*%

%ADD16R,0.03150X0.03543*%
G04:AMPARAMS|DCode=17|XSize=35.43mil|YSize=31.5mil|CornerRadius=0mil|HoleSize=0mil|Usage=FLASHONLY|Rotation=30.000|XOffset=0mil|YOffset=0mil|HoleType=Round|Shape=Rectangle|*
%AMROTATEDRECTD17*
4,1,4,-0.00747,-0.02250,-0.02322,0.00478,0.00747,0.02250,0.02322,-0.00478,-0.00747,-0.02250,0.0*
%
%ADD17ROTATEDRECTD17*%

G04:AMPARAMS|DCode=18|XSize=35.43mil|YSize=31.5mil|CornerRadius=0mil|HoleSize=0mil|Usage=FLASHONLY|Rotation=300.000|XOffset=0mil|YOffset=0mil|HoleType=Round|Shape=Rectangle|*
%AMROTATEDRECTD18*
4,1,4,-0.02250,0.00747,0.00478,0.02322,0.02250,-0.00747,-0.00478,-0.02322,-0.02250,0.00747,0.0*
%
%ADD18ROTATEDRECTD18*%

%ADD26C,0.06000*%
%ADD27C,0.01500*%
G36*
X206700Y282500D02*
X206700Y0D01*
X-100D01*
Y282602D01*
X103249Y385951D01*
X206700Y282500D01*
D02*
G37*
%LPC*%
G36*
X86800Y300585D02*
Y299400D01*
X87985D01*
X87949Y299583D01*
X87562Y300162D01*
X86983Y300549D01*
X86800Y300585D01*
D02*
G37*
G36*
X85800D02*
X85617Y300549D01*
X85038Y300162D01*
X84651Y299583D01*
X84615Y299400D01*
X85800D01*
Y300585D01*
D02*
G37*
G36*
X88186Y298400D02*
X84615D01*
X84651Y298217D01*
X85038Y297638D01*
X85617Y297252D01*
X86298Y297116D01*
X105641Y277773D01*
Y274115D01*
X104187D01*
Y273715D01*
X103159D01*
Y276017D01*
X103473Y276227D01*
X103772Y276673D01*
X103876Y277200D01*
X103772Y277727D01*
X103473Y278173D01*
X103027Y278472D01*
X102500Y278576D01*
X101973Y278472D01*
X101527Y278173D01*
X101228Y277727D01*
X101166Y277413D01*
X101002Y277167D01*
X100916Y276738D01*
X100916Y276738D01*
Y273715D01*
X99863D01*
Y268972D01*
X104187D01*
Y268572D01*
X106262D01*
Y271343D01*
X106762D01*
Y271843D01*
X109337D01*
Y274115D01*
X107884D01*
Y278238D01*
X107884Y278238D01*
X107798Y278667D01*
X107555Y279031D01*
X88186Y298400D01*
D02*
G37*
G36*
X109337Y270843D02*
X107262D01*
Y268572D01*
X109337D01*
Y270843D01*
D02*
G37*
G36*
X142700Y270777D02*
X142173Y270672D01*
X141727Y270373D01*
X141428Y269927D01*
X141324Y269400D01*
X141428Y268873D01*
X141578Y268649D01*
Y268188D01*
X138856Y265466D01*
X137428Y266291D01*
X135057Y262183D01*
X138802Y260021D01*
X138602Y259675D01*
X140399Y258637D01*
X141784Y261037D01*
X143170Y263438D01*
X142057Y264081D01*
X141893Y265330D01*
X143493Y266931D01*
X143493Y266931D01*
X143736Y267295D01*
X143822Y267724D01*
Y268649D01*
X143972Y268873D01*
X144076Y269400D01*
X143972Y269927D01*
X143673Y270373D01*
X143227Y270672D01*
X142700Y270777D01*
D02*
G37*
G36*
X70344Y266137D02*
X68547Y265100D01*
X69683Y263133D01*
X71480Y264170D01*
X70344Y266137D01*
D02*
G37*
G36*
X104587Y266628D02*
X103587Y266628D01*
X99863D01*
Y261885D01*
X103587D01*
X104213Y261885D01*
X105213Y261885D01*
X108937D01*
Y262245D01*
X109128Y262449D01*
X109937Y262924D01*
X110157Y262880D01*
X110683Y262985D01*
X111130Y263283D01*
X111428Y263730D01*
X111533Y264257D01*
X111428Y264783D01*
X111130Y265230D01*
X110683Y265528D01*
X110157Y265633D01*
X109937Y265589D01*
X109128Y266065D01*
X108937Y266268D01*
Y266628D01*
X104587Y266628D01*
D02*
G37*
G36*
X71980Y263304D02*
X70183Y262267D01*
X71319Y260299D01*
X73116Y261337D01*
X71980Y263304D01*
D02*
G37*
G36*
X144036Y262938D02*
X142900Y260970D01*
X144697Y259933D01*
X145833Y261900D01*
X144036Y262938D01*
D02*
G37*
G36*
X63400Y265676D02*
X62873Y265572D01*
X62427Y265273D01*
X62128Y264827D01*
X62024Y264300D01*
X62128Y263773D01*
X62278Y263549D01*
Y262250D01*
X62278Y262250D01*
X62331Y261985D01*
X62339Y261054D01*
X62339Y261054D01*
X62339D01*
X64711Y256946D01*
X68456Y259108D01*
X68656Y258762D01*
X70453Y259799D01*
X69067Y262200D01*
X67681Y264600D01*
X65884Y263563D01*
X65884Y263563D01*
X65548Y263421D01*
X64751Y264171D01*
X64776Y264300D01*
X64672Y264827D01*
X64373Y265273D01*
X63927Y265572D01*
X63400Y265676D01*
D02*
G37*
G36*
X142400Y260104D02*
X141265Y258137D01*
X143061Y257100D01*
X144197Y259067D01*
X142400Y260104D01*
D02*
G37*
G36*
X73741Y259454D02*
X70516Y257592D01*
X69974Y257279D01*
X69108Y256779D01*
X65883Y254917D01*
X68254Y250809D01*
X71480Y252671D01*
X72021Y252984D01*
X72887Y253484D01*
X76113Y255346D01*
X76072Y255417D01*
X76555Y256371D01*
X77373Y256528D01*
X77900Y256423D01*
X78427Y256528D01*
X78873Y256827D01*
X79172Y257273D01*
X79276Y257800D01*
X79172Y258327D01*
X78873Y258773D01*
X78427Y259072D01*
X77900Y259176D01*
X77373Y259072D01*
X77149Y258922D01*
X75505D01*
X75076Y258836D01*
X74019Y259086D01*
X73907Y259166D01*
X73741Y259454D01*
D02*
G37*
G36*
X133885Y260154D02*
X131513Y256046D01*
X134739Y254184D01*
X135605Y253684D01*
X136146Y253371D01*
X139372Y251509D01*
X139372Y251509D01*
X140129Y251609D01*
X141009Y250729D01*
X140924Y250300D01*
X141028Y249773D01*
X141327Y249327D01*
X141773Y249028D01*
X142300Y248923D01*
X142827Y249028D01*
X143273Y249327D01*
X143572Y249773D01*
X143676Y250300D01*
X143572Y250827D01*
X143414Y251063D01*
X143336Y251454D01*
X143093Y251817D01*
X140847Y254064D01*
X141743Y255617D01*
X138518Y257479D01*
X137652Y257979D01*
X137110Y258292D01*
X133885Y260154D01*
D02*
G37*
G36*
X171000Y242976D02*
X170473Y242872D01*
X170249Y242722D01*
X169046D01*
X169046Y242722D01*
X168617Y242636D01*
X168253Y242393D01*
X168253Y242393D01*
X167161Y241301D01*
X166704Y241361D01*
X166704Y241361D01*
X162596Y238989D01*
X164759Y235244D01*
X164412Y235044D01*
X165450Y233247D01*
X167850Y234633D01*
X170250Y236019D01*
X169213Y237816D01*
X168867Y237616D01*
X168054Y239022D01*
X169511Y240478D01*
X170249D01*
X170473Y240328D01*
X171000Y240224D01*
X171527Y240328D01*
X171973Y240627D01*
X172272Y241073D01*
X172376Y241600D01*
X172272Y242127D01*
X171973Y242573D01*
X171527Y242872D01*
X171000Y242976D01*
D02*
G37*
G36*
X41500Y240233D02*
X40462Y238436D01*
X42430Y237300D01*
X43467Y239097D01*
X41500Y240233D01*
D02*
G37*
G36*
X44333Y238597D02*
X43295Y236800D01*
X45263Y235665D01*
X46300Y237461D01*
X44333Y238597D01*
D02*
G37*
G36*
X39962Y237570D02*
X38925Y235773D01*
X39271Y235573D01*
X37856Y233121D01*
X36451D01*
X36227Y233272D01*
X35700Y233377D01*
X35173Y233272D01*
X34727Y232973D01*
X34428Y232527D01*
X34324Y232000D01*
X34428Y231473D01*
X34727Y231027D01*
X35173Y230728D01*
X35700Y230624D01*
X36227Y230728D01*
X36451Y230878D01*
X38754D01*
X41217Y229457D01*
X43379Y233202D01*
X43725Y233002D01*
X44763Y234799D01*
X42362Y236184D01*
X39962Y237570D01*
D02*
G37*
G36*
X170750Y235153D02*
X168783Y234017D01*
X169820Y232220D01*
X171788Y233356D01*
X170750Y235153D01*
D02*
G37*
G36*
X167917Y233517D02*
X165950Y232381D01*
X166987Y230584D01*
X168954Y231720D01*
X167917Y233517D01*
D02*
G37*
G36*
X49800Y238476D02*
X49273Y238372D01*
X48827Y238073D01*
X48528Y237627D01*
X48424Y237100D01*
X48462Y236906D01*
X47783Y236143D01*
X47783Y236143D01*
X45921Y232918D01*
X45421Y232052D01*
X45108Y231510D01*
X43246Y228285D01*
X47354Y225913D01*
X49216Y229139D01*
X49716Y230005D01*
X50029Y230546D01*
X51891Y233772D01*
X51522Y233985D01*
Y236500D01*
X51522Y236500D01*
X51436Y236929D01*
X51193Y237293D01*
X51193Y237293D01*
X51124Y237362D01*
X51072Y237627D01*
X50773Y238073D01*
X50327Y238372D01*
X49800Y238476D01*
D02*
G37*
G36*
X160567Y237817D02*
X156459Y235446D01*
X158321Y232220D01*
X158634Y231679D01*
X159134Y230813D01*
X160996Y227587D01*
X162549Y228484D01*
X165526Y225507D01*
X165890Y225264D01*
X166320Y225178D01*
X166320Y225179D01*
X173249D01*
X173473Y225028D01*
X174000Y224923D01*
X174527Y225028D01*
X174973Y225327D01*
X175272Y225773D01*
X175376Y226300D01*
X175272Y226827D01*
X174973Y227273D01*
X174527Y227572D01*
X174000Y227677D01*
X173473Y227572D01*
X173249Y227421D01*
X166784D01*
X165004Y229201D01*
X165104Y229959D01*
X165104Y229959D01*
X163242Y233185D01*
X162929Y233726D01*
X162429Y234592D01*
X160567Y237817D01*
D02*
G37*
G36*
X42500Y208176D02*
X41973Y208072D01*
X41527Y207773D01*
X41228Y207327D01*
X41176Y207062D01*
X38707Y204593D01*
X38464Y204229D01*
X38378Y203800D01*
X37416Y203699D01*
X37128D01*
Y199975D01*
X37128Y199350D01*
X37128Y198350D01*
Y194625D01*
X41872D01*
Y198350D01*
X41872Y198975D01*
X41872Y199975D01*
Y203699D01*
X41872D01*
X41612Y204326D01*
X42762Y205476D01*
X43027Y205528D01*
X43473Y205827D01*
X43772Y206273D01*
X43876Y206800D01*
X43772Y207327D01*
X43473Y207773D01*
X43027Y208072D01*
X42500Y208176D01*
D02*
G37*
G36*
X35185Y204099D02*
X32913D01*
Y202024D01*
X35185D01*
Y204099D01*
D02*
G37*
G36*
X31913D02*
X29642D01*
Y202024D01*
X31913D01*
Y204099D01*
D02*
G37*
G36*
X114600Y203369D02*
Y199900D01*
X118069D01*
X117997Y200444D01*
X117594Y201417D01*
X116953Y202253D01*
X116117Y202894D01*
X115144Y203297D01*
X114600Y203369D01*
D02*
G37*
G36*
X113600D02*
X113056Y203297D01*
X112083Y202894D01*
X111247Y202253D01*
X110606Y201417D01*
X110203Y200444D01*
X110131Y199900D01*
X113600D01*
Y203369D01*
D02*
G37*
G36*
X176500Y207476D02*
X175973Y207372D01*
X175527Y207073D01*
X175228Y206627D01*
X175124Y206100D01*
X175228Y205573D01*
X175527Y205127D01*
X175822Y204930D01*
Y203337D01*
X174572D01*
Y199013D01*
X174172D01*
Y196938D01*
X179715D01*
Y199013D01*
X179315D01*
Y203337D01*
X178065D01*
Y205657D01*
X178065Y205657D01*
X177980Y206086D01*
X177837Y206299D01*
X177772Y206627D01*
X177473Y207073D01*
X177027Y207372D01*
X176500Y207476D01*
D02*
G37*
G36*
X94415Y203031D02*
X93475Y202907D01*
X92599Y202545D01*
X91847Y201968D01*
X91270Y201216D01*
X90908Y200340D01*
X90784Y199400D01*
X90908Y198460D01*
X91270Y197584D01*
X91847Y196832D01*
X92599Y196255D01*
X93475Y195893D01*
X94415Y195769D01*
X95355Y195893D01*
X96231Y196255D01*
X96983Y196832D01*
X97560Y197584D01*
X97922Y198460D01*
X98046Y199400D01*
X97922Y200340D01*
X97560Y201216D01*
X96983Y201968D01*
X96231Y202545D01*
X95355Y202907D01*
X94415Y203031D01*
D02*
G37*
G36*
X118069Y198900D02*
X114600D01*
Y195431D01*
X115144Y195503D01*
X116117Y195906D01*
X116953Y196547D01*
X117594Y197383D01*
X117997Y198356D01*
X118069Y198900D01*
D02*
G37*
G36*
X113600D02*
X110131D01*
X110203Y198356D01*
X110606Y197383D01*
X111247Y196547D01*
X112083Y195906D01*
X113056Y195503D01*
X113600Y195431D01*
Y198900D01*
D02*
G37*
G36*
X179715Y195938D02*
X177443D01*
Y193863D01*
X179715D01*
Y195938D01*
D02*
G37*
G36*
X176443D02*
X174172D01*
Y193863D01*
X176443D01*
Y195938D01*
D02*
G37*
G36*
X35185Y201024D02*
X32413D01*
X29642D01*
Y198950D01*
X30042D01*
Y194625D01*
X31178D01*
Y190651D01*
X31028Y190427D01*
X30924Y189900D01*
X31028Y189373D01*
X31327Y188927D01*
X31773Y188628D01*
X32300Y188524D01*
X32827Y188628D01*
X33273Y188927D01*
X33572Y189373D01*
X33676Y189900D01*
X33572Y190427D01*
X33422Y190651D01*
Y194625D01*
X34785D01*
Y198950D01*
X35185D01*
Y201024D01*
D02*
G37*
G36*
X172228Y203337D02*
X167485D01*
Y199613D01*
X167485Y198987D01*
X167485Y197987D01*
Y194263D01*
X168735D01*
Y192821D01*
X166838Y190924D01*
X166573Y190872D01*
X166127Y190573D01*
X165828Y190127D01*
X165724Y189600D01*
X165828Y189073D01*
X166127Y188627D01*
X166573Y188328D01*
X167100Y188224D01*
X167627Y188328D01*
X168073Y188627D01*
X168372Y189073D01*
X168424Y189338D01*
X170650Y191564D01*
X170650Y191564D01*
X170893Y191928D01*
X170978Y192357D01*
X170978Y192357D01*
Y194263D01*
X172228D01*
Y197987D01*
X172228Y198613D01*
X172228Y199613D01*
Y203337D01*
D02*
G37*
G36*
X41563Y168490D02*
X39596Y167354D01*
X40633Y165557D01*
X42601Y166693D01*
X41563Y168490D01*
D02*
G37*
G36*
X38730Y166854D02*
X36763Y165718D01*
X37800Y163921D01*
X39767Y165057D01*
X38730Y166854D01*
D02*
G37*
G36*
X166783Y167543D02*
X164621Y163798D01*
X164275Y163998D01*
X163237Y162201D01*
X165638Y160816D01*
X165387Y160383D01*
X165821Y160133D01*
X164533Y157903D01*
X166500Y156767D01*
D01*
X167419Y156358D01*
X167484Y156111D01*
X167428Y156027D01*
X167324Y155500D01*
X167428Y154973D01*
X167727Y154527D01*
X168173Y154228D01*
X168700Y154124D01*
X169227Y154228D01*
X169673Y154527D01*
X169972Y154973D01*
X170076Y155500D01*
X170031Y155730D01*
Y163682D01*
X170891Y165172D01*
X166783Y167543D01*
D02*
G37*
G36*
X47554Y171487D02*
X43446Y169115D01*
X45308Y165890D01*
X45621Y165348D01*
X46121Y164482D01*
X47983Y161257D01*
X52091Y163628D01*
X50280Y166766D01*
X50727Y167828D01*
X50795Y167874D01*
X51173Y168127D01*
X51472Y168573D01*
X51576Y169100D01*
X51472Y169627D01*
X51173Y170073D01*
X50727Y170372D01*
X50200Y170476D01*
X49673Y170372D01*
X49449Y170222D01*
X48284D01*
X47554Y171487D01*
D02*
G37*
G36*
X162737Y161335D02*
X161700Y159539D01*
X163667Y158403D01*
X164705Y160200D01*
X162737Y161335D01*
D02*
G37*
G36*
X160646Y171087D02*
X158784Y167861D01*
X158284Y166995D01*
X157971Y166454D01*
X156109Y163228D01*
X158178Y162033D01*
Y159151D01*
X158028Y158927D01*
X157924Y158400D01*
X158028Y157873D01*
X158327Y157427D01*
X158773Y157128D01*
X159300Y157024D01*
X159827Y157128D01*
X160273Y157427D01*
X160572Y157873D01*
X160676Y158400D01*
X160572Y158927D01*
X160422Y159151D01*
Y161211D01*
X162079Y164082D01*
X162579Y164948D01*
X162892Y165490D01*
X164754Y168715D01*
X160646Y171087D01*
D02*
G37*
G36*
X43101Y165827D02*
X40700Y164441D01*
X38300Y163055D01*
X39337Y161258D01*
X39684Y161458D01*
X41846Y157713D01*
X41912Y157752D01*
X42778Y157252D01*
Y155251D01*
X42628Y155027D01*
X42524Y154500D01*
X42628Y153973D01*
X42927Y153527D01*
X43373Y153228D01*
X43900Y153124D01*
X44427Y153228D01*
X44873Y153527D01*
X45172Y153973D01*
X45276Y154500D01*
X45172Y155027D01*
X45022Y155251D01*
Y159547D01*
X45954Y160085D01*
X43792Y163830D01*
X44138Y164030D01*
X43101Y165827D01*
D02*
G37*
G36*
X71100Y148776D02*
X70573Y148672D01*
X70127Y148373D01*
X69828Y147927D01*
X69724Y147400D01*
X69828Y146873D01*
X69130Y146119D01*
X68978Y146031D01*
X68528Y146291D01*
X66157Y142183D01*
X69382Y140321D01*
X70248Y139821D01*
X70790Y139508D01*
X74015Y137646D01*
X76387Y141754D01*
X73161Y143616D01*
X72818Y143815D01*
X72448Y144237D01*
X72166Y144745D01*
X72222Y145024D01*
X72222Y145024D01*
Y146649D01*
X72372Y146873D01*
X72476Y147400D01*
X72372Y147927D01*
X72073Y148373D01*
X71627Y148672D01*
X71100Y148776D01*
D02*
G37*
G36*
X139572Y146291D02*
X136346Y144429D01*
X135805Y144116D01*
X134939Y143616D01*
X131713Y141754D01*
Y141754D01*
X131233Y140922D01*
X129851D01*
X129627Y141072D01*
X129100Y141176D01*
X128573Y141072D01*
X128127Y140773D01*
X127828Y140327D01*
X127724Y139800D01*
X127828Y139273D01*
X128127Y138827D01*
X128573Y138528D01*
X129100Y138424D01*
X129627Y138528D01*
X129851Y138678D01*
X133489D01*
X134085Y137646D01*
X137310Y139508D01*
X137852Y139821D01*
X138718Y140321D01*
X141278Y141799D01*
X142278Y141222D01*
Y139671D01*
X139370Y137992D01*
X139170Y138338D01*
X137373Y137301D01*
X138759Y134900D01*
X140145Y132500D01*
X141942Y133537D01*
X141742Y133884D01*
X145487Y136046D01*
X144481Y137789D01*
X144522Y137995D01*
Y143049D01*
X144672Y143273D01*
X144776Y143800D01*
X144672Y144327D01*
X144373Y144773D01*
X143927Y145072D01*
X143400Y145176D01*
X142873Y145072D01*
X142427Y144773D01*
X142128Y144327D01*
X142060Y143982D01*
X141463Y143746D01*
X141063Y143708D01*
X139572Y146291D01*
D02*
G37*
G36*
X64839Y140700D02*
X63703Y138733D01*
X65500Y137696D01*
X66635Y139663D01*
X64839Y140700D01*
D02*
G37*
G36*
X63203Y137867D02*
X62067Y135900D01*
X63864Y134862D01*
X65000Y136829D01*
X63203Y137867D01*
D02*
G37*
G36*
X136507Y136801D02*
X134710Y135763D01*
X135846Y133796D01*
X137643Y134833D01*
X136507Y136801D01*
D02*
G37*
G36*
X67501Y139163D02*
X66116Y136762D01*
X64730Y134362D01*
X66527Y133325D01*
X66727Y133671D01*
X70472Y131509D01*
Y131509D01*
X71495Y131464D01*
X71924Y131378D01*
X72249D01*
X72473Y131228D01*
X73000Y131124D01*
X73527Y131228D01*
X73973Y131527D01*
X74272Y131973D01*
X74376Y132500D01*
X74272Y133027D01*
X73973Y133473D01*
X73527Y133772D01*
X73000Y133876D01*
X72992Y133875D01*
X72353Y134767D01*
X72843Y135617D01*
X69098Y137779D01*
X69298Y138125D01*
X67501Y139163D01*
D02*
G37*
G36*
X138143Y133967D02*
X136346Y132930D01*
X137482Y130963D01*
X139279Y132000D01*
X138143Y133967D01*
D02*
G37*
G36*
X100000Y139776D02*
X99473Y139672D01*
X99027Y139373D01*
X98728Y138927D01*
X98624Y138400D01*
X98728Y137873D01*
X99027Y137427D01*
X99473Y137128D01*
X99511Y137121D01*
X99895Y136536D01*
X99825Y135558D01*
X99825D01*
Y130815D01*
X103550D01*
X104175Y130815D01*
X105175Y130815D01*
X108899D01*
Y135558D01*
X105175D01*
X104550Y135558D01*
X103626Y135558D01*
X103122Y136400D01*
X103036Y136829D01*
X102793Y137193D01*
X102793Y137193D01*
X101324Y138662D01*
X101272Y138927D01*
X100973Y139373D01*
X100527Y139672D01*
X100000Y139776D01*
D02*
G37*
G36*
X101500Y128872D02*
X99425D01*
Y126600D01*
X101500D01*
Y128872D01*
D02*
G37*
G36*
Y125600D02*
X99425D01*
Y123328D01*
X101500D01*
Y125600D01*
D02*
G37*
G36*
X104575Y128872D02*
X102500D01*
Y126100D01*
Y123328D01*
X104575D01*
X104978Y122495D01*
Y122151D01*
X104828Y121927D01*
X104724Y121400D01*
X104828Y120873D01*
X105127Y120427D01*
X105573Y120128D01*
X106100Y120024D01*
X106627Y120128D01*
X107073Y120427D01*
X107372Y120873D01*
X107476Y121400D01*
X107372Y121927D01*
X107222Y122151D01*
Y123728D01*
X108899D01*
Y128472D01*
X104575D01*
Y128872D01*
D02*
G37*
G36*
X160550Y70134D02*
Y68950D01*
X161734D01*
X161698Y69132D01*
X161311Y69711D01*
X160732Y70098D01*
X160550Y70134D01*
D02*
G37*
G36*
X159550D02*
X159367Y70098D01*
X158788Y69711D01*
X158401Y69132D01*
X158365Y68950D01*
X159550D01*
Y70134D01*
D02*
G37*
G36*
X161734Y67950D02*
X160550D01*
Y66765D01*
X160732Y66801D01*
X161311Y67188D01*
X161698Y67767D01*
X161734Y67950D01*
D02*
G37*
G36*
X159550D02*
X158365D01*
X158401Y67767D01*
X158788Y67188D01*
X159367Y66801D01*
X159550Y66765D01*
Y67950D01*
D02*
G37*
G36*
X104300Y61585D02*
Y60400D01*
X105485D01*
X105448Y60583D01*
X105062Y61162D01*
X104483Y61549D01*
X104300Y61585D01*
D02*
G37*
G36*
X103300D02*
X103117Y61549D01*
X102538Y61162D01*
X102152Y60583D01*
X102115Y60400D01*
X103300D01*
Y61585D01*
D02*
G37*
G36*
X147300Y109776D02*
X146773Y109672D01*
X146327Y109373D01*
X146028Y108927D01*
X145924Y108400D01*
X146028Y107873D01*
X146327Y107427D01*
X146773Y107128D01*
X147038Y107076D01*
X147067Y107047D01*
Y53486D01*
X146067Y53183D01*
X145993Y53293D01*
X145993Y53293D01*
X135493Y63793D01*
X135129Y64036D01*
X134700Y64122D01*
X134700Y64122D01*
X111951D01*
X111727Y64272D01*
X111200Y64376D01*
X110673Y64272D01*
X110227Y63973D01*
X109928Y63527D01*
X109824Y63000D01*
X109829Y62972D01*
X109196Y62038D01*
X109086Y61972D01*
X108551D01*
X108122Y61887D01*
X108066Y61850D01*
X107673Y61772D01*
X107227Y61473D01*
X106928Y61027D01*
X106824Y60500D01*
X106928Y59973D01*
X107227Y59527D01*
X107673Y59228D01*
X108200Y59124D01*
X108727Y59228D01*
X109173Y59527D01*
X109309Y59729D01*
X131485D01*
X132792Y58422D01*
X132378Y57422D01*
X105421D01*
X104897Y58399D01*
X104928Y58549D01*
X105062Y58638D01*
X105448Y59217D01*
X105485Y59400D01*
X102115D01*
X102152Y59217D01*
X102538Y58638D01*
X103004Y58327D01*
X103208Y57437D01*
X103227Y57273D01*
X102928Y56827D01*
X102823Y56300D01*
X102928Y55773D01*
X103227Y55327D01*
X103673Y55028D01*
X104200Y54924D01*
X104727Y55028D01*
X104951Y55178D01*
X132935D01*
X137752Y50361D01*
Y46263D01*
X137602Y46038D01*
X137498Y45512D01*
X137602Y44985D01*
X137901Y44539D01*
X137926Y44522D01*
X137623Y43522D01*
X133446D01*
X130615Y46352D01*
X130562Y46617D01*
X130264Y47064D01*
X129817Y47362D01*
X129291Y47467D01*
X128764Y47362D01*
X128317Y47064D01*
X128288Y47020D01*
X128278Y47016D01*
X127162Y47043D01*
X127114Y47114D01*
X126668Y47413D01*
X126141Y47517D01*
X125614Y47413D01*
X125168Y47114D01*
X124869Y46668D01*
X124765Y46141D01*
X124766Y46135D01*
X123844Y45642D01*
X121822Y47665D01*
Y49949D01*
X121972Y50173D01*
X122076Y50700D01*
X121972Y51227D01*
X121673Y51673D01*
X121227Y51972D01*
X120700Y52076D01*
X120173Y51972D01*
X119727Y51673D01*
X119428Y51227D01*
X119324Y50700D01*
X119428Y50173D01*
X119578Y49949D01*
Y47200D01*
X119578Y47200D01*
X119664Y46771D01*
X119907Y46407D01*
X130207Y36107D01*
X130571Y35864D01*
X131000Y35778D01*
X131000Y35778D01*
X157937D01*
X174229Y19487D01*
X174091Y18399D01*
X174012Y18289D01*
X173332Y17767D01*
X172755Y17016D01*
X172393Y16140D01*
X172269Y15200D01*
X172393Y14260D01*
X172755Y13385D01*
X173332Y12632D01*
X174084Y12055D01*
X174960Y11693D01*
X175900Y11569D01*
X176840Y11693D01*
X177716Y12055D01*
X178468Y12632D01*
X179045Y13385D01*
X179407Y14260D01*
X179531Y15200D01*
X179407Y16140D01*
X179045Y17016D01*
X178920Y17178D01*
X179413Y18179D01*
X182335D01*
X183078Y17436D01*
X182755Y17016D01*
X182393Y16140D01*
X182269Y15200D01*
X182393Y14260D01*
X182755Y13385D01*
X183332Y12632D01*
X184084Y12055D01*
X184960Y11693D01*
X185900Y11569D01*
X186840Y11693D01*
X187715Y12055D01*
X188468Y12632D01*
X189045Y13385D01*
X189407Y14260D01*
X189531Y15200D01*
X189407Y16140D01*
X189045Y17016D01*
X188920Y17178D01*
X189413Y18179D01*
X191335D01*
X192680Y16834D01*
X192393Y16140D01*
X192269Y15200D01*
X192393Y14260D01*
X192755Y13385D01*
X193332Y12632D01*
X194085Y12055D01*
X194960Y11693D01*
X195900Y11569D01*
X196840Y11693D01*
X197715Y12055D01*
X198468Y12632D01*
X199045Y13385D01*
X199407Y14260D01*
X199531Y15200D01*
X199407Y16140D01*
X199045Y17016D01*
X198468Y17767D01*
X197715Y18345D01*
X196840Y18707D01*
X195900Y18831D01*
X194960Y18707D01*
X194266Y18420D01*
X192593Y20093D01*
X192229Y20336D01*
X191800Y20422D01*
X191800Y20422D01*
X187270D01*
X187040Y20742D01*
X187030Y20794D01*
X187418Y21932D01*
X187715Y22055D01*
X188468Y22633D01*
X189045Y23384D01*
X189407Y24260D01*
X189531Y25200D01*
X189407Y26140D01*
X189045Y27016D01*
X188468Y27768D01*
X187715Y28345D01*
X186840Y28707D01*
X185900Y28831D01*
X184960Y28707D01*
X184266Y28420D01*
X169493Y43193D01*
X169129Y43436D01*
X168700Y43522D01*
X168700Y43522D01*
X149440D01*
X149136Y44522D01*
X149162Y44539D01*
X149460Y44985D01*
X149565Y45512D01*
X149460Y46038D01*
X149310Y46263D01*
Y107512D01*
X149310Y107512D01*
X149224Y107941D01*
X148981Y108305D01*
X148624Y108662D01*
X148572Y108927D01*
X148273Y109373D01*
X147827Y109672D01*
X147300Y109776D01*
D02*
G37*
G36*
X104700Y40085D02*
Y38900D01*
X105885D01*
X105849Y39083D01*
X105462Y39662D01*
X104883Y40049D01*
X104700Y40085D01*
D02*
G37*
G36*
X103700D02*
X103517Y40049D01*
X102938Y39662D01*
X102551Y39083D01*
X102515Y38900D01*
X103700D01*
Y40085D01*
D02*
G37*
G36*
X105885Y37900D02*
X104700D01*
Y36715D01*
X104883Y36751D01*
X105462Y37138D01*
X105849Y37717D01*
X105885Y37900D01*
D02*
G37*
G36*
X103700D02*
X102515D01*
X102551Y37717D01*
X102938Y37138D01*
X103517Y36751D01*
X103700Y36715D01*
Y37900D01*
D02*
G37*
G36*
X196400Y29169D02*
Y25700D01*
X199869D01*
X199797Y26244D01*
X199394Y27217D01*
X198753Y28053D01*
X197917Y28694D01*
X196944Y29097D01*
X196400Y29169D01*
D02*
G37*
G36*
X195400D02*
X194856Y29097D01*
X193883Y28694D01*
X193047Y28053D01*
X192406Y27217D01*
X192003Y26244D01*
X191931Y25700D01*
X195400D01*
Y29169D01*
D02*
G37*
G36*
X199869Y24700D02*
X196400D01*
Y21231D01*
X196944Y21303D01*
X197917Y21706D01*
X198753Y22347D01*
X199394Y23183D01*
X199797Y24156D01*
X199869Y24700D01*
D02*
G37*
G36*
X195400D02*
X191931D01*
X192003Y24156D01*
X192406Y23183D01*
X193047Y22347D01*
X193883Y21706D01*
X194856Y21303D01*
X195400Y21231D01*
Y24700D01*
D02*
G37*
G36*
X147238Y5123D02*
Y3938D01*
X148423D01*
X148386Y4121D01*
X148000Y4699D01*
X147421Y5086D01*
X147238Y5123D01*
D02*
G37*
G36*
X146238D02*
X146055Y5086D01*
X145476Y4699D01*
X145089Y4121D01*
X145053Y3938D01*
X146238D01*
Y5123D01*
D02*
G37*
G36*
X148423Y2938D02*
X147238D01*
Y1753D01*
X147421Y1789D01*
X148000Y2176D01*
X148386Y2755D01*
X148423Y2938D01*
D02*
G37*
G36*
X146238D02*
X145053D01*
X145089Y2755D01*
X145476Y2176D01*
X146055Y1789D01*
X146238Y1753D01*
Y2938D01*
D02*
G37*
%LPD*%
D10*
X108200Y60500D02*
X108551Y60851D01*
X131949D01*
X104200Y56300D02*
X133400D01*
X138874Y45512D02*
Y50826D01*
X133400Y56300D02*
X138874Y50826D01*
X120700Y47200D02*
Y50700D01*
Y47200D02*
X131000Y36900D01*
X131949Y60851D02*
X142400Y50400D01*
Y45600D02*
Y50400D01*
X145200Y45300D02*
Y52500D01*
X134700Y63000D02*
X145200Y52500D01*
X111200Y63000D02*
X134700D01*
X191800Y19300D02*
X195900Y15200D01*
X186002Y19300D02*
X191800D01*
X185900Y15200D02*
Y16200D01*
X182800Y19300D02*
X185900Y16200D01*
X176002Y19300D02*
X182800D01*
X158402Y36900D02*
X176002Y19300D01*
X131000Y36900D02*
X158402D01*
X132981Y42400D02*
X168700D01*
X129291Y46091D02*
X132981Y42400D01*
X126141Y46141D02*
X132882Y39400D01*
X181800Y23502D02*
X186002Y19300D01*
X181800Y23502D02*
Y25700D01*
X168100Y39400D02*
X181800Y25700D01*
X132882Y39400D02*
X168100D01*
X168700Y42400D02*
X185900Y25200D01*
X147300Y108400D02*
X148188Y107512D01*
Y45512D02*
Y107512D01*
X176500Y206100D02*
X176943Y205657D01*
Y201162D02*
Y205657D01*
X167100Y189600D02*
X169857Y192357D01*
Y196438D01*
X49800Y237100D02*
X50400Y236500D01*
Y233824D02*
Y236500D01*
X49350Y232774D02*
X50400Y233824D01*
X65483Y259188D02*
Y260167D01*
X63400Y262250D02*
X65483Y260167D01*
X63400Y262250D02*
Y264300D01*
X86300Y298700D02*
Y298900D01*
Y298700D02*
X106762Y278238D01*
Y271343D02*
Y278238D01*
Y264257D02*
X110157D01*
X102038Y276738D02*
X102500Y277200D01*
X102038Y271343D02*
Y276738D01*
X73117Y255413D02*
X75505Y257800D01*
X77900D01*
X40624Y232000D02*
X40850Y232226D01*
X35700Y232000D02*
X40624D01*
X39500Y201524D02*
Y203800D01*
X42500Y206800D01*
X32300Y196687D02*
X32413Y196800D01*
X32300Y189900D02*
Y196687D01*
X46587Y168417D02*
X47270Y169100D01*
X50200D01*
X42812Y160783D02*
X43900Y159695D01*
Y154500D02*
Y159695D01*
X69226Y143150D02*
X71100Y145024D01*
Y147400D01*
X69774Y134650D02*
X71924Y132500D01*
X73000D01*
X100000Y138400D02*
X102000Y136400D01*
Y133187D02*
Y136400D01*
X106100Y125476D02*
X106724Y126100D01*
X106100Y121400D02*
Y125476D01*
X133795Y139800D02*
X134783Y140787D01*
X129100Y139800D02*
X133795D01*
X142417Y137013D02*
X143400Y137995D01*
Y143800D01*
X159300Y164776D02*
X159350Y164826D01*
X159300Y158400D02*
Y164776D01*
X167850Y165374D02*
X168700Y164524D01*
X168909D01*
Y155709D02*
Y164524D01*
X168700Y155500D02*
X168909Y155709D01*
X166320Y226300D02*
X174000D01*
X161963Y230657D02*
X166320Y226300D01*
X165738Y238291D02*
X169046Y241600D01*
X171000D01*
X138126Y263150D02*
X142700Y267724D01*
Y269400D01*
X138674Y254650D02*
X142300Y251024D01*
Y250300D02*
Y251024D01*
D13*
X138126Y263150D02*
D03*
X134583Y257013D02*
D03*
X142217Y260788D02*
D03*
X138674Y254650D02*
D03*
X69774Y134650D02*
D03*
X73317Y140787D02*
D03*
X65683Y137013D02*
D03*
X69226Y143150D02*
D03*
D14*
X176943Y201162D02*
D03*
X169857D02*
D03*
X176943Y196438D02*
D03*
X169857D02*
D03*
X32413Y196800D02*
D03*
X39500D02*
D03*
X32413Y201524D02*
D03*
X39500D02*
D03*
D15*
X167750Y164474D02*
D03*
X161612Y168017D02*
D03*
X165387Y160383D02*
D03*
X159250Y163926D02*
D03*
X40250Y232526D02*
D03*
X46387Y228983D02*
D03*
X42612Y236617D02*
D03*
X48750Y233074D02*
D03*
D16*
X106724Y126100D02*
D03*
Y133187D02*
D03*
X102000Y126100D02*
D03*
Y133187D02*
D03*
X102038Y271343D02*
D03*
Y264257D02*
D03*
X106762Y271343D02*
D03*
Y264257D02*
D03*
D17*
X165738Y238291D02*
D03*
X159601Y234748D02*
D03*
X168100Y234200D02*
D03*
X161963Y230657D02*
D03*
X42812Y160783D02*
D03*
X48950Y164326D02*
D03*
X40450Y164874D02*
D03*
X46587Y168417D02*
D03*
D18*
X142417Y137013D02*
D03*
X138874Y143150D02*
D03*
X138326Y134650D02*
D03*
X134783Y140787D02*
D03*
X65409Y260087D02*
D03*
X68952Y253950D02*
D03*
X69500Y262450D02*
D03*
X73043Y256312D02*
D03*
D26*
X114100Y199400D02*
D03*
X94415D02*
D03*
X175900Y25200D02*
D03*
Y15200D02*
D03*
X185900Y25200D02*
D03*
Y15200D02*
D03*
X195900Y25200D02*
D03*
Y15200D02*
D03*
D27*
X103800Y59900D02*
D03*
X108200Y60500D02*
D03*
X104200Y56300D02*
D03*
X146738Y3438D02*
D03*
X145200Y45300D02*
D03*
X142400Y45600D02*
D03*
X138874Y45512D02*
D03*
X120700Y50700D02*
D03*
X111200Y63000D02*
D03*
X129291Y46091D02*
D03*
X126141Y46141D02*
D03*
X160050Y68450D02*
D03*
X147300Y108400D02*
D03*
X148188Y45512D02*
D03*
X176500Y206100D02*
D03*
X110157Y264257D02*
D03*
X86300Y298900D02*
D03*
X104200Y38400D02*
D03*
X102500Y277200D02*
D03*
X77900Y257800D02*
D03*
X63400Y264300D02*
D03*
X49800Y237100D02*
D03*
X35700Y232000D02*
D03*
X42500Y206800D02*
D03*
X32300Y189900D02*
D03*
X43900Y154500D02*
D03*
X50200Y169100D02*
D03*
X73000Y132500D02*
D03*
X71100Y147400D02*
D03*
X100000Y138400D02*
D03*
X106100Y121400D02*
D03*
X159300Y158400D02*
D03*
X129100Y139800D02*
D03*
X143400Y143800D02*
D03*
X168700Y155500D02*
D03*
X167100Y189600D02*
D03*
X174000Y226300D02*
D03*
X171000Y241600D02*
D03*
X142700Y269400D02*
D03*
X142300Y250300D02*
D03*
M02*
