G04*
G04 #@! TF.GenerationSoftware,Altium Limited,Altium Designer,18.1.9 (240)*
G04*
G04 Layer_Physical_Order=2*
G04 Layer_Color=16711680*
%FSLAX25Y25*%
%MOIN*%
G70*
G01*
G75*
%ADD10C,0.01000*%
%ADD14R,0.03543X0.03150*%
%ADD26C,0.06000*%
%ADD27C,0.01500*%
%ADD28O,0.02362X0.05709*%
%ADD29R,0.03543X0.02756*%
%ADD30R,0.03740X0.02559*%
%ADD31O,0.06496X0.02165*%
%ADD32O,0.02165X0.06496*%
%ADD33R,0.06102X0.05118*%
%ADD34R,0.17717X0.17717*%
%ADD35R,0.05906X0.20079*%
%ADD36C,0.05000*%
G36*
X206700Y282500D02*
X206700Y0D01*
X-100D01*
Y282602D01*
X103249Y385951D01*
X206700Y282500D01*
D02*
G37*
%LPC*%
G36*
X109596Y350339D02*
X107226D01*
Y348560D01*
X109596D01*
Y350339D01*
D02*
G37*
G36*
X106226D02*
X103856D01*
Y348560D01*
X106226D01*
Y350339D01*
D02*
G37*
G36*
X109596Y347560D02*
X107226D01*
Y345780D01*
X109596D01*
Y347560D01*
D02*
G37*
G36*
X106226D02*
X103856D01*
Y345780D01*
X106226D01*
Y347560D01*
D02*
G37*
G36*
X109196Y357420D02*
X104256D01*
Y353661D01*
X109196D01*
Y354419D01*
X111395D01*
X115078Y350735D01*
Y343350D01*
X113828D01*
Y342297D01*
X108801D01*
Y343350D01*
X104058D01*
Y339626D01*
X104058Y339001D01*
X104058Y338085D01*
X103856Y337085D01*
X102622D01*
X102193Y336999D01*
X101829Y336756D01*
X101829Y336756D01*
X100031Y334958D01*
X99031Y335372D01*
Y338001D01*
X99031Y338626D01*
X99031Y339626D01*
Y343350D01*
X97781D01*
Y349921D01*
X99944D01*
Y353679D01*
X95004D01*
Y349921D01*
X95538D01*
Y343350D01*
X94287D01*
Y342297D01*
X88276D01*
X88276Y342297D01*
X87846Y342212D01*
X87483Y341969D01*
X51607Y306093D01*
X51364Y305729D01*
X51278Y305300D01*
X51278Y305300D01*
Y241415D01*
X51278Y241415D01*
X51364Y240986D01*
X51607Y240622D01*
X91195Y201034D01*
X90908Y200340D01*
X90784Y199400D01*
X90908Y198460D01*
X91270Y197584D01*
X91847Y196832D01*
X92599Y196255D01*
X93475Y195893D01*
X94415Y195769D01*
X95355Y195893D01*
X96231Y196255D01*
X96983Y196832D01*
X97560Y197584D01*
X97922Y198460D01*
X98046Y199400D01*
X97922Y200340D01*
X97560Y201216D01*
X96983Y201968D01*
X96231Y202545D01*
X95355Y202907D01*
X94415Y203031D01*
X93475Y202907D01*
X92781Y202620D01*
X53522Y241880D01*
Y304835D01*
X88740Y340054D01*
X93580D01*
X94287Y339347D01*
X94287Y338280D01*
X93580Y337573D01*
X88351D01*
X88351Y337573D01*
X87922Y337487D01*
X87558Y337244D01*
X87558Y337244D01*
X81207Y330893D01*
X80964Y330529D01*
X80878Y330100D01*
X80878Y330100D01*
Y314900D01*
X80878Y314900D01*
X80964Y314471D01*
X81207Y314107D01*
X85178Y310135D01*
Y307038D01*
X85016Y306929D01*
X84622Y306340D01*
X84484Y305645D01*
Y302298D01*
X84622Y301604D01*
X85016Y301014D01*
X85178Y300906D01*
Y299651D01*
X85028Y299427D01*
X84924Y298900D01*
X85028Y298373D01*
X85327Y297927D01*
X85773Y297628D01*
X85819Y297619D01*
X86169Y296556D01*
X85307Y295693D01*
X85064Y295329D01*
X84978Y294900D01*
X84978Y294900D01*
Y291134D01*
X83728D01*
Y287178D01*
X88472D01*
Y291134D01*
X87221D01*
Y294435D01*
X92093Y299307D01*
X92093Y299307D01*
X92336Y299671D01*
X92422Y300100D01*
Y300906D01*
X92584Y301014D01*
X92978Y301604D01*
X93116Y302298D01*
Y305645D01*
X92978Y306340D01*
X92584Y306929D01*
X91995Y307323D01*
X91300Y307461D01*
X90605Y307323D01*
X90016Y306929D01*
X89622Y306340D01*
X89484Y305645D01*
Y302298D01*
X89622Y301604D01*
X90016Y301014D01*
X89677Y300063D01*
X88644Y299030D01*
X87581Y299381D01*
X87572Y299427D01*
X87422Y299651D01*
Y300906D01*
X87584Y301014D01*
X87978Y301604D01*
X88116Y302298D01*
Y305645D01*
X87978Y306340D01*
X87584Y306929D01*
X87422Y307038D01*
Y310600D01*
X87422Y310600D01*
X87336Y311029D01*
X87093Y311393D01*
X87093Y311393D01*
X83122Y315365D01*
Y329635D01*
X88816Y335330D01*
X94287D01*
Y334276D01*
X97935D01*
X98349Y333276D01*
X95507Y330434D01*
X95264Y330070D01*
X95178Y329641D01*
X95178Y329641D01*
Y328494D01*
X95016Y328386D01*
X94622Y327797D01*
X94484Y327102D01*
Y323755D01*
X94622Y323060D01*
X95016Y322471D01*
X95605Y322077D01*
X96300Y321939D01*
X96995Y322077D01*
X97584Y322471D01*
X97978Y323060D01*
X98116Y323755D01*
Y327102D01*
X97978Y327797D01*
X97584Y328386D01*
X97638Y329393D01*
X103058Y334813D01*
X104058Y334772D01*
Y334276D01*
X108801D01*
Y338001D01*
X108801Y338626D01*
X108801Y339347D01*
X109508Y340054D01*
X113828D01*
Y339026D01*
X113428D01*
Y336951D01*
X116200D01*
X118972D01*
Y339026D01*
X118572D01*
Y343350D01*
X117322D01*
Y351200D01*
X117236Y351629D01*
X116993Y351993D01*
X116993Y351993D01*
X112653Y356333D01*
X112289Y356576D01*
X111860Y356662D01*
X111860Y356662D01*
X109196D01*
Y357420D01*
D02*
G37*
G36*
X118972Y335951D02*
X116700D01*
Y333876D01*
X118972D01*
Y335951D01*
D02*
G37*
G36*
X115700D02*
X113428D01*
Y333876D01*
X115700D01*
Y335951D01*
D02*
G37*
G36*
X115800Y329226D02*
X115449Y329156D01*
X114727Y328674D01*
X114245Y327953D01*
X114076Y327102D01*
X113116D01*
X112978Y327797D01*
X112584Y328386D01*
X111995Y328779D01*
X111300Y328918D01*
X110605Y328779D01*
X110016Y328386D01*
X109622Y327797D01*
X109484Y327102D01*
Y323755D01*
X109622Y323060D01*
X110016Y322471D01*
X110605Y322077D01*
X111300Y321939D01*
X111995Y322077D01*
X112584Y322471D01*
X112978Y323060D01*
X113116Y323755D01*
X114076D01*
X114245Y322904D01*
X114727Y322183D01*
X115449Y321701D01*
X115800Y321631D01*
Y325428D01*
Y329226D01*
D02*
G37*
G36*
X121800D02*
Y325928D01*
X123524D01*
Y327102D01*
X123354Y327953D01*
X122872Y328674D01*
X122151Y329156D01*
X121800Y329226D01*
D02*
G37*
G36*
X101300Y328918D02*
X100605Y328779D01*
X100016Y328386D01*
X99622Y327797D01*
X99484Y327102D01*
Y323755D01*
X99622Y323060D01*
X100016Y322471D01*
X100605Y322077D01*
X101300Y321939D01*
X101995Y322077D01*
X102584Y322471D01*
X102978Y323060D01*
X103116Y323755D01*
Y327102D01*
X102978Y327797D01*
X102584Y328386D01*
X101995Y328779D01*
X101300Y328918D01*
D02*
G37*
G36*
X91300D02*
X90605Y328779D01*
X90016Y328386D01*
X89622Y327797D01*
X89484Y327102D01*
Y323755D01*
X89622Y323060D01*
X90016Y322471D01*
X90605Y322077D01*
X91300Y321939D01*
X91995Y322077D01*
X92584Y322471D01*
X92978Y323060D01*
X93116Y323755D01*
Y327102D01*
X92978Y327797D01*
X92584Y328386D01*
X91995Y328779D01*
X91300Y328918D01*
D02*
G37*
G36*
X86300D02*
X85605Y328779D01*
X85016Y328386D01*
X84622Y327797D01*
X84484Y327102D01*
Y323755D01*
X84622Y323060D01*
X85016Y322471D01*
X85605Y322077D01*
X86300Y321939D01*
X86995Y322077D01*
X87584Y322471D01*
X87978Y323060D01*
X88116Y323755D01*
Y327102D01*
X87978Y327797D01*
X87584Y328386D01*
X86995Y328779D01*
X86300Y328918D01*
D02*
G37*
G36*
X123524Y324928D02*
X121800D01*
Y321631D01*
X122151Y321701D01*
X122872Y322183D01*
X123354Y322904D01*
X123524Y323755D01*
Y324928D01*
D02*
G37*
G36*
X116800Y329226D02*
Y325428D01*
Y321631D01*
X117151Y321701D01*
X117873Y322183D01*
X118255Y322756D01*
X118800Y322837D01*
X119345Y322756D01*
X119728Y322183D01*
X120449Y321701D01*
X120800Y321631D01*
Y325428D01*
Y329226D01*
X120449Y329156D01*
X119728Y328674D01*
X119345Y328101D01*
X118800Y328019D01*
X118255Y328101D01*
X117873Y328674D01*
X117151Y329156D01*
X116800Y329226D01*
D02*
G37*
G36*
X106300Y307461D02*
X105605Y307323D01*
X105016Y306929D01*
X104622Y306340D01*
X104484Y305645D01*
Y302298D01*
X104622Y301604D01*
X105016Y301014D01*
X105605Y300621D01*
X105678Y300606D01*
Y291134D01*
X104428D01*
Y287178D01*
X109172D01*
Y291134D01*
X107922D01*
Y301519D01*
X107978Y301604D01*
X108116Y302298D01*
Y305645D01*
X107978Y306340D01*
X107584Y306929D01*
X106995Y307323D01*
X106300Y307461D01*
D02*
G37*
G36*
X101300D02*
X100605Y307323D01*
X100016Y306929D01*
X99622Y306340D01*
X99484Y305645D01*
Y302298D01*
X99622Y301604D01*
X100016Y301014D01*
X100178Y300906D01*
Y299665D01*
X99207Y298693D01*
X98964Y298329D01*
X98878Y297900D01*
X98878Y297900D01*
Y291134D01*
X97528D01*
Y287178D01*
X102272D01*
Y291134D01*
X101122D01*
Y297435D01*
X102093Y298407D01*
X102093Y298407D01*
X102336Y298771D01*
X102422Y299200D01*
X102422Y299200D01*
Y300906D01*
X102584Y301014D01*
X102978Y301604D01*
X103116Y302298D01*
Y305645D01*
X102978Y306340D01*
X102584Y306929D01*
X101995Y307323D01*
X101300Y307461D01*
D02*
G37*
G36*
X96300D02*
X95605Y307323D01*
X95016Y306929D01*
X94622Y306340D01*
X94484Y305645D01*
Y302298D01*
X94622Y301604D01*
X95016Y301014D01*
X95178Y300906D01*
Y297065D01*
X92207Y294093D01*
X91964Y293729D01*
X91878Y293300D01*
X91878Y293300D01*
Y291134D01*
X90628D01*
Y287178D01*
X95372D01*
Y291134D01*
X94121D01*
Y292835D01*
X97093Y295807D01*
X97093Y295807D01*
X97336Y296171D01*
X97422Y296600D01*
Y300906D01*
X97584Y301014D01*
X97978Y301604D01*
X98116Y302298D01*
Y305645D01*
X97978Y306340D01*
X97584Y306929D01*
X96995Y307323D01*
X96300Y307461D01*
D02*
G37*
G36*
X102272Y285622D02*
X97528D01*
Y281666D01*
X98978D01*
Y279500D01*
X98978Y279500D01*
X99064Y279071D01*
X99307Y278707D01*
X101200Y276813D01*
X101228Y276673D01*
X101527Y276227D01*
X101973Y275928D01*
X102500Y275823D01*
X103027Y275928D01*
X103473Y276227D01*
X103772Y276673D01*
X103876Y277200D01*
X103772Y277727D01*
X103473Y278173D01*
X103027Y278472D01*
X102637Y278549D01*
X101222Y279965D01*
Y281666D01*
X102272D01*
Y285622D01*
D02*
G37*
G36*
X88472Y285622D02*
X83728D01*
Y281666D01*
X84266D01*
X84680Y280666D01*
X69735Y265722D01*
X63200D01*
X62771Y265636D01*
X62407Y265393D01*
X62164Y265029D01*
X62078Y264600D01*
X62081Y264588D01*
X62024Y264300D01*
X62128Y263773D01*
X62427Y263327D01*
X62873Y263028D01*
X63400Y262924D01*
X63927Y263028D01*
X64373Y263327D01*
X64475Y263478D01*
X70200D01*
X70200Y263478D01*
X70629Y263564D01*
X70993Y263807D01*
X86893Y279707D01*
X86893Y279707D01*
X87136Y280071D01*
X87222Y280500D01*
X87221Y280500D01*
Y281666D01*
X88472D01*
Y285622D01*
D02*
G37*
G36*
X109172Y285622D02*
X104428D01*
Y281666D01*
X105678D01*
Y267800D01*
X105678Y267800D01*
X105764Y267371D01*
X106007Y267007D01*
X108786Y264228D01*
X108885Y263730D01*
X109183Y263283D01*
X109630Y262985D01*
X110157Y262880D01*
X110683Y262985D01*
X111130Y263283D01*
X111428Y263730D01*
X111533Y264257D01*
X111428Y264783D01*
X111130Y265230D01*
X110683Y265528D01*
X110651Y265535D01*
X107922Y268265D01*
Y281666D01*
X109172D01*
Y285622D01*
D02*
G37*
G36*
X95372Y285622D02*
X90628D01*
Y281666D01*
X91878D01*
Y273464D01*
X77513Y259100D01*
X77373Y259072D01*
X76927Y258773D01*
X76628Y258327D01*
X76524Y257800D01*
X76628Y257273D01*
X76927Y256827D01*
X77373Y256528D01*
X77900Y256423D01*
X78427Y256528D01*
X78873Y256827D01*
X79172Y257273D01*
X79249Y257663D01*
X93793Y272207D01*
X93793Y272207D01*
X94036Y272571D01*
X94121Y273000D01*
X94121Y273000D01*
Y281666D01*
X95372D01*
Y285622D01*
D02*
G37*
G36*
X106300Y328918D02*
X105605Y328779D01*
X105016Y328386D01*
X104622Y327797D01*
X104484Y327102D01*
Y323755D01*
X104622Y323060D01*
X105016Y322471D01*
X105178Y322362D01*
Y321000D01*
X105178Y321000D01*
X105264Y320571D01*
X105507Y320207D01*
X110007Y315707D01*
X110007Y315707D01*
X110371Y315464D01*
X110800Y315378D01*
X110800Y315378D01*
X141035D01*
X200284Y256130D01*
X200286Y256114D01*
X200013Y255890D01*
X199203Y255783D01*
X141093Y313893D01*
X140729Y314136D01*
X140300Y314222D01*
X140300Y314222D01*
X115100D01*
X115100Y314222D01*
X114671Y314136D01*
X114307Y313893D01*
X114307Y313893D01*
X110507Y310093D01*
X110264Y309729D01*
X110178Y309300D01*
X110178Y309300D01*
Y307038D01*
X110016Y306929D01*
X109622Y306340D01*
X109484Y305645D01*
Y302298D01*
X109622Y301604D01*
X110016Y301014D01*
X110605Y300621D01*
X111300Y300482D01*
X111995Y300621D01*
X112584Y301014D01*
X112978Y301604D01*
X113116Y302298D01*
Y305645D01*
X112978Y306340D01*
X112584Y306929D01*
X112422Y307038D01*
Y308835D01*
X115565Y311979D01*
X139835D01*
X140492Y311321D01*
X140078Y310321D01*
X117600D01*
X117600Y310322D01*
X117171Y310236D01*
X116807Y309993D01*
X116807Y309993D01*
X115507Y308693D01*
X115264Y308329D01*
X115178Y307900D01*
X115178Y307900D01*
Y307038D01*
X115016Y306929D01*
X114622Y306340D01*
X114484Y305645D01*
Y302298D01*
X114622Y301604D01*
X115016Y301014D01*
X115605Y300621D01*
X116300Y300482D01*
X116995Y300621D01*
X117584Y301014D01*
X117978Y301604D01*
X118116Y302298D01*
Y305645D01*
X117978Y306340D01*
X117584Y306929D01*
X117875Y307889D01*
X118065Y308079D01*
X119936D01*
X120240Y307079D01*
X120016Y306929D01*
X119622Y306340D01*
X119484Y305645D01*
Y302298D01*
X119622Y301604D01*
X120016Y301014D01*
X120605Y300621D01*
X121300Y300482D01*
X121995Y300621D01*
X122584Y301014D01*
X122978Y301604D01*
X123116Y302298D01*
Y302850D01*
X141264D01*
X192178Y251935D01*
Y82865D01*
X181935Y72622D01*
X160918D01*
X160779Y73613D01*
X161143Y73857D01*
X188693Y101407D01*
X188693Y101407D01*
X188936Y101771D01*
X189022Y102200D01*
X189022Y102200D01*
Y110022D01*
X190272D01*
Y113978D01*
X185528D01*
Y110022D01*
X186778D01*
Y102665D01*
X160405Y76291D01*
X160391Y76295D01*
X160125Y77439D01*
X180493Y97807D01*
X180493Y97807D01*
X180736Y98171D01*
X180822Y98600D01*
X180822Y98600D01*
Y110022D01*
X182072D01*
Y113978D01*
X177328D01*
Y110022D01*
X178578D01*
Y99064D01*
X158435Y78921D01*
X157206D01*
X157079Y79112D01*
X156522Y79483D01*
X155865Y79614D01*
X151535D01*
X150878Y79483D01*
X150321Y79112D01*
X149950Y78555D01*
X149819Y77898D01*
X149950Y77242D01*
X150100Y77017D01*
X150246Y76324D01*
X150100Y75631D01*
X149950Y75405D01*
X149819Y74749D01*
X149950Y74092D01*
X150321Y73536D01*
Y72812D01*
X149950Y72256D01*
X149819Y71599D01*
X149950Y70943D01*
X150100Y70718D01*
X150246Y70024D01*
X150100Y69331D01*
X149950Y69106D01*
X149819Y68450D01*
X149950Y67793D01*
X150321Y67237D01*
X149767Y66404D01*
X149573Y66113D01*
X149511Y65800D01*
X153700D01*
X157889D01*
X157827Y66113D01*
X157683Y66328D01*
X158218Y67328D01*
X159298D01*
X159523Y67178D01*
X160050Y67073D01*
X160576Y67178D01*
X161023Y67476D01*
X161321Y67923D01*
X161426Y68450D01*
X161321Y68976D01*
X161053Y69378D01*
X161104Y69634D01*
X161393Y70378D01*
X181878D01*
X182292Y69378D01*
X176087Y63173D01*
X158093D01*
X157617Y64173D01*
X157633Y64196D01*
X157827Y64487D01*
X157889Y64800D01*
X153700D01*
X149511D01*
X149573Y64487D01*
X149767Y64196D01*
X150321Y63363D01*
X149950Y62807D01*
X149819Y62150D01*
X149950Y61494D01*
X150100Y61269D01*
X150246Y60576D01*
X150100Y59882D01*
X149950Y59657D01*
X149819Y59001D01*
X149950Y58344D01*
X150100Y58119D01*
X150137Y57945D01*
X149819Y57419D01*
X148620Y57266D01*
X140828Y65057D01*
Y78819D01*
X141828Y79541D01*
X141889Y79529D01*
X142545Y79660D01*
X143102Y80032D01*
X143825D01*
X144382Y79660D01*
X145039Y79529D01*
X145695Y79660D01*
X146252Y80032D01*
X146975D01*
X147532Y79660D01*
X148188Y79529D01*
X148845Y79660D01*
X149401Y80032D01*
X149773Y80588D01*
X149904Y81245D01*
Y82190D01*
X157511D01*
X157511Y82190D01*
X157940Y82275D01*
X158304Y82518D01*
X172293Y96507D01*
X172293Y96507D01*
X172536Y96871D01*
X172622Y97300D01*
X172622Y97300D01*
Y110022D01*
X173872D01*
Y113978D01*
X169128D01*
Y110022D01*
X170378D01*
Y97764D01*
X157046Y84433D01*
X149904D01*
Y85576D01*
X149773Y86232D01*
X149401Y86789D01*
X148845Y87161D01*
X148188Y87291D01*
X147532Y87161D01*
X147231Y86960D01*
X146376Y87283D01*
X146231Y87403D01*
Y89145D01*
X164093Y107007D01*
X164093Y107007D01*
X164336Y107371D01*
X164422Y107800D01*
X164421Y107800D01*
Y110022D01*
X165672D01*
Y113978D01*
X160928D01*
Y110022D01*
X162178D01*
Y108265D01*
X144316Y90403D01*
X144073Y90039D01*
X143081Y90178D01*
Y94795D01*
X155893Y107607D01*
X155893Y107607D01*
X156136Y107971D01*
X156221Y108400D01*
Y110022D01*
X157472D01*
Y113978D01*
X152728D01*
Y110022D01*
X153978D01*
Y108865D01*
X141167Y96053D01*
X140924Y95689D01*
X140838Y95260D01*
X140838Y95260D01*
Y87263D01*
X140305Y86978D01*
X139857Y86853D01*
X139396Y87161D01*
X138739Y87291D01*
X138083Y87161D01*
X137782Y86960D01*
X136927Y87283D01*
X136782Y87403D01*
Y106596D01*
X139493Y109307D01*
X139493Y109307D01*
X139736Y109671D01*
X139806Y110022D01*
X141072D01*
Y113978D01*
X136328D01*
Y110022D01*
X136328D01*
X136536Y109522D01*
X134868Y107854D01*
X134625Y107490D01*
X134600Y107367D01*
X133633Y107289D01*
X133633Y107289D01*
X133547Y107718D01*
X133304Y108082D01*
X132364Y109022D01*
X132778Y110022D01*
X132872D01*
Y113978D01*
X128128D01*
Y110022D01*
X128750D01*
X129378Y109300D01*
X129464Y108871D01*
X129707Y108507D01*
X131389Y106824D01*
Y102007D01*
X130398Y101868D01*
X130155Y102232D01*
X123422Y108965D01*
Y110022D01*
X124672D01*
Y113978D01*
X119928D01*
Y110022D01*
X121178D01*
Y108500D01*
X121178Y108500D01*
X121264Y108071D01*
X121507Y107707D01*
X128240Y100974D01*
Y96857D01*
X127248Y96717D01*
X127005Y97081D01*
X115222Y108865D01*
Y110022D01*
X116472D01*
Y113978D01*
X111728D01*
Y110022D01*
X112978D01*
Y108400D01*
X112978Y108400D01*
X113064Y107971D01*
X113307Y107607D01*
X125090Y95824D01*
Y86897D01*
X124928Y86789D01*
X124556Y86232D01*
X124425Y85576D01*
Y81245D01*
X124556Y80588D01*
X124928Y80032D01*
X125484Y79660D01*
X126141Y79529D01*
X126797Y79660D01*
X127354Y80032D01*
X128077D01*
X128634Y79660D01*
X129291Y79529D01*
X129947Y79660D01*
X130504Y80032D01*
X131227D01*
X131784Y79660D01*
X132440Y79529D01*
X133097Y79660D01*
X133653Y80032D01*
X134377D01*
X134933Y79660D01*
X135590Y79529D01*
X136246Y79660D01*
X136803Y80032D01*
X137526D01*
X138083Y79660D01*
X138585Y79560D01*
Y64593D01*
X138585Y64593D01*
X138670Y64164D01*
X138913Y63800D01*
X147592Y55121D01*
X147571Y54761D01*
X147338Y53961D01*
X146975Y53718D01*
X146252D01*
X145695Y54090D01*
X145039Y54220D01*
X144382Y54090D01*
X143825Y53718D01*
X143102D01*
X142545Y54090D01*
X141889Y54220D01*
X141232Y54090D01*
X140676Y53718D01*
X139953D01*
X139396Y54090D01*
X138739Y54220D01*
X138083Y54090D01*
X137526Y53718D01*
X136803D01*
X136246Y54090D01*
X135590Y54220D01*
X134933Y54090D01*
X134377Y53718D01*
X133653D01*
X133097Y54090D01*
X132440Y54220D01*
X131784Y54090D01*
X131227Y53718D01*
X130504D01*
X129947Y54090D01*
X129291Y54220D01*
X128634Y54090D01*
X128077Y53718D01*
X127354D01*
X126797Y54090D01*
X126141Y54220D01*
X125484Y54090D01*
X124928Y53718D01*
X124556Y53161D01*
X124425Y52505D01*
Y48174D01*
X124556Y47517D01*
X124928Y46961D01*
X125019Y46900D01*
Y46892D01*
X124869Y46668D01*
X124765Y46141D01*
X124869Y45614D01*
X125168Y45168D01*
X125614Y44869D01*
X126141Y44765D01*
X126668Y44869D01*
X127114Y45168D01*
X127143Y45211D01*
X127154Y45215D01*
X128270Y45188D01*
X128317Y45117D01*
X128764Y44819D01*
X129291Y44714D01*
X129817Y44819D01*
X130264Y45117D01*
X130389Y45305D01*
X131389Y45002D01*
Y43476D01*
X130335Y42422D01*
X114887D01*
X103098Y54210D01*
X103673Y55028D01*
X104200Y54924D01*
X104727Y55028D01*
X105173Y55327D01*
X105472Y55773D01*
X105576Y56300D01*
X105472Y56827D01*
X105173Y57273D01*
X105115Y57312D01*
X104920Y58379D01*
X104963Y58435D01*
X106009Y58489D01*
X106641Y57857D01*
X106641Y57857D01*
X107004Y57614D01*
X107434Y57528D01*
X107434Y57528D01*
X116358D01*
X116893Y56528D01*
X116879Y56508D01*
X116748Y55851D01*
X116879Y55195D01*
X117251Y54638D01*
X117807Y54266D01*
X118464Y54136D01*
X119578D01*
Y51451D01*
X119428Y51227D01*
X119324Y50700D01*
X119428Y50173D01*
X119727Y49727D01*
X120173Y49428D01*
X120700Y49324D01*
X121227Y49428D01*
X121673Y49727D01*
X121972Y50173D01*
X122076Y50700D01*
X121972Y51227D01*
X121822Y51451D01*
Y54136D01*
X122794D01*
X123451Y54266D01*
X124008Y54638D01*
X124380Y55195D01*
X124510Y55851D01*
X124380Y56508D01*
X124229Y56733D01*
X124084Y57426D01*
X124229Y58119D01*
X124380Y58344D01*
X124510Y59001D01*
X124380Y59657D01*
X124229Y59882D01*
X124084Y60576D01*
X124229Y61269D01*
X124380Y61494D01*
X124510Y62150D01*
X124380Y62807D01*
X124008Y63363D01*
Y64087D01*
X124380Y64643D01*
X124510Y65300D01*
X124380Y65957D01*
X124008Y66513D01*
X124562Y67346D01*
X124756Y67637D01*
X124819Y67950D01*
X120629D01*
Y68950D01*
X124819D01*
X124756Y69262D01*
X124562Y69554D01*
X124008Y70386D01*
X124380Y70943D01*
X124510Y71599D01*
X124380Y72256D01*
X124008Y72812D01*
Y73536D01*
X124380Y74092D01*
X124510Y74749D01*
X124380Y75405D01*
X124229Y75631D01*
X124084Y76324D01*
X124229Y77017D01*
X124380Y77242D01*
X124510Y77898D01*
X124380Y78555D01*
X124008Y79112D01*
X123451Y79483D01*
X122794Y79614D01*
X118464D01*
X117807Y79483D01*
X117251Y79112D01*
X117181Y79105D01*
X107021Y89265D01*
Y110022D01*
X108272D01*
Y113978D01*
X103528D01*
Y110022D01*
X104778D01*
Y89422D01*
X103778Y89008D01*
X98822Y93965D01*
Y110022D01*
X100072D01*
Y113978D01*
X95328D01*
Y110022D01*
X96578D01*
Y93500D01*
X96578Y93500D01*
X96648Y93153D01*
X96603Y93095D01*
X95524Y92862D01*
X90622Y97765D01*
Y110022D01*
X91872D01*
Y113978D01*
X87128D01*
Y110022D01*
X88378D01*
Y98122D01*
X87378Y97708D01*
X82421Y102665D01*
Y110022D01*
X83672D01*
Y113978D01*
X78928D01*
Y110022D01*
X80178D01*
Y103471D01*
X79178Y103056D01*
X74221Y108013D01*
Y110022D01*
X75472D01*
Y113978D01*
X70728D01*
Y110022D01*
X71978D01*
Y107549D01*
X71978Y107549D01*
X72064Y107120D01*
X72307Y106756D01*
X116775Y62287D01*
X116748Y62150D01*
X116879Y61494D01*
X117029Y61269D01*
X117151Y60691D01*
X116434Y59772D01*
X110448D01*
X109576Y60500D01*
X109472Y61027D01*
X109173Y61473D01*
X108727Y61772D01*
X108462Y61824D01*
X59072Y111214D01*
Y113978D01*
X54328D01*
Y110022D01*
X57092D01*
X104506Y62608D01*
X104437Y61263D01*
X104327Y61172D01*
X103800Y61276D01*
X103273Y61172D01*
X102827Y60873D01*
X102660Y60624D01*
X101852Y60391D01*
X101498Y60372D01*
X50872Y110998D01*
Y113978D01*
X46128D01*
Y110022D01*
X48676D01*
X53780Y104918D01*
X53115Y104193D01*
X52751Y104436D01*
X52322Y104522D01*
X52322Y104522D01*
X44565D01*
X41422Y107665D01*
Y110022D01*
X42672D01*
Y113978D01*
X37928D01*
Y110022D01*
X39178D01*
Y107200D01*
X39178Y107200D01*
X39264Y106771D01*
X39507Y106407D01*
X43307Y102607D01*
X43307Y102607D01*
X43671Y102364D01*
X44100Y102278D01*
X44100Y102278D01*
X51858D01*
X113629Y40507D01*
X113629Y40507D01*
X113993Y40264D01*
X114205Y40222D01*
X114107Y39222D01*
X112565D01*
X51093Y100693D01*
X50729Y100936D01*
X50300Y101022D01*
X50300Y101022D01*
X39065D01*
X33222Y106865D01*
Y110022D01*
X34472D01*
Y113978D01*
X29728D01*
Y110022D01*
X30978D01*
Y106400D01*
X30978Y106400D01*
X31064Y105971D01*
X31307Y105607D01*
X37807Y99107D01*
X37807Y99107D01*
X38171Y98864D01*
X38600Y98778D01*
X38600Y98778D01*
X49835D01*
X98651Y49963D01*
X98268Y49039D01*
X93268D01*
Y27890D01*
X85705Y20327D01*
X23095D01*
X14153Y29269D01*
Y49039D01*
X7047D01*
Y27761D01*
X7557D01*
X7580Y27591D01*
X7892Y26837D01*
X8389Y26189D01*
X19589Y14989D01*
X19589Y14989D01*
X20237Y14492D01*
X20991Y14180D01*
X21800Y14073D01*
X87000D01*
X87000Y14073D01*
X87809Y14180D01*
X88563Y14492D01*
X89211Y14989D01*
X99031Y24810D01*
X99031Y24810D01*
X99528Y25457D01*
X99841Y26211D01*
X99937Y26941D01*
X100373Y27761D01*
X100373Y27761D01*
X100373Y27761D01*
Y37278D01*
X103449D01*
X103673Y37128D01*
X104200Y37024D01*
X104727Y37128D01*
X105173Y37427D01*
X105472Y37873D01*
X105576Y38400D01*
X105472Y38927D01*
X105173Y39373D01*
X104727Y39672D01*
X104200Y39776D01*
X103673Y39672D01*
X103449Y39522D01*
X100373D01*
Y46934D01*
X101297Y47317D01*
X111307Y37307D01*
X111307Y37307D01*
X111671Y37064D01*
X112100Y36978D01*
X112100Y36978D01*
X131800D01*
X131800Y36978D01*
X132229Y37064D01*
X132593Y37307D01*
X136454Y41168D01*
X136454Y41168D01*
X136697Y41531D01*
X136782Y41961D01*
X136782Y41961D01*
Y44413D01*
X137782Y44716D01*
X137901Y44539D01*
X138347Y44240D01*
X138874Y44135D01*
X139401Y44240D01*
X139847Y44539D01*
X140131Y44963D01*
X140390Y45007D01*
X140855Y45049D01*
X141170Y45010D01*
X141427Y44627D01*
X141873Y44328D01*
X142400Y44224D01*
X142927Y44328D01*
X143056Y44415D01*
X143480Y44589D01*
X144227Y44327D01*
X144673Y44028D01*
X145200Y43924D01*
X145727Y44028D01*
X146173Y44327D01*
X147140Y44523D01*
X147361Y44441D01*
X147661Y44240D01*
X148188Y44135D01*
X148715Y44240D01*
X149162Y44539D01*
X149460Y44985D01*
X149565Y45512D01*
X149460Y46038D01*
X149310Y46263D01*
Y46900D01*
X149401Y46961D01*
X149773Y47517D01*
X149904Y48174D01*
Y51395D01*
X150904Y51809D01*
X152206Y50507D01*
X152206Y50507D01*
X152570Y50264D01*
X152999Y50178D01*
X152999Y50178D01*
X176835D01*
X197496Y29518D01*
X196930Y28670D01*
X196840Y28707D01*
X195900Y28831D01*
X194960Y28707D01*
X194085Y28345D01*
X193332Y27768D01*
X192755Y27016D01*
X192393Y26140D01*
X192269Y25200D01*
X192393Y24260D01*
X192755Y23384D01*
X193332Y22633D01*
X194085Y22055D01*
X194960Y21693D01*
X195900Y21569D01*
X196840Y21693D01*
X197715Y22055D01*
X198378Y22564D01*
X198757Y22488D01*
X199378Y22177D01*
Y18223D01*
X198757Y17912D01*
X198378Y17836D01*
X197715Y18345D01*
X196840Y18707D01*
X195900Y18831D01*
X194960Y18707D01*
X194085Y18345D01*
X193332Y17767D01*
X192755Y17016D01*
X192393Y16140D01*
X192269Y15200D01*
X192393Y14260D01*
X192755Y13385D01*
X193332Y12632D01*
X194085Y12055D01*
X194960Y11693D01*
X195900Y11569D01*
X196840Y11693D01*
X197715Y12055D01*
X198378Y12564D01*
X198757Y12488D01*
X199283Y12225D01*
X199365Y11252D01*
X195335Y7222D01*
X185465D01*
X179120Y13566D01*
X179407Y14260D01*
X179531Y15200D01*
X179407Y16140D01*
X179045Y17016D01*
X178468Y17767D01*
X177716Y18345D01*
X176840Y18707D01*
X175900Y18831D01*
X174960Y18707D01*
X174084Y18345D01*
X173332Y17767D01*
X172755Y17016D01*
X172468Y16321D01*
X161001D01*
Y17201D01*
X153698D01*
Y15163D01*
X147380D01*
X147380Y15163D01*
X146950Y15078D01*
X146587Y14835D01*
X146586Y14835D01*
X142089Y10337D01*
X140911D01*
X136414Y14835D01*
X136050Y15078D01*
X135620Y15163D01*
X135620Y15163D01*
X129702D01*
Y17201D01*
X122399D01*
Y10883D01*
X129702D01*
Y12920D01*
X135156D01*
X139128Y8948D01*
Y6613D01*
X139128Y5987D01*
X139128Y4987D01*
Y1263D01*
X143872D01*
Y2316D01*
X145986D01*
X146211Y2166D01*
X146738Y2061D01*
X147265Y2166D01*
X147711Y2465D01*
X148010Y2911D01*
X148114Y3438D01*
X148010Y3965D01*
X147711Y4411D01*
X147265Y4710D01*
X146738Y4814D01*
X146211Y4710D01*
X145986Y4559D01*
X144579D01*
X143872Y5266D01*
Y5613D01*
X143872Y6613D01*
Y8948D01*
X147844Y12920D01*
X153698D01*
Y10883D01*
X161001D01*
Y14078D01*
X172468D01*
X172755Y13385D01*
X173332Y12632D01*
X174084Y12055D01*
X174960Y11693D01*
X175900Y11569D01*
X176840Y11693D01*
X177534Y11980D01*
X184207Y5307D01*
X184207Y5307D01*
X184571Y5064D01*
X185000Y4978D01*
X195800D01*
X195800Y4978D01*
X196229Y5064D01*
X196593Y5307D01*
X201293Y10007D01*
X201293Y10007D01*
X201536Y10371D01*
X201622Y10800D01*
Y28100D01*
X201536Y28529D01*
X201293Y28893D01*
X201293Y28893D01*
X178093Y52093D01*
X177729Y52336D01*
X177300Y52422D01*
X177300Y52422D01*
X153464D01*
X152673Y53212D01*
X153056Y54136D01*
X155865D01*
X156522Y54266D01*
X157067Y54630D01*
X178852D01*
X178852Y54630D01*
X179281Y54716D01*
X179645Y54959D01*
X202893Y78207D01*
X202893Y78207D01*
X203136Y78571D01*
X203222Y79000D01*
Y255900D01*
X203136Y256329D01*
X202893Y256693D01*
X202893Y256693D01*
X142293Y317293D01*
X141929Y317536D01*
X141500Y317622D01*
X141500Y317621D01*
X111265D01*
X107458Y321428D01*
X107516Y322426D01*
X107584Y322471D01*
X107978Y323060D01*
X108116Y323755D01*
Y327102D01*
X107978Y327797D01*
X107584Y328386D01*
X106995Y328779D01*
X106300Y328918D01*
D02*
G37*
G36*
X49800Y238476D02*
X49273Y238372D01*
X48827Y238073D01*
X48826Y238073D01*
X48707Y237993D01*
X28507Y217793D01*
X28264Y217429D01*
X28178Y217000D01*
X28178Y217000D01*
Y150700D01*
X28178Y150700D01*
X28264Y150271D01*
X28507Y149907D01*
X39178Y139235D01*
Y119490D01*
X37928D01*
Y115534D01*
X42672D01*
Y119490D01*
X41422D01*
Y139700D01*
X41422Y139700D01*
X41336Y140129D01*
X41093Y140493D01*
X30986Y150600D01*
X30979Y150821D01*
X31752Y151169D01*
X32056Y151157D01*
X47378Y135835D01*
Y119490D01*
X46128D01*
Y115534D01*
X50872D01*
Y119490D01*
X49621D01*
Y136300D01*
X49622Y136300D01*
X49536Y136729D01*
X49293Y137093D01*
X49293Y137093D01*
X33280Y153106D01*
X33334Y154118D01*
X33385Y154154D01*
X34407Y154407D01*
X55578Y133235D01*
Y119490D01*
X54328D01*
Y115534D01*
X59072D01*
Y119490D01*
X57822D01*
Y133700D01*
X57822Y133700D01*
X57736Y134129D01*
X57493Y134493D01*
X57493Y134493D01*
X36322Y155665D01*
Y199235D01*
X42512Y205426D01*
X43027Y205528D01*
X43473Y205827D01*
X43772Y206273D01*
X43876Y206800D01*
X43772Y207327D01*
X43473Y207773D01*
X43027Y208072D01*
X42500Y208176D01*
X41973Y208072D01*
X41527Y207773D01*
X41228Y207327D01*
X41225Y207311D01*
X34407Y200493D01*
X34164Y200129D01*
X34078Y199700D01*
X34078Y199700D01*
Y191446D01*
X33779Y191233D01*
X33078Y191004D01*
X32827Y191172D01*
X32300Y191276D01*
X31773Y191172D01*
X31422Y190937D01*
X30976Y191046D01*
X30422Y191319D01*
Y216535D01*
X49641Y235755D01*
X49800Y235723D01*
X50327Y235828D01*
X50773Y236127D01*
X51072Y236573D01*
X51176Y237100D01*
X51072Y237627D01*
X50773Y238073D01*
X50327Y238372D01*
X49800Y238476D01*
D02*
G37*
G36*
X174000Y227677D02*
X173473Y227572D01*
X173027Y227273D01*
X172728Y226827D01*
X172624Y226300D01*
X172728Y225773D01*
X173027Y225327D01*
X173473Y225028D01*
X173738Y224976D01*
X178578Y220135D01*
Y207219D01*
X177578Y206916D01*
X177473Y207073D01*
X177027Y207372D01*
X176500Y207476D01*
X175973Y207372D01*
X175527Y207073D01*
X175228Y206627D01*
X175124Y206100D01*
X175228Y205573D01*
X175278Y205498D01*
Y127065D01*
X170707Y122493D01*
X170464Y122129D01*
X170378Y121700D01*
X170378Y121700D01*
Y119490D01*
X169128D01*
Y115534D01*
X173872D01*
Y119490D01*
X172622D01*
Y121235D01*
X177193Y125807D01*
X177436Y126171D01*
X177522Y126600D01*
X177522Y126600D01*
Y204256D01*
X177578Y204298D01*
X178578Y203795D01*
Y119490D01*
X177328D01*
Y115534D01*
X182072D01*
Y119490D01*
X180822D01*
Y220600D01*
X180736Y221029D01*
X180493Y221393D01*
X180493Y221393D01*
X175324Y226562D01*
X175272Y226827D01*
X174973Y227273D01*
X174527Y227572D01*
X174000Y227677D01*
D02*
G37*
G36*
X114100Y203031D02*
X113160Y202907D01*
X112285Y202545D01*
X111532Y201968D01*
X110955Y201216D01*
X110593Y200340D01*
X110469Y199400D01*
X110593Y198460D01*
X110955Y197584D01*
X111532Y196832D01*
X112285Y196255D01*
X113160Y195893D01*
X114100Y195769D01*
X115040Y195893D01*
X115916Y196255D01*
X116668Y196832D01*
X117245Y197584D01*
X117607Y198460D01*
X117731Y199400D01*
X117607Y200340D01*
X117245Y201216D01*
X116668Y201968D01*
X115916Y202545D01*
X115040Y202907D01*
X114100Y203031D01*
D02*
G37*
G36*
X167100Y190976D02*
X166573Y190872D01*
X166127Y190573D01*
X165828Y190127D01*
X165724Y189600D01*
X165828Y189073D01*
X166127Y188627D01*
X166573Y188328D01*
X166838Y188276D01*
X170878Y184235D01*
Y156333D01*
X170449Y156188D01*
X169878Y156166D01*
X169673Y156473D01*
X169227Y156772D01*
X168700Y156876D01*
X168173Y156772D01*
X167727Y156473D01*
X167428Y156027D01*
X167324Y155500D01*
X167428Y154973D01*
X167678Y154599D01*
Y135365D01*
X154307Y121993D01*
X154064Y121629D01*
X153978Y121200D01*
X153978Y121200D01*
Y119490D01*
X152728D01*
Y115534D01*
X157472D01*
Y119490D01*
X156221D01*
Y120735D01*
X169593Y134107D01*
X169836Y134471D01*
X169878Y134683D01*
X170878Y134585D01*
Y130465D01*
X162507Y122093D01*
X162264Y121729D01*
X162178Y121300D01*
X162178Y121300D01*
Y119490D01*
X160928D01*
Y115534D01*
X165672D01*
Y119490D01*
X164421D01*
Y120835D01*
X172793Y129207D01*
X172793Y129207D01*
X173036Y129571D01*
X173122Y130000D01*
Y184700D01*
X173122Y184700D01*
X173036Y185129D01*
X172793Y185493D01*
X172793Y185493D01*
X168424Y189862D01*
X168372Y190127D01*
X168073Y190573D01*
X167627Y190872D01*
X167100Y190976D01*
D02*
G37*
G36*
X50200Y170476D02*
X49673Y170372D01*
X49227Y170073D01*
X48928Y169627D01*
X48824Y169100D01*
X48928Y168573D01*
X48978Y168498D01*
Y152322D01*
X47978Y151908D01*
X45249Y154637D01*
X45172Y155027D01*
X44873Y155473D01*
X44427Y155772D01*
X43900Y155876D01*
X43813Y155859D01*
X43500Y155922D01*
X43071Y155836D01*
X42707Y155593D01*
X42464Y155229D01*
X42378Y154800D01*
X42464Y154371D01*
X42586Y154189D01*
X42628Y153973D01*
X42927Y153527D01*
X43373Y153228D01*
X43513Y153200D01*
X63778Y132935D01*
Y119490D01*
X62528D01*
Y115534D01*
X67272D01*
Y119490D01*
X66022D01*
Y132878D01*
X67022Y133292D01*
X71978Y128335D01*
Y119490D01*
X70728D01*
Y115534D01*
X75472D01*
Y119490D01*
X74221D01*
Y128578D01*
X74755Y128918D01*
X75198Y129016D01*
X80178Y124035D01*
Y119490D01*
X78928D01*
Y115534D01*
X83672D01*
Y119490D01*
X82421D01*
Y124500D01*
X82422Y124500D01*
X82336Y124929D01*
X82093Y125293D01*
X82093Y125293D01*
X74095Y133291D01*
X73973Y133473D01*
X73527Y133772D01*
X73000Y133876D01*
X72473Y133772D01*
X72027Y133473D01*
X71786Y133114D01*
X71624Y133006D01*
X70667Y132819D01*
X51222Y152265D01*
Y168199D01*
X51472Y168573D01*
X51576Y169100D01*
X51472Y169627D01*
X51173Y170073D01*
X50727Y170372D01*
X50200Y170476D01*
D02*
G37*
G36*
X143500Y145322D02*
X143071Y145236D01*
X142707Y144993D01*
X142609Y144895D01*
X142427Y144773D01*
X142305Y144591D01*
X121507Y123793D01*
X121264Y123429D01*
X121178Y123000D01*
X121178Y123000D01*
Y119490D01*
X119928D01*
Y115534D01*
X124672D01*
Y119490D01*
X123422D01*
Y122535D01*
X143325Y142438D01*
X143400Y142424D01*
X143927Y142528D01*
X144373Y142827D01*
X144672Y143273D01*
X144776Y143800D01*
X144672Y144327D01*
X144564Y144487D01*
X144536Y144629D01*
X144293Y144993D01*
X143929Y145236D01*
X143500Y145322D01*
D02*
G37*
G36*
X35700Y233377D02*
X35173Y233272D01*
X34727Y232973D01*
X34428Y232527D01*
X34324Y232000D01*
X34339Y231925D01*
X25207Y222793D01*
X24964Y222429D01*
X24878Y222000D01*
X24879Y222000D01*
Y149100D01*
X24878Y149100D01*
X24964Y148671D01*
X25207Y148307D01*
X30978Y142535D01*
Y119490D01*
X29728D01*
Y115534D01*
X34472D01*
Y119490D01*
X33222D01*
Y143000D01*
X33136Y143429D01*
X32893Y143793D01*
X32893Y143793D01*
X27122Y149565D01*
Y221535D01*
X36193Y230607D01*
X36312Y230786D01*
X36673Y231027D01*
X36972Y231473D01*
X37076Y232000D01*
X36972Y232527D01*
X36673Y232973D01*
X36227Y233272D01*
X35700Y233377D01*
D02*
G37*
G36*
X171000Y242976D02*
X170473Y242872D01*
X170027Y242573D01*
X169728Y242127D01*
X169624Y241600D01*
X169728Y241073D01*
X170027Y240627D01*
X170473Y240328D01*
X170738Y240276D01*
X186778Y224235D01*
Y119490D01*
X185528D01*
Y115534D01*
X190272D01*
Y119490D01*
X189022D01*
Y224700D01*
X189022Y224700D01*
X188936Y225129D01*
X188693Y225493D01*
X188693Y225493D01*
X172324Y241862D01*
X172272Y242127D01*
X171973Y242573D01*
X171527Y242872D01*
X171000Y242976D01*
D02*
G37*
G36*
X159300Y159776D02*
X158773Y159672D01*
X158327Y159373D01*
X158028Y158927D01*
X157924Y158400D01*
X158028Y157873D01*
X158278Y157499D01*
Y134365D01*
X146107Y122193D01*
X145864Y121829D01*
X145778Y121400D01*
X145778Y121400D01*
Y119490D01*
X144528D01*
Y115534D01*
X149272D01*
Y119490D01*
X148021D01*
Y120935D01*
X160193Y133107D01*
X160193Y133107D01*
X160436Y133471D01*
X160522Y133900D01*
Y157798D01*
X160572Y157873D01*
X160676Y158400D01*
X160572Y158927D01*
X160273Y159373D01*
X159827Y159672D01*
X159300Y159776D01*
D02*
G37*
G36*
X142700Y270777D02*
X142173Y270672D01*
X141727Y270373D01*
X141428Y269927D01*
X141324Y269400D01*
X141428Y268873D01*
X141727Y268427D01*
X142173Y268128D01*
X142438Y268076D01*
X154078Y256435D01*
Y138265D01*
X137907Y122093D01*
X137664Y121729D01*
X137578Y121300D01*
X137578Y121300D01*
Y119490D01*
X136328D01*
Y115534D01*
X141072D01*
Y119490D01*
X139822D01*
Y120835D01*
X155993Y137007D01*
X155993Y137007D01*
X156236Y137371D01*
X156322Y137800D01*
X156322Y137800D01*
Y256900D01*
X156322Y256900D01*
X156236Y257329D01*
X155993Y257693D01*
X144024Y269662D01*
X143972Y269927D01*
X143673Y270373D01*
X143227Y270672D01*
X142700Y270777D01*
D02*
G37*
G36*
X142300Y251677D02*
X141773Y251572D01*
X141327Y251273D01*
X141028Y250827D01*
X140924Y250300D01*
X141028Y249773D01*
X141327Y249327D01*
X141773Y249028D01*
X142038Y248976D01*
X148778Y242235D01*
Y141465D01*
X129707Y122393D01*
X129464Y122029D01*
X129378Y121600D01*
X129378Y121600D01*
Y119490D01*
X128128D01*
Y115534D01*
X132872D01*
Y119490D01*
X131622D01*
Y121135D01*
X150693Y140207D01*
X150693Y140207D01*
X150936Y140571D01*
X151022Y141000D01*
X151022Y141000D01*
Y242700D01*
X150936Y243129D01*
X150693Y243493D01*
X150693Y243493D01*
X143624Y250562D01*
X143572Y250827D01*
X143273Y251273D01*
X142827Y251572D01*
X142300Y251677D01*
D02*
G37*
G36*
X129100Y141176D02*
X128573Y141072D01*
X128127Y140773D01*
X127828Y140327D01*
X127800Y140187D01*
X113307Y125693D01*
X113064Y125329D01*
X112978Y124900D01*
X112978Y124900D01*
Y119490D01*
X111728D01*
Y115534D01*
X116472D01*
Y119490D01*
X115222D01*
Y124435D01*
X129237Y138451D01*
X129627Y138528D01*
X130073Y138827D01*
X130372Y139273D01*
X130476Y139800D01*
X130372Y140327D01*
X130073Y140773D01*
X129627Y141072D01*
X129100Y141176D01*
D02*
G37*
G36*
X106100Y122776D02*
X105573Y122672D01*
X105127Y122373D01*
X104828Y121927D01*
X104724Y121400D01*
X104778Y121124D01*
Y119490D01*
X103528D01*
Y115534D01*
X108272D01*
Y119490D01*
X107334D01*
X107115Y120490D01*
X107372Y120873D01*
X107476Y121400D01*
X107372Y121927D01*
X107073Y122373D01*
X106627Y122672D01*
X106100Y122776D01*
D02*
G37*
G36*
X100000Y139776D02*
X99473Y139672D01*
X99027Y139373D01*
X98728Y138927D01*
X98651Y138537D01*
X96907Y136793D01*
X96664Y136429D01*
X96578Y136000D01*
X96578Y136000D01*
Y119490D01*
X95328D01*
Y115534D01*
X100072D01*
Y119490D01*
X98822D01*
Y135535D01*
X100387Y137100D01*
X100527Y137128D01*
X100973Y137427D01*
X101272Y137873D01*
X101376Y138400D01*
X101272Y138927D01*
X100973Y139373D01*
X100527Y139672D01*
X100000Y139776D01*
D02*
G37*
G36*
X71100Y148776D02*
X70573Y148672D01*
X70127Y148373D01*
X69828Y147927D01*
X69724Y147400D01*
X69828Y146873D01*
X70127Y146427D01*
X70573Y146128D01*
X70838Y146076D01*
X88378Y128535D01*
Y119490D01*
X87128D01*
Y115534D01*
X91872D01*
Y119490D01*
X90622D01*
Y129000D01*
X90536Y129429D01*
X90293Y129793D01*
X90293Y129793D01*
X72424Y147662D01*
X72372Y147927D01*
X72073Y148373D01*
X71627Y148672D01*
X71100Y148776D01*
D02*
G37*
G36*
X149272Y113978D02*
X144528D01*
Y110022D01*
X145818D01*
X146092Y109022D01*
X146028Y108927D01*
X145924Y108400D01*
X146028Y107873D01*
X146327Y107427D01*
X146773Y107128D01*
X147300Y107024D01*
X147827Y107128D01*
X148273Y107427D01*
X148572Y107873D01*
X148676Y108400D01*
X148572Y108927D01*
X148508Y109022D01*
X148782Y110022D01*
X149272D01*
Y113978D01*
D02*
G37*
G36*
X67272D02*
X62528D01*
Y110022D01*
X63150D01*
X63778Y109300D01*
X63864Y108871D01*
X64107Y108507D01*
X109876Y62738D01*
X109928Y62473D01*
X110227Y62027D01*
X110673Y61728D01*
X111200Y61624D01*
X111727Y61728D01*
X112173Y62027D01*
X112472Y62473D01*
X112576Y63000D01*
X112472Y63527D01*
X112173Y63973D01*
X111727Y64272D01*
X111462Y64324D01*
X66764Y109022D01*
X67178Y110022D01*
X67272D01*
Y113978D01*
D02*
G37*
G36*
X63569Y48258D02*
X54210D01*
Y38900D01*
X63569D01*
Y48258D01*
D02*
G37*
G36*
X53210D02*
X43852D01*
Y38900D01*
X53210D01*
Y48258D01*
D02*
G37*
G36*
X161401Y35317D02*
X157850D01*
Y32258D01*
X161401D01*
Y35317D01*
D02*
G37*
G36*
X156850D02*
X153298D01*
Y32258D01*
X156850D01*
Y35317D01*
D02*
G37*
G36*
X130102D02*
X126550D01*
Y32258D01*
X130102D01*
Y35317D01*
D02*
G37*
G36*
X125550D02*
X121999D01*
Y32258D01*
X125550D01*
Y35317D01*
D02*
G37*
G36*
X63569Y37900D02*
X54210D01*
Y28542D01*
X63569D01*
Y37900D01*
D02*
G37*
G36*
X53210D02*
X43852D01*
Y28542D01*
X53210D01*
Y37900D01*
D02*
G37*
G36*
X161401Y31258D02*
X157850D01*
Y28199D01*
X161401D01*
Y31258D01*
D02*
G37*
G36*
X156850D02*
X153298D01*
Y28199D01*
X156850D01*
Y31258D01*
D02*
G37*
G36*
X130102Y31258D02*
X126550D01*
Y28199D01*
X130102D01*
Y31258D01*
D02*
G37*
G36*
X125550D02*
X121999D01*
Y28199D01*
X125550D01*
Y31258D01*
D02*
G37*
G36*
X176400Y29169D02*
Y25700D01*
X179869D01*
X179797Y26244D01*
X179394Y27217D01*
X178753Y28053D01*
X177917Y28694D01*
X176944Y29097D01*
X176400Y29169D01*
D02*
G37*
G36*
X175400D02*
X174856Y29097D01*
X173883Y28694D01*
X173047Y28053D01*
X172406Y27217D01*
X172003Y26244D01*
X171931Y25700D01*
X175400D01*
Y29169D01*
D02*
G37*
G36*
X185900Y28831D02*
X184960Y28707D01*
X184084Y28345D01*
X183332Y27768D01*
X182755Y27016D01*
X182393Y26140D01*
X182269Y25200D01*
X182393Y24260D01*
X182755Y23384D01*
X183332Y22633D01*
X184084Y22055D01*
X184960Y21693D01*
X185900Y21569D01*
X186840Y21693D01*
X187715Y22055D01*
X188468Y22633D01*
X189045Y23384D01*
X189407Y24260D01*
X189531Y25200D01*
X189407Y26140D01*
X189045Y27016D01*
X188468Y27768D01*
X187715Y28345D01*
X186840Y28707D01*
X185900Y28831D01*
D02*
G37*
G36*
X179869Y24700D02*
X176400D01*
Y21231D01*
X176944Y21303D01*
X177917Y21706D01*
X178753Y22347D01*
X179394Y23183D01*
X179797Y24156D01*
X179869Y24700D01*
D02*
G37*
G36*
X175400D02*
X171931D01*
X172003Y24156D01*
X172406Y23183D01*
X173047Y22347D01*
X173883Y21706D01*
X174856Y21303D01*
X175400Y21231D01*
Y24700D01*
D02*
G37*
G36*
X185900Y18831D02*
X184960Y18707D01*
X184084Y18345D01*
X183332Y17767D01*
X182755Y17016D01*
X182393Y16140D01*
X182269Y15200D01*
X182393Y14260D01*
X182755Y13385D01*
X183332Y12632D01*
X184084Y12055D01*
X184960Y11693D01*
X185900Y11569D01*
X186840Y11693D01*
X187715Y12055D01*
X188468Y12632D01*
X189045Y13385D01*
X189407Y14260D01*
X189531Y15200D01*
X189407Y16140D01*
X189045Y17016D01*
X188468Y17767D01*
X187715Y18345D01*
X186840Y18707D01*
X185900Y18831D01*
D02*
G37*
%LPD*%
D10*
X119978Y58650D02*
X120128Y58500D01*
X107434Y58650D02*
X119978D01*
X106184Y59900D02*
X107434Y58650D01*
X103800Y59900D02*
X106184D01*
X48500Y111784D02*
X103984Y56300D01*
X104200D01*
X48500Y111784D02*
Y112000D01*
X120128Y58500D02*
X120629Y59001D01*
X56700Y112000D02*
X108200Y60500D01*
X52322Y103400D02*
X114422Y41300D01*
X130800D01*
X111860Y355540D02*
X116200Y351200D01*
Y341176D02*
Y351200D01*
X106430Y341176D02*
X116200D01*
X176551Y62051D02*
X195900Y81400D01*
X153771Y62051D02*
X176551D01*
X195900Y81400D02*
Y253800D01*
X141500Y3438D02*
X146738D01*
X145039Y45461D02*
X145200Y45300D01*
X145039Y45461D02*
Y50339D01*
X141889Y46111D02*
X142400Y45600D01*
X141889Y46111D02*
Y50339D01*
X138739Y45647D02*
Y50339D01*
Y45647D02*
X138874Y45512D01*
X120700Y50700D02*
Y55278D01*
X120378Y55600D02*
X120700Y55278D01*
X120378Y55600D02*
X120629Y55851D01*
X64900Y109300D02*
X111200Y63000D01*
X64900Y109300D02*
Y112000D01*
X129291Y46091D02*
Y50339D01*
X126141Y46141D02*
Y50339D01*
X157350Y14042D02*
X158508Y15200D01*
X175900D01*
X147380Y14042D02*
X157350D01*
X141500Y8162D02*
X147380Y14042D01*
X135620D02*
X141500Y8162D01*
X126050Y14042D02*
X135620D01*
X175900Y15200D02*
X185000Y6100D01*
X195800D01*
X200500Y10800D01*
Y28100D01*
X177300Y51300D02*
X200500Y28100D01*
X152999Y51300D02*
X177300D01*
X139706Y64593D02*
X152999Y51300D01*
X139706Y64593D02*
Y82443D01*
X138739Y83410D02*
X139706Y82443D01*
X153700Y68450D02*
X160050D01*
X146900Y112000D02*
X147300Y111600D01*
Y108400D02*
Y111600D01*
X148188Y45512D02*
Y50339D01*
X141960Y83311D02*
Y95260D01*
X155100Y108400D02*
Y112000D01*
X141960Y95260D02*
X155100Y108400D01*
X145109Y83311D02*
Y89609D01*
X163300Y107800D02*
Y112000D01*
X145109Y89609D02*
X163300Y107800D01*
X129361Y83311D02*
Y101439D01*
X122300Y108500D02*
X129361Y101439D01*
X122300Y108500D02*
Y112000D01*
X126212Y83311D02*
Y96288D01*
X114100Y108400D02*
X126212Y96288D01*
X114100Y108400D02*
Y112000D01*
X193300Y82400D02*
Y252400D01*
X141728Y303972D02*
X193300Y252400D01*
X121300Y303972D02*
X141728D01*
X32100Y152700D02*
Y189400D01*
Y152700D02*
X48500Y136300D01*
X63200Y264600D02*
X70200D01*
X106800Y267800D02*
X110000Y264600D01*
X106800Y267800D02*
Y283644D01*
X110800Y316500D02*
X141500D01*
X106300Y321000D02*
X110800Y316500D01*
X106300Y321000D02*
Y325428D01*
X117600Y309200D02*
X140500D01*
X116300Y307900D02*
X117600Y309200D01*
X116300Y303972D02*
Y307900D01*
X115100Y313100D02*
X140300D01*
X111300Y309300D02*
X115100Y313100D01*
X111300Y303972D02*
Y309300D01*
X86300Y298900D02*
Y303972D01*
X100000Y290056D02*
X100800Y289256D01*
X101300Y299200D02*
Y303972D01*
X100000Y297900D02*
X101300Y299200D01*
X100000Y290056D02*
Y297900D01*
X100100Y283044D02*
X100800Y283744D01*
X100100Y279500D02*
Y283044D01*
Y279500D02*
X102300Y277300D01*
X38600Y99900D02*
X50300D01*
X32100Y106400D02*
X38600Y99900D01*
X32100Y106400D02*
Y112000D01*
X96820Y38400D02*
X104200D01*
X43500Y154800D02*
X64900Y133400D01*
X73100Y132700D02*
X81300Y124500D01*
X122300Y123000D02*
X143500Y144200D01*
X168800Y134900D02*
Y155500D01*
X96820Y36106D02*
Y38400D01*
X82000Y330100D02*
X88351Y336451D01*
X82000Y314900D02*
Y330100D01*
Y314900D02*
X86300Y310600D01*
Y303972D02*
Y310600D01*
X88351Y336451D02*
X96659D01*
X35200Y199700D02*
X42200Y206700D01*
X35200Y155200D02*
Y199700D01*
X29300Y217000D02*
X49500Y237200D01*
X29300Y150700D02*
Y217000D01*
X26000Y222000D02*
X35400Y231400D01*
X26000Y149100D02*
Y222000D01*
X52400Y241415D02*
X94415Y199400D01*
X52400Y241415D02*
Y305300D01*
X70200Y264600D02*
X86100Y280500D01*
Y283644D01*
X77900Y257900D02*
X93000Y273000D01*
Y283644D01*
X52400Y305300D02*
X88276Y341176D01*
X96659D01*
X102622Y335963D02*
X106694D01*
X96300Y329641D02*
X102622Y335963D01*
X96300Y325428D02*
Y329641D01*
X106726Y355540D02*
X111860D01*
X96659Y350985D02*
X97474Y351800D01*
X96659Y341176D02*
Y350985D01*
X86100Y289156D02*
Y294900D01*
X91300Y300100D01*
Y303972D01*
X93000Y289156D02*
Y293300D01*
X96300Y296600D01*
Y303972D01*
X106300D02*
X106800Y303472D01*
Y289156D02*
Y303472D01*
X140300Y313100D02*
X199300Y254100D01*
X40300Y107200D02*
Y112000D01*
Y107200D02*
X44100Y103400D01*
X52322D01*
X50300Y99900D02*
X112100Y38100D01*
X131800D02*
X135661Y41961D01*
X112100Y38100D02*
X131800D01*
X26000Y149100D02*
X32100Y143000D01*
Y117512D02*
Y143000D01*
X29300Y150700D02*
X40300Y139700D01*
Y117512D02*
Y139700D01*
X48500Y117512D02*
Y136300D01*
X35200Y155200D02*
X56700Y133700D01*
Y117512D02*
Y133700D01*
X64900Y117512D02*
Y133400D01*
X50100Y151800D02*
Y169000D01*
Y151800D02*
X73100Y128800D01*
Y117512D02*
Y128800D01*
X81300Y117512D02*
Y124500D01*
X71300Y147200D02*
X89500Y129000D01*
Y117512D02*
Y129000D01*
X81300Y102200D02*
Y112000D01*
Y102200D02*
X118200Y65300D01*
X120629D01*
X89500Y97300D02*
Y112000D01*
Y97300D02*
X115201Y71599D01*
X120629D01*
X120202Y62550D02*
X120700Y62051D01*
X118099Y62550D02*
X120202D01*
X73100Y107549D02*
X118099Y62550D01*
X97700Y136000D02*
X99800Y138100D01*
X97700Y117512D02*
Y136000D01*
X105900Y117512D02*
Y121300D01*
X114100Y124900D02*
X128800Y139600D01*
X114100Y117512D02*
Y124900D01*
X122300Y117512D02*
Y123000D01*
X142300Y250300D02*
X149900Y242700D01*
Y141000D02*
Y242700D01*
X130500Y121600D02*
X149900Y141000D01*
X130500Y117512D02*
Y121600D01*
X142700Y269400D02*
X155200Y256900D01*
Y137800D02*
Y256900D01*
X138700Y121300D02*
X155200Y137800D01*
X138700Y117512D02*
Y121300D01*
X159400Y133900D02*
Y158000D01*
X146900Y121400D02*
X159400Y133900D01*
X146900Y117512D02*
Y121400D01*
X155100Y121200D02*
X168800Y134900D01*
X155100Y117512D02*
Y121200D01*
X167100Y189600D02*
X172000Y184700D01*
Y130000D02*
Y184700D01*
X163300Y121300D02*
X172000Y130000D01*
X163300Y117512D02*
Y121300D01*
X176400Y126600D02*
Y206000D01*
X171500Y121700D02*
X176400Y126600D01*
X171500Y117512D02*
Y121700D01*
X132511Y43011D02*
Y50240D01*
X130800Y41300D02*
X132511Y43011D01*
X116901Y77799D02*
X120700D01*
X105900Y88800D02*
X116901Y77799D01*
X105900Y88800D02*
Y112000D01*
X116550Y74650D02*
X120700D01*
X97700Y93500D02*
X116550Y74650D01*
X97700Y93500D02*
Y112000D01*
X132511Y83311D02*
Y107289D01*
X130500Y109300D02*
X132511Y107289D01*
X130500Y109300D02*
Y112000D01*
X138700Y110100D02*
Y112000D01*
X135661Y107061D02*
X138700Y110100D01*
X135661Y83311D02*
Y107061D01*
X171500Y97300D02*
Y112000D01*
X157511Y83311D02*
X171500Y97300D01*
X148259Y83311D02*
X157511D01*
X179700Y98600D02*
Y112000D01*
X158899Y77799D02*
X179700Y98600D01*
X153771Y77799D02*
X158899D01*
X174000Y226300D02*
X179700Y220600D01*
Y117512D02*
Y220600D01*
X171000Y241600D02*
X187900Y224700D01*
Y117512D02*
Y224700D01*
X153771Y74650D02*
X160350D01*
X187900Y102200D01*
Y112000D01*
X135661Y41961D02*
Y50240D01*
X73100Y107549D02*
Y112000D01*
X182400Y71500D02*
X193300Y82400D01*
X153771Y71500D02*
X182400D01*
X140500Y309200D02*
X195900Y253800D01*
X153771Y58902D02*
X178102D01*
X199300Y80100D01*
Y254100D01*
X141500Y316500D02*
X202100Y255900D01*
Y79000D02*
Y255900D01*
X178852Y55752D02*
X202100Y79000D01*
X153771Y55752D02*
X178852D01*
D14*
X116200Y341176D02*
D03*
Y336451D02*
D03*
X106430Y341176D02*
D03*
Y336451D02*
D03*
X96659D02*
D03*
Y341176D02*
D03*
X141500Y8162D02*
D03*
Y3438D02*
D03*
D26*
X114100Y199400D02*
D03*
X94415D02*
D03*
X175900Y25200D02*
D03*
Y15200D02*
D03*
X185900Y25200D02*
D03*
Y15200D02*
D03*
X195900Y25200D02*
D03*
Y15200D02*
D03*
D27*
X103800Y59900D02*
D03*
X108200Y60500D02*
D03*
X104200Y56300D02*
D03*
X146738Y3438D02*
D03*
X145200Y45300D02*
D03*
X142400Y45600D02*
D03*
X138874Y45512D02*
D03*
X120700Y50700D02*
D03*
X111200Y63000D02*
D03*
X129291Y46091D02*
D03*
X126141Y46141D02*
D03*
X160050Y68450D02*
D03*
X147300Y108400D02*
D03*
X148188Y45512D02*
D03*
X176500Y206100D02*
D03*
X110157Y264257D02*
D03*
X86300Y298900D02*
D03*
X104200Y38400D02*
D03*
X102500Y277200D02*
D03*
X77900Y257800D02*
D03*
X63400Y264300D02*
D03*
X49800Y237100D02*
D03*
X35700Y232000D02*
D03*
X42500Y206800D02*
D03*
X32300Y189900D02*
D03*
X43900Y154500D02*
D03*
X50200Y169100D02*
D03*
X73000Y132500D02*
D03*
X71100Y147400D02*
D03*
X100000Y138400D02*
D03*
X106100Y121400D02*
D03*
X159300Y158400D02*
D03*
X129100Y139800D02*
D03*
X143400Y143800D02*
D03*
X168700Y155500D02*
D03*
X167100Y189600D02*
D03*
X174000Y226300D02*
D03*
X171000Y241600D02*
D03*
X142700Y269400D02*
D03*
X142300Y250300D02*
D03*
D28*
X86300Y325428D02*
D03*
X91300D02*
D03*
X96300D02*
D03*
X101300D02*
D03*
X106300D02*
D03*
X111300D02*
D03*
X116300D02*
D03*
X121300D02*
D03*
X86300Y303972D02*
D03*
X91300D02*
D03*
X96300D02*
D03*
X101300D02*
D03*
X106300D02*
D03*
X111300D02*
D03*
X116300D02*
D03*
X121300D02*
D03*
D29*
X86100Y289156D02*
D03*
Y283644D02*
D03*
X99900Y289156D02*
D03*
Y283644D02*
D03*
X40300Y112000D02*
D03*
Y117512D02*
D03*
X56700Y112000D02*
D03*
Y117512D02*
D03*
X73100Y112000D02*
D03*
Y117512D02*
D03*
X89500Y112000D02*
D03*
Y117512D02*
D03*
X105900Y112000D02*
D03*
Y117512D02*
D03*
X114100Y112000D02*
D03*
Y117512D02*
D03*
X179700Y112000D02*
D03*
Y117512D02*
D03*
X106800Y289156D02*
D03*
Y283644D02*
D03*
X93000Y289156D02*
D03*
Y283644D02*
D03*
X97700Y112000D02*
D03*
Y117512D02*
D03*
X122300Y112000D02*
D03*
Y117512D02*
D03*
X32100Y112000D02*
D03*
Y117512D02*
D03*
X146900Y112000D02*
D03*
Y117512D02*
D03*
X155100Y112000D02*
D03*
Y117512D02*
D03*
X163300Y112000D02*
D03*
Y117512D02*
D03*
X48500Y112000D02*
D03*
Y117512D02*
D03*
X171500Y112000D02*
D03*
Y117512D02*
D03*
X64900Y112000D02*
D03*
Y117512D02*
D03*
X187900Y112000D02*
D03*
Y117512D02*
D03*
X81300Y112000D02*
D03*
Y117512D02*
D03*
X130500Y112000D02*
D03*
Y117512D02*
D03*
X138700Y112000D02*
D03*
Y117512D02*
D03*
D30*
X106726Y355540D02*
D03*
Y348060D02*
D03*
X97474Y351800D02*
D03*
D31*
X153700Y77898D02*
D03*
Y74749D02*
D03*
Y71599D02*
D03*
Y68450D02*
D03*
Y65300D02*
D03*
Y62150D02*
D03*
Y59001D02*
D03*
Y55851D02*
D03*
X120629D02*
D03*
Y59001D02*
D03*
Y62150D02*
D03*
Y65300D02*
D03*
Y68450D02*
D03*
Y71599D02*
D03*
Y74749D02*
D03*
Y77898D02*
D03*
D32*
X148188Y50339D02*
D03*
X145039D02*
D03*
X141889D02*
D03*
X138739D02*
D03*
X135590D02*
D03*
X132440D02*
D03*
X129291D02*
D03*
X126141D02*
D03*
Y83410D02*
D03*
X129291D02*
D03*
X132440D02*
D03*
X135590D02*
D03*
X138739D02*
D03*
X141889D02*
D03*
X145039D02*
D03*
X148188D02*
D03*
D33*
X126050Y14042D02*
D03*
Y31758D02*
D03*
X157350Y14042D02*
D03*
Y31758D02*
D03*
D34*
X53710Y38400D02*
D03*
D35*
X96820D02*
D03*
X10600D02*
D03*
D36*
X96820Y27020D02*
Y36106D01*
X87000Y17200D02*
X96820Y27020D01*
X21800Y17200D02*
X87000D01*
X10600Y28400D02*
X21800Y17200D01*
X10600Y28400D02*
Y38400D01*
M02*
